<?xml version="1.0" encoding="UTF-8" standalone="no"?>
<!-- Created with Inkscape (http://www.inkscape.org/) -->

<svg
   id="SVGRoot"
   width="600px"
   height="800px"
   version="1.1"
   viewBox="0 0 600 800"
   sodipodi:docname="polar-bear.svg"
   inkscape:version="1.2 (56b05e47e7, 2022-06-09, custom)"
   xml:space="preserve"
   xmlns:inkscape="http://www.inkscape.org/namespaces/inkscape"
   xmlns:sodipodi="http://sodipodi.sourceforge.net/DTD/sodipodi-0.dtd"
   xmlns="http://www.w3.org/2000/svg"
   xmlns:svg="http://www.w3.org/2000/svg"><defs
     id="defs29359" /><sodipodi:namedview
     id="namedview29357"
     pagecolor="#ffffff"
     bordercolor="#666666"
     borderopacity="1.0"
     inkscape:pageshadow="2"
     inkscape:pageopacity="0.0"
     inkscape:pagecheckerboard="0"
     showgrid="false"
     inkscape:zoom="0.449375"
     inkscape:cx="-445.06259"
     inkscape:cy="143.53268"
     inkscape:window-width="1920"
     inkscape:window-height="935"
     inkscape:window-x="0"
     inkscape:window-y="0"
     inkscape:window-maximized="1"
     inkscape:current-layer="SVGRoot"
     inkscape:snap-global="false"
     inkscape:showpageshadow="2"
     inkscape:deskcolor="#d1d1d1" /><rect
     style="opacity:0.626976;fill:#c7d7e7;fill-opacity:1;stroke:none;stroke-width:5.55276;paint-order:stroke markers fill"
     id="rect1232"
     width="601.91235"
     height="800"
     x="-605.211"
     y="-4.4408921e-14"
     transform="scale(-1,1)" /><path
     style="opacity:1;fill:#ffffff;fill-opacity:1;stroke:none;stroke-width:5.15906;paint-order:stroke markers fill"
     d="m 453.59633,216.50296 c -16.09513,-9.20027 -20.23359,-16.07166 -49.3285,-23.73089 -29.09491,-7.65922 -71.60412,-11.46351 -108.52964,12.66734 -36.92552,24.13085 -83.47749,130.80016 -83.47749,130.80016 0,0 -15.74374,9.07301 -35.58111,39.92524 -19.83736,30.85224 -60.42898,148.35492 -60.42898,148.35492 0,0 -46.271593,111.5964 -58.853443,170.33641 -45.72678,30.46101 -73.72701,76.93077 -51.5820498,111.30911 C 101.414,954.57513 525.43438,800.83667 525.43438,800.83667 c 0,0 14.50461,-92.28905 4.52886,-130.03521 -9.97576,-37.74615 -28.26643,-63.12685 -41.90064,-83.78173 -9.95075,-75.70016 -31.40924,-120.26497 -43.07415,-182.37352 -4.37928,-23.31705 -3.54546,-45.40389 -11.51557,-70.23644 11.84167,-26.24297 34.32576,-81.50948 20.12345,-117.90681 z"
     id="path436"
     sodipodi:nodetypes="czzczcccczcccc" /><circle
     style="opacity:1;fill:#000000;stroke:none;stroke-width:5.15906;paint-order:stroke markers fill"
     id="path588"
     cx="-385.70688"
     cy="225.55199"
     r="6.2912898"
     transform="scale(-1,1)" /><path
     style="opacity:1;fill:#ffffff;fill-opacity:1;stroke:none;stroke-width:5.15906;paint-order:stroke markers fill"
     d="m 472.78133,297.36106 -20.41898,19.74748 -45.5559,-15.7467 7.22141,-13.14977 54.16811,-2.43828 z"
     id="path590" /><path
     style="opacity:1;fill:#ffffff;fill-opacity:1;stroke:none;stroke-width:5.15906;paint-order:stroke markers fill"
     d="m 299.52666,222.73188 c 0,0 -28.51548,-25.10199 -43.94217,-4.57001 -15.42668,20.53198 22.00797,34.47944 22.00797,34.47944"
     id="path1151"
     sodipodi:nodetypes="czc" /><path
     style="opacity:0.626976;fill:#f5a7a7;fill-opacity:1;stroke:none;stroke-width:3.25557;paint-order:stroke markers fill"
     d="m 291.97109,225.09258 c 0,0 -17.99437,-15.84032 -27.7292,-2.88385 -9.73483,12.95647 13.88788,21.75785 13.88788,21.75785"
     id="path1151-3"
     sodipodi:nodetypes="czc" /><path
     style="opacity:1;fill:#ffffff;fill-opacity:1;stroke:none;stroke-width:5.15906;paint-order:stroke markers fill"
     d="m 446.41404,225.88013 c 0,0 36.58921,22.07145 40.30934,36.19719 3.72013,14.12573 -10.87828,34.21093 -10.87828,34.21093 0,0 -30.44598,1.34414 -43.79564,4.30502 -13.34965,2.96089 -26.72548,-10.18124 -26.72548,-10.18124 l -2.74687,-40.48592 z"
     id="path534"
     sodipodi:nodetypes="czczccc" /><path
     style="opacity:1;fill:#000000;stroke:none;stroke-width:5.15906;paint-order:stroke markers fill"
     d="m 483.36966,253.97905 -18.31537,0.70736 c 0,0 -9.98609,7.60524 -10.57458,13.62679 -0.5885,6.02155 12.36092,16.14276 12.36092,16.14276 l 12.32941,-0.61121 c 0,0 8.39735,-4.66485 10.2812,-13.67241 1.88386,-9.00757 -6.08158,-16.19329 -6.08158,-16.19329 z"
     id="path592"
     sodipodi:nodetypes="cczcczc" /></svg>
