<?xml version="1.0" encoding="UTF-8"?>
<svg width="600" height="800" version="1.1" viewBox="0 0 159 212" xmlns="http://www.w3.org/2000/svg" xmlns:cc="http://creativecommons.org/ns#" xmlns:dc="http://purl.org/dc/elements/1.1/" xmlns:rdf="http://www.w3.org/1999/02/22-rdf-syntax-ns#">
 <metadata>
  <rdf:RDF>
   <cc:Work rdf:about="">
    <dc:format>image/svg+xml</dc:format>
    <dc:type rdf:resource="http://purl.org/dc/dcmitype/StillImage"/>
   </cc:Work>
  </rdf:RDF>
 </metadata>
 <g fill="none" stroke-linecap="round" stroke-linejoin="round">
  <circle r="0" stroke="#c53822" stroke-width="2.26" style="paint-order:stroke markers fill"/>
  <g stroke="#924019">
   <circle r="0" stroke-width="1.29" style="paint-order:stroke markers fill"/>
   <circle transform="scale(1,-1)" r="0" stroke-width="3.6" style="paint-order:stroke markers fill"/>
   <circle transform="scale(1,-1)" r="0" stroke-width="3.6" style="paint-order:stroke markers fill"/>
  </g>
  <circle transform="scale(1,-1)" r="0" stroke="#4d4320" stroke-width="4.38" style="paint-order:stroke markers fill"/>
  <circle transform="scale(1,-1)" r="0" stroke="#4d4320" stroke-width="3.52" style="paint-order:stroke markers fill"/>
 </g>
 <path d="m89.8 105-6.98 6.1a7.29 7.29 0 0 0-4.77-1.78 7.29 7.29 0 0 0-4.48 1.54l-6.73-5.84 5.83 6.67a7.29 7.29 0 0 0-1.91 4.92 7.29 7.29 0 0 0 1.81 4.8l-5.7 6.57 6.57-5.74a7.29 7.29 0 0 0 4.62 1.66 7.29 7.29 0 0 0 4.9-1.9l6.87 5.96-6.02-6.88a7.29 7.29 0 0 0 1.53-4.47 7.29 7.29 0 0 0-1.62-4.59z" fill="#ffe300" fill-opacity=".436" style="paint-order:stroke markers fill"/>
 <circle cx="83.4" cy="134" r="3.83" fill="#ffdf00" fill-opacity=".215" stroke-width=".884" style="paint-order:stroke markers fill"/>
 <circle cx="80.7" cy="124" r="3.83" fill="#fc0" fill-opacity=".215" stroke-width=".884" style="paint-order:stroke markers fill"/>
 <g transform="translate(1.25 -1.72)" fill="#fffa00">
  <circle cx="68.4" cy="114" r="3.83" fill-opacity=".215" stroke-width=".884" style="paint-order:stroke markers fill"/>
  <circle cx="88.5" cy="114" r="2.06" fill-opacity=".657" stroke-width=".475" style="paint-order:stroke markers fill"/>
  <circle cx="77.5" cy="102" r="5.76" fill-opacity=".215" stroke-width="1.33" style="paint-order:stroke markers fill"/>
 </g>
 <circle cx="78.9" cy="148" r="2.5" fill="#ffe300" fill-opacity=".215" stroke-width=".577" style="paint-order:stroke markers fill"/>
 <circle cx="86.8" cy="96.9" r="2.43" fill="#fc0" fill-opacity=".215" stroke-width=".56" style="paint-order:stroke markers fill"/>
 <circle cx="78" cy="81.5" r="1.84" fill="#fc0" fill-opacity=".777" stroke-width=".424" style="paint-order:stroke markers fill"/>
 <circle cx="73.8" cy="136" r="3.83" fill="#fff500" fill-opacity=".215" stroke-width=".884" style="paint-order:stroke markers fill"/>
 <circle cx="75.5" cy="111" r="3.83" fill="#fc0" fill-opacity=".215" stroke-width=".884" style="paint-order:stroke markers fill"/>
</svg>
