<?xml version="1.0" encoding="UTF-8" standalone="no"?>
<svg
   id="SVGRoot"
   width="24px"
   height="24px"
   version="1.1"
   viewBox="0 0 24 24"
   sodipodi:docname="avatar.svg"
   inkscape:version="1.1.2 (1:1.1+202202050942+0a00cf5339)"
   xmlns:inkscape="http://www.inkscape.org/namespaces/inkscape"
   xmlns:sodipodi="http://sodipodi.sourceforge.net/DTD/sodipodi-0.dtd"
   xmlns="http://www.w3.org/2000/svg"
   xmlns:svg="http://www.w3.org/2000/svg">
  <defs
     id="defs1747" />
  <sodipodi:namedview
     id="namedview1745"
     pagecolor="#ffffff"
     bordercolor="#999999"
     borderopacity="1"
     inkscape:pageshadow="0"
     inkscape:pageopacity="0"
     inkscape:pagecheckerboard="0"
     showgrid="false"
     inkscape:zoom="10.59187"
     inkscape:cx="-7.3169327"
     inkscape:cy="0.14161805"
     inkscape:window-width="1868"
     inkscape:window-height="988"
     inkscape:window-x="26"
     inkscape:window-y="23"
     inkscape:window-maximized="0"
     inkscape:current-layer="SVGRoot" />
  <path
     d="m13.8 0.176c-1.03-0.0042-2.2 0.0875-3.53 0.299h-0.0352c-10.6-0.758-9.02 16.1-9.02 16.1-0.376 1.44-0.778 3.04-1.17 4.68v2.77h16.7l1.43-15.3 2.84-3.87s-0.071-4.65-7.25-4.68z"
     fill="#8dd35f"
     stroke-width=".256"
     id="path1696"
     style="fill:#71c837;fill-opacity:1" />
  <path
     d="m10.5 18.3-0.0293 0.123c0-1e-6 -0.713 3.04-1.74 3.92-1.02 0.882-3.71 0.984-3.71 0.984-0.688 0.195-1.29 0.441-1.82 0.723h16.5c-0.969-0.603-2.36-0.977-4.3-0.994-0.629-0.862 0.0781-2.09 0.0781-2.09l-4.97-2.66z"
     fill="#f2c7b0"
     stroke-width=".0679"
     id="path1698" />
  <path
     d="m10.1 18.9-0.507 1.97 0.989 2.54s3.1-0.061 3.28-0.132c0.179-0.0712 1.17-1.19 1.17-1.19l-0.0551-1.84z"
     fill="#b7a68d"
     stroke-width=".256"
     id="path1700" />
  <path
     d="m21.5 8.09-0.489 5.89c0.517 5.25-2.47 8.81-3.53 8.86-1.06 0.0579-6.99-2.41-8.02-2.97 0 0-5.02-3.3-5.89-6.07-0.871-2.77-0.82-12.4 8.32-12.4 9.14-0.0212 9.58 6.74 9.58 6.74z"
     fill="#f2c7b0"
     stroke-width=".256"
     id="path1702" />
  <path
     d="m20.7 13.8c0 0.92-0.487 1.27-0.722 1.27-0.235 0-0.73-0.25-0.73-1.17 0-0.92 0.51-1.48 0.745-1.48 0.235 0 0.707 0.461 0.707 1.38z"
     fill="#80b617"
     stroke-width=".374"
     id="path1704" />
  <path
     d="m 20.420842,13.836076 c 0.04865,0.401641 -0.142524,0.579844 -0.243709,0.592102 -0.101186,0.01226 -0.327543,-0.07106 -0.3762,-0.472706 -0.04865,-0.401642 0.141322,-0.672722 0.242506,-0.68498 0.101186,-0.01226 0.328799,0.164379 0.377403,0.565584 z"
     fill="#80b617"
     stroke-width="0.163337"
     id="path1704-7"
     style="fill:#46630d;fill-opacity:1" />
  <path
     d="m 19.2,13.2 c 0.0433,-0.73 1.26,-1.21 1.26,-1.21 l 1.12,-0.0152 c 0,0 -0.612,0.295 -0.64,0.715 -0.284,-0.512 -0.72,-0.341 -1.75,0.515 z"
     fill="#8e6224"
     id="path1706"
     style="stroke-width:0.256" />
  <ellipse
     cx="14.5"
     cy="14.4"
     rx="1.3"
     ry="1.58"
     fill="#80b617"
     id="ellipse1708"
     style="stroke-width:0.256" />
  <ellipse
     cx="14.751995"
     cy="14.519215"
     rx="0.48654902"
     ry="0.64878762"
     fill="#80b617"
     id="ellipse1708-3"
     style="fill:#55790f;fill-opacity:1;stroke-width:0.100359" />
  <path
     d="m 16.2,14.2 c -1.03,-1.74 -3.12,-1.47 -4.07,0.407 -0.151,-0.628 -0.96,-0.791 -0.96,-0.791 l 0.886,-0.274 c 1.8,-1.54 3.97,-0.574 4.15,0.658 z"
     fill="#8e6224"
     id="path1710"
     style="stroke-width:0.256" />
  <g
     transform="matrix(.256 0 0 .256 -8.42 -4.29)"
     id="g1718">
    <path
       d="m103 93.4 2.65-0.607-2.5 1.93-4.98-1.2z"
       fill="#faeeec"
       id="path1714" />
    <path
       d="m104 92.4-9.76-0.483s7.83 1.66 9.54 1.62c1.66-0.128 3.35-2.23 3.35-2.23s-2.3 1.1-3.13 1.1z"
       fill="#c9766c"
       id="path1716" />
  </g>
  <path
     d="m 18.244275,16.872376 0.622,0.494 -0.61,0.879 z"
     fill="#b7a68d"
     id="path1720"
     style="stroke-width:0.256" />
  <path
     d="m 7.7542755,21.872376 -2.35,1.35 -4.1,0.848 0.0117,0.0312 h 6.92 l -0.484,-2.23 z m 8.2399995,0.781 0.0879,1.45 h 4.6 l 0.0371,-0.082 -2.47,-0.887 -2.26,-0.479 z"
     fill="#a8dc71"
     id="path1722"
     style="stroke-width:0.256" />
  <ellipse
     cx="15.144276"
     cy="14.072376"
     rx="0.228"
     ry="0.361"
     fill="#ffffff"
     id="ellipse1724"
     style="stroke-width:0.256" />
  <ellipse
     cx="20.344275"
     cy="13.372376"
     rx="0.228"
     ry="0.361"
     fill="#ffffff"
     id="ellipse1726"
     style="stroke-width:0.256" />
  <path
     d="m 9.7242755,13.372376 c 0,0 0.7809995,2.22 0.6299995,3.33 -0.151,1.11 -0.7889995,3.71 -0.7889995,3.71 l -7.76,-1.25 3.53,-6.81 z"
     fill="#8dd35f"
     id="path1728"
     style="stroke-width:0.256;fill:#71c837;fill-opacity:1" />
  <path
     d="m13.5 9.54c-0.863 0.0873-1.74 0.471-2.32 1.29l0.338 0.247c0.487-0.702 1.24-1.03 2.02-1.11 0.774-0.0784 1.56 0.112 2.04 0.425l0.223-0.359c-0.581-0.379-1.44-0.576-2.3-0.489z"
     color="#000000"
     fill="#845816"
     stroke-width=".353"
     style="-inkscape-stroke:none"
     id="path1732" />
  <path
     d="m20.5 8.87c-0.428 0.0873-0.866 0.471-1.15 1.29l0.168 0.247c0.242-0.702 0.617-1.03 1-1.11 0.384-0.0784 0.774 0.112 1.01 0.425l0.11-0.359c-0.289-0.379-0.715-0.576-1.14-0.489z"
     color="#000000"
     fill="#845816"
     stroke-width=".249"
     style="-inkscape-stroke:none"
     id="path1734" />
  <path
     d="m 19.5,3.42 c -0.581,1.45 -4.99,6.69 -7.3,8.48 -3.59,2.51 -7.5,4 -11.8,4.17 1.84,-6.51 5.4,-14 5.4,-14 7.97,-1.8 10.5,-1.98 13.7,1.29 z"
     fill="#8dd35f"
     id="path1736"
     style="stroke-width:0.256;fill:#71c837;fill-opacity:1" />
  <path
     d="m 16.2,4.8 c 0,0 3.77,3.15 4.69,4.69 0.922,1.54 1.24,3.92 1.24,3.92 0.387,-2.33 1.9,-6.02 0.0661,-8.53 0.41,0.139 1.15,0.999 1.65,1.94 0.356,-3 -1.73,-5.71 -4.46,-5.25 -0.535,-0.592 -3.94,-2.3 -4.38,-1.17 z"
     fill="#8dd35f"
     id="path1738"
     style="stroke-width:0.256;fill:#71c837;fill-opacity:1" />
  <path
     d="m 0,10.2 v 1.1 c 1.26,2.01 4.81,3.91 4.81,3.91 -0.094,2.07 1.84,2.07 2.64,2.04 L 7.706,13.7 c -0.0289,-0.97 -6.05,-2.97 -7.71,-3.5 z"
     fill="#f2c7b0"
     id="path1740"
     style="stroke-width:0.256" />
</svg>
