<?xml version="1.0" encoding="UTF-8" standalone="no"?>
<svg
   width="600"
   height="800"
   version="1.1"
   viewBox="0 0 159 212"
   id="svg96"
   sodipodi:docname="down.svg"
   inkscape:version="1.1.2 (1:1.1+202202050942+0a00cf5339)"
   xmlns:inkscape="http://www.inkscape.org/namespaces/inkscape"
   xmlns:sodipodi="http://sodipodi.sourceforge.net/DTD/sodipodi-0.dtd"
   xmlns="http://www.w3.org/2000/svg"
   xmlns:svg="http://www.w3.org/2000/svg"
   xmlns:rdf="http://www.w3.org/1999/02/22-rdf-syntax-ns#"
   xmlns:cc="http://creativecommons.org/ns#"
   xmlns:dc="http://purl.org/dc/elements/1.1/">
  <defs
     id="defs100" />
  <sodipodi:namedview
     id="namedview98"
     pagecolor="#ffffff"
     bordercolor="#999999"
     borderopacity="1"
     inkscape:pageshadow="0"
     inkscape:pageopacity="0"
     inkscape:pagecheckerboard="0"
     showgrid="false"
     inkscape:zoom="0.89875"
     inkscape:cx="663.69958"
     inkscape:cy="131.84979"
     inkscape:window-width="1920"
     inkscape:window-height="940"
     inkscape:window-x="0"
     inkscape:window-y="0"
     inkscape:window-maximized="1"
     inkscape:current-layer="svg96" />
  <metadata
     id="metadata2">
    <rdf:RDF>
      <cc:Work
         rdf:about="">
        <dc:format>image/svg+xml</dc:format>
        <dc:type
           rdf:resource="http://purl.org/dc/dcmitype/StillImage" />
      </cc:Work>
    </rdf:RDF>
  </metadata>
  <g
     fill="none"
     stroke-linecap="round"
     stroke-linejoin="round"
     id="g18">
    <circle
       r="0"
       stroke="#c53822"
       stroke-width="2.26"
       style="paint-order:stroke markers fill"
       id="circle4" />
    <g
       stroke="#924019"
       id="g12">
      <circle
         r="0"
         stroke-width="1.29"
         style="paint-order:stroke markers fill"
         id="circle6" />
      <circle
         transform="scale(1,-1)"
         r="0"
         stroke-width="3.6"
         style="paint-order:stroke markers fill"
         id="circle8" />
      <circle
         transform="scale(1,-1)"
         r="0"
         stroke-width="3.6"
         style="paint-order:stroke markers fill"
         id="circle10" />
    </g>
    <circle
       transform="scale(1,-1)"
       r="0"
       stroke="#4d4320"
       stroke-width="4.38"
       style="paint-order:stroke markers fill"
       id="circle14" />
    <circle
       transform="scale(1,-1)"
       r="0"
       stroke="#4d4320"
       stroke-width="3.52"
       style="paint-order:stroke markers fill"
       id="circle16" />
  </g>
  <path
     transform="matrix(.265 0 0 .265 0 -.0167)"
     d="m310 431-12.6 40 119 329h146l-253-369h-0.227z"
     fill="#6fc835"
     fill-opacity=".361"
     id="path20" />
  <path
     transform="matrix(.265 0 0 .265 0 -.0167)"
     d="m320 464s0.316 0.512 0.332 0.537l0.0312-0.0664-0.363-0.471zm0.332 0.537-14.9 31s52.5 205 76.5 304h49.5c13.3-27.3 24.3-60.7 21.2-89.7-16-58.1-130-243-132-246z"
     fill="#6fc835"
     fill-opacity=".361"
     id="path22" />
  <path
     d="m67.7 14.3c-41.2-2.96-35.2 62.7-35.2 62.7-6.29 24.2-14.5 58.3-14.3 77.1 0.2 18.8 7 33.8 7 33.8l30.5-9.48 17.9 4.18 19.3-72.7 5.92-63.4 11.1-15.1s-0.366-23.7-42-17.1z"
     fill="#71c837"
     stroke-width=".999"
     id="path24" />
  <path
     d="m97.7 137-50.5 0.516-8.71 29.4s-20.8 10.2-22.6 19.7c-1.63 8.73-4.28 22.9-4.73 25.3h87.3l-12.1-23.5-3.87-12.6 14.5-12.9 0.374-25.9z"
     fill="#a8dc71"
     stroke-width=".265"
     id="path26" />
  <path
     transform="matrix(.265 0 0 .265 0 -.0167)"
     d="m205 408 0.0469 0.355 0.104-0.156-0.15-0.199zm0.0469 0.355-205 311v80.9h72.4l139-346-6.1-45.8z"
     fill="#6fc835"
     fill-opacity=".361"
     id="path28" />
  <g
     transform="matrix(.999 0 0 .999 .04 -.416)"
     fill="none"
     stroke-linecap="round"
     stroke-linejoin="round"
     id="g44">
    <circle
       r="0"
       stroke="#c53822"
       stroke-width="2.26"
       style="paint-order:stroke markers fill"
       id="circle30" />
    <g
       stroke="#924019"
       id="g38">
      <circle
         r="0"
         stroke-width="1.29"
         style="paint-order:stroke markers fill"
         id="circle32" />
      <circle
         transform="scale(1,-1)"
         r="0"
         stroke-width="3.6"
         style="paint-order:stroke markers fill"
         id="circle34" />
      <circle
         transform="scale(1,-1)"
         r="0"
         stroke-width="3.6"
         style="paint-order:stroke markers fill"
         id="circle36" />
    </g>
    <circle
       transform="scale(1,-1)"
       r="0"
       stroke="#4d4320"
       stroke-width="4.38"
       style="paint-order:stroke markers fill"
       id="circle40" />
    <circle
       transform="scale(1,-1)"
       r="0"
       stroke="#4d4320"
       stroke-width="3.52"
       style="paint-order:stroke markers fill"
       id="circle42" />
  </g>
  <path
     d="m40.1 160-4.33 3-5.33 9.44 20.3 17 20 3.95 15.1-11.9-0.0212-8.33-12.5 3.58-16.9-6.98z"
     fill="#598e24"
     stroke-width=".999"
     id="path46" />
  <path
     d="m63.7 89.1c0-3e-6 5.29 11.3 1.3 14.7-3.99 3.44-14.5 3.84-14.5 3.84-21.8 6.19-22.2 25.6-22.2 25.6 4.39 22.9 6.14 36.6 9.21 54.8l7.83 23.7h19.4l-6.61-28.1-6.56-36 30.2-9.03 14.1 7.41s-3.97 25.5-4.87 36.8c-0.821 10.5-1.16 26.3-1.22 28.9l17.5 8e-3c0.228-4.52 1.26-27.3-2e-3 -41.3l5.03-27.6c4.39-13.1 9.32-36-21.4-36.3-2.46-3.37-0.922-7.63-0.922-7.63l-18.1-10.9z"
     fill="#f2c7b0"
     stroke-width=".265"
     id="path48" />
  <path
     d="m70.3 90.3-4.69 1.36 6.57 16.2s12.1-0.238 12.8-0.515c0.699-0.278 4.56-4.64 4.56-4.64l-0.215-7.19z"
     fill="#b7a68d"
     stroke-width=".999"
     id="path50" />
  <path
     d="m110 45.5-1.91 23c2.02 20.5-9.64 34.4-13.8 34.6-4.12 0.226-27.3-9.39-31.3-11.6 0 0-19.6-12.9-23-23.7-3.4-10.8-3.2-48.4 32.5-48.5 35.7-0.0826 37.4 26.3 37.4 26.3z"
     fill="#f2c7b0"
     stroke-width=".999"
     id="path52" />
  <path
     d="m107 67.7c0 3.59-1.9 4.94-2.82 4.94-0.918 0-2.85-0.975-2.85-4.56 0-3.59 1.64-4.81 3.11-4.84 1.5-0.0338 2.56 0.863 2.56 4.45z"
     fill="#80b617"
     stroke-width="1.46"
     id="path54" />
  <path
     d="m106 67.8c0 1.3-0.773 1.79-1.15 1.79-0.374 0-1.16-0.354-1.16-1.65 0-1.3 0.81-2.09 1.18-2.09 0.374 0 1.12 0.652 1.12 1.95z"
     fill="#4b6a0d"
     stroke-width=".561"
     id="path56" />
  <path
     d="m101 65.5c0.169-2.85 5.06-2.84 5.06-2.84l4.12 0.553s-2.25 0.36-2.36 2c-1.11-2-2.46-1.78-6.81 0.29z"
     fill="#8e6224"
     stroke-width=".999"
     id="path58" />
  <path
     d="m87.9 70c0 3.39-2.26 6.14-5.05 6.14s-5.05-2.75-5.05-6.14 2.43-3.33 5.23-3.33c2.79 0 4.88-0.0631 4.88 3.33z"
     fill="#80b617"
     stroke-width=".999"
     id="path60" />
  <g
     transform="matrix(.999 0 0 .999 -6.37 -2.74)"
     id="g66">
    <path
       d="m103 93.8 2.65-0.607-2.5 1.93-4.98-1.2z"
       fill="#faeeec"
       id="path62" />
    <path
       d="m104 92.4s-8.9 1.26-9.15 2.12c0 0 7.22-0.945 8.93-0.985 1.66-0.128 3.38 0.369 3.38-0.494 0 0-2.33-0.636-3.16-0.636z"
       fill="#c9766c"
       id="path64" />
  </g>
  <g
     stroke-width=".999"
     id="g76">
    <path
       d="m98.3 79.6 2.43 1.93-2.38 3.43z"
       fill="#b7a68d"
       id="path68" />
    <path
       d="m94 104 8.81 1.87 9.62 3.46-12.2 27.5-3.68 22.4-9.13 7.79-35.1-16.4-15.7-41 16-3.31 9.17-5.26 3.69 17 20.4 5.5 8.71-9.17z"
       fill="#a8dc71"
       id="path70" />
    <ellipse
       cx="106"
       cy="65.9"
       rx=".89"
       ry="1.41"
       fill="#fff"
       id="ellipse72" />
    <path
       d="m65 65.7s3.05 8.66 2.46 13c-0.589 4.32-3.08 14.5-3.08 14.5l-30.3-4.88 13.8-26.6z"
       fill="#71c837"
       id="path74" />
  </g>
  <path
     d="m79.4 59c-3.37 0.341-6.01 0.842-9.22 3.44l1.32 0.965c2.53-2 5.03-2.13 8.05-2.44 3.02-0.306 5.86-0.656 7.75-0.244l0.868-1.4c-3.04-0.695-6.06-0.547-8.76-0.323z"
     color="#000000"
     fill="#845816"
     stroke-width="1.38"
     style="-inkscape-stroke:none"
     id="path78" />
  <path
     d="m105 54.6c-1.67 0.341-3.61 1.2-4.65 3.73l0.653 0.965c1.87-2.68 2.75-2.7 4.24-3.01 1.5-0.306 2.36-0.124 3.61 0.323l0.43-1.4c-2.39-0.733-3.15-0.544-4.29-0.607z"
     color="#000000"
     fill="#845816"
     stroke-width=".97"
     style="-inkscape-stroke:none"
     id="path80" />
  <path
     d="M 102,27.3 C 99.73,32.97 82.5,53.4 73.5,60.4 59.5,70.19 44.2,76 27.6,76.7 34.79,51.3 48.7,22.3 48.7,22.3 79.8,15.28 89.6,14.58 102,27.33 Z"
     fill="#71c837"
     id="path82"
     style="stroke-width:0.999" />
  <path
     d="m 89.5,32.7 c 0,0 14.7,12.3 18.3,18.3 3.6,5.99 4.82,15.3 4.82,15.3 1.51,-9.09 7.4,-23.5 0.258,-33.3 1.6,0.54 4.49,3.9 6.45,7.55 1.39,-11.7 -6.74,-22.3 -17.4,-20.5 -2.09,-2.31 -15.4,-8.96 -17.1,-4.57 z"
     fill="#71c837"
     id="path84"
     style="stroke-width:0.999" />
  <path
     d="m 56.463143,69.198554 c -0.131,-4.38 -28.9,9.4 -28.9,9.4 1.993974,6.429361 17.29766,3.000752 18.790358,1.852291 -0.325824,3.412438 5.979642,2.707709 9.109642,2.597709 z"
     fill="#f2c7b0"
     id="path86"
     style="stroke-width:0.999"
     sodipodi:nodetypes="ccccc" />
  <ellipse
     cx="84.1"
     cy="70.3"
     rx="1.63"
     ry="2.1"
     fill="#4b6a0d"
     stroke-width=".973"
     id="ellipse90" />
  <ellipse
     transform="rotate(-6.64)"
     cx="77.6"
     cy="77.6"
     rx=".89"
     ry="1.41"
     fill="#fff"
     stroke-width=".999"
     id="ellipse92" />
  <path
     d="m89.5 69.2c-5.12-3.22-10-2.17-15.6 2.87-0.588-2.45-3.59-2.46-3.59-2.46l3.47-0.388c7.85-4.4 14.3-4.12 15.7-0.028z"
     fill="#8e6224"
     stroke-width=".999"
     id="path94" />
</svg>
