<?xml version="1.0" encoding="UTF-8" standalone="no"?>
<svg
   width="600"
   height="800"
   version="1.1"
   viewBox="0 0 158.8 211.7"
   id="svg1123"
   sodipodi:docname="sleep.svg"
   inkscape:version="1.1.2 (1:1.1+202202050942+0a00cf5339)"
   xmlns:inkscape="http://www.inkscape.org/namespaces/inkscape"
   xmlns:sodipodi="http://sodipodi.sourceforge.net/DTD/sodipodi-0.dtd"
   xmlns="http://www.w3.org/2000/svg"
   xmlns:svg="http://www.w3.org/2000/svg"
   xmlns:rdf="http://www.w3.org/1999/02/22-rdf-syntax-ns#"
   xmlns:cc="http://creativecommons.org/ns#"
   xmlns:dc="http://purl.org/dc/elements/1.1/">
  <defs
     id="defs1127" />
  <sodipodi:namedview
     id="namedview1125"
     pagecolor="#ffffff"
     bordercolor="#999999"
     borderopacity="1"
     inkscape:pageshadow="0"
     inkscape:pageopacity="0"
     inkscape:pagecheckerboard="0"
     showgrid="false"
     inkscape:zoom="0.89874998"
     inkscape:cx="552.43395"
     inkscape:cy="513.49097"
     inkscape:window-width="1920"
     inkscape:window-height="940"
     inkscape:window-x="0"
     inkscape:window-y="0"
     inkscape:window-maximized="1"
     inkscape:current-layer="svg1123"
     inkscape:snap-global="false" />
  <metadata
     id="metadata1067">
    <rdf:RDF>
      <cc:Work
         rdf:about="">
        <dc:format>image/svg+xml</dc:format>
        <dc:type
           rdf:resource="http://purl.org/dc/dcmitype/StillImage" />
      </cc:Work>
    </rdf:RDF>
  </metadata>
  <path
     id="path58699"
     style="fill:#6fc835;fill-opacity:0.361;stroke:none;stroke-width:0.741461px;stroke-linecap:butt;stroke-linejoin:miter;stroke-opacity:1"
     d="M 314.625 482.33008 L 321.29883 496.32617 C 321.29883 496.32617 520.81403 584.67121 600 613.84375 L 600 542.95312 C 594.86171 537.85573 589.11879 532.84591 582.73047 528.03906 C 531.81148 489.72547 314.625 482.33008 314.625 482.33008 z "
     transform="matrix(0.26466667,0,0,0.26466667,0,-0.01666667)" />
  <path
     style="fill:#71c837;fill-opacity:1;stroke:none;stroke-width:0.19624px;stroke-linecap:butt;stroke-linejoin:miter;stroke-opacity:1"
     d="m 42.796815,111.31856 c -5.386324,2.26526 -6.563584,11.22678 -6.563584,11.22678 -1.061463,5.49127 0.992106,10.50729 8.962733,13.57769 l 7.182369,3.19585 8.754946,27.41768 13.421856,10.7064 c 9.208527,-0.93704 -5.263348,-45.26122 -5.263348,-45.26122 0,0 9.098718,-8.52152 0,-13.26528 0.695377,-8.61474 -15.637889,-17.80665 -26.494972,-7.5979 z"
     id="path17431"
     sodipodi:nodetypes="ccccccccc" />
  <path
     style="fill:#f2c7b0;fill-opacity:1;stroke:none;stroke-width:0.19624px;stroke-linecap:butt;stroke-linejoin:miter;stroke-opacity:1"
     d="m 71.267077,125.44844 c 2.471394,-4.15992 10.793609,0.25349 12.960084,3.21038 -4.517322,12.84914 -11.371597,10.5778 -18.311296,12.03724 z"
     id="path3135"
     sodipodi:nodetypes="cccc" />
  <path
     style="fill:#95d452;fill-opacity:1;stroke:none;stroke-width:0.19624px;stroke-linecap:butt;stroke-linejoin:miter;stroke-opacity:1"
     d="m 68.754422,134.37825 -0.115193,3.62043 c 0,0 2.958227,-2.21218 3.09513,-3.17775 0.136911,-0.96557 1.680858,-4.63848 1.680858,-4.63848 l 4.182524,-1.36965 7.128689,-1.29366 c 0,0 9.422592,8.06906 12.84733,16.17104 3.42474,8.10198 4.11619,31.85838 4.11619,31.85838 l -2.11328,1.1863 -2.341252,-0.67909 -7.887394,-17.16012 -14.215173,-8.03999 -8.433204,-8.24926 -0.915509,-7.5967 2.519165,-4.81398 z"
     id="path34985"
     sodipodi:nodetypes="ccsccczccccccccc" />
  <path
     style="fill:#f2c7b0;fill-opacity:1;stroke:none;stroke-width:0.19624px;stroke-linecap:butt;stroke-linejoin:miter;stroke-opacity:1"
     d="m 22.257536,187.79293 c 6.557857,-1.37008 10.330419,-4.3731 12.333276,0.23848 -0.744468,2.71785 -3.928283,3.21711 -3.928283,3.21711 -1.088,1.89194 1.492316,3.73175 -1.286679,7.29412 -1.591537,2.62312 -6.127657,3.61562 -11.02799,4.45883 -4.720691,2.16028 -6.246767,2.26658 -9.2463737,2.08608 -2.4066157,1.14728 -3.3794764,0.62401 -3.1368214,-0.30194 -0.3702734,0.28019 -1.3879115,0.20204 -1.3879115,0.20204 0,0 -0.729565,-0.69236 -0.1796458,-1.12191 0,0 -1.2430216,0.0306 -1.3766102,-0.35108 0,0 -0.2350847,-0.29383 0.2331673,-1.15133 -0.7083489,0.43115 -1.2637053,0.2708 -1.2637053,0.2708 0,0 -0.99866042,-0.84631 -0.078362,-1.61585 -1.51958045,0.34948 -2.62549588,-1.24068 -0.4940532,-2.41856 1.5499654,-0.70291 14.2486388,-5.9055 14.2486388,-5.9055 z"
     id="path4177"
     sodipodi:nodetypes="cccccccccccccccc" />
  <path
     style="fill:#f2c7b0;fill-opacity:1;stroke:none;stroke-width:0.19624px;stroke-linecap:butt;stroke-linejoin:miter;stroke-opacity:1"
     d="m 52.095789,190.36013 c 2.230595,1.20817 4.005403,6.17552 2.333395,8.92711 -1.672008,2.7516 -7.319697,2.29357 -7.319697,2.29357 -2.997064,0.13985 -6.438765,4.79663 -10.707085,4.30631 -1.823535,1.30985 -4.975911,1.49751 -4.975911,1.49751 l -0.582147,-0.27442 c 0,0 -0.39804,0.0269 -0.553143,-0.0569 -0.155104,-0.0839 -0.363246,-0.20493 -0.575397,-0.35382 -0.212152,-0.14888 -0.428313,-0.32557 -0.599456,-0.52064 -0.171143,-0.19508 -0.297267,-0.40854 -0.329345,-0.63097 0.315424,-0.59029 5.183381,-5.16287 5.183381,-5.16287 l 6.034059,-4.73076 c 1.121604,-4.0207 3.317396,-5.70668 5.610678,-10.67976 5.182006,-0.42669 8.401394,-10.42338 6.480668,5.38568 z"
     id="path6261"
     sodipodi:nodetypes="czccccsssccccc" />
  <path
     style="fill:#aede7a;fill-opacity:1;stroke:none;stroke-width:0.19624px;stroke-linecap:butt;stroke-linejoin:miter;stroke-opacity:1"
     d="m 20.324548,188.96884 c 1.635015,4.12403 9.731086,4.38215 11.653179,3.31707 2.10001,0.12303 30.020723,-27.15236 30.020723,-27.15236 l 19.362061,11.84798 -12.52226,-26.46783 -13.923262,2.08192 -19.419956,22.17915 c -5.671593,6.45261 -17.822335,11.61881 -15.170485,14.19407 z"
     id="path37160"
     sodipodi:nodetypes="cccccccc" />
  <path
     style="fill:#f2c7b0;fill-opacity:1;stroke:none;stroke-width:0.19624px;stroke-linecap:butt;stroke-linejoin:miter;stroke-opacity:1"
     d="m 52.855389,150.11626 -9.887894,12.30875 c 0,0 -7.868983,4.00278 -8.162092,5.45474 -0.119408,0.57444 0.246089,1.32834 0.246089,1.32834 0,0 -0.284527,0.68769 -0.23154,0.92278 0.107041,0.51132 0.589373,1.30605 0.589373,1.30605 0,0 -0.212015,1.00081 0.245788,1.96109 0,0 0.587636,2.84794 0.776984,3.52644 0,0 0.927829,-0.51247 0.775049,-1.8393 l 0.577066,1.05647 c 0,0 1.088366,-0.64541 0.540899,-2.22469 0,0 0.50369,0.63077 1.006592,0.93708 0,0 1.204811,-0.99069 0.142821,-2.49705 l 0.586007,-2.70857 -0.999947,-1.3612 4.108949,-1.01865 7.757129,-8.38496 z"
     id="path17429"
     sodipodi:nodetypes="cccccccccccccccccc" />
  <path
     style="fill:#95d452;fill-opacity:1;stroke:none;stroke-width:0.19624px;stroke-linecap:butt;stroke-linejoin:miter;stroke-opacity:1"
     d="m 76.685243,128.97805 -1.540329,-3.88097 -5.558205,2.527 2.557158,-4.42256 5.280788,-0.2919 8.76732,5.68486 -6.010532,1.66155 z"
     id="path37864" />
  <path
     style="fill:#f2c7b0;fill-opacity:1;stroke:none;stroke-width:0.19624px;stroke-linecap:butt;stroke-linejoin:miter;stroke-opacity:1"
     d="m 62.911549,120.6136 12.339512,5.91344 -3.768197,8.69194 -7.23061,-2.85389 z"
     id="path6207"
     sodipodi:nodetypes="ccccc" />
  <path
     style="fill:#f2c7b0;fill-opacity:0.950369;stroke:none;stroke-width:0.19624px;stroke-linecap:butt;stroke-linejoin:miter;stroke-opacity:1"
     d="m 44.216523,118.7687 c -5.787186,10.32365 1.480129,15.66027 2.361908,16.4352 0.881777,0.77493 8.423405,2.58973 8.423405,2.58973 1.927163,2.99833 9.830721,3.24196 11.239952,2.35546 1.409239,-0.8865 1.766956,-11.41397 -0.06087,-15.17379 -1.827793,-3.75981 -2.847773,-7.82514 -4.47053,-9.16181 -1.622756,-1.33668 -11.706705,-7.36843 -17.493891,2.95521 z"
     id="path880"
     sodipodi:nodetypes="zzczzzzz" />
  <path
     style="fill:#b7a68d;fill-opacity:0.596078;stroke:none;stroke-width:0.19624px;stroke-linecap:butt;stroke-linejoin:miter;stroke-opacity:1"
     d="m 52.165877,157.58913 19.730358,0.16584 0.07185,12.0093 -10.563571,-4.72575 -20.4569,19.87098 4.402862,-20.20689 z"
     id="path50309-5"
     sodipodi:nodetypes="ccccccc" />
  <path
     style="fill:#71c837;fill-opacity:1;stroke:none;stroke-width:0.25346px;stroke-linecap:butt;stroke-linejoin:miter;stroke-opacity:1"
     d="m 42.993876,121.38437 c -3.248679,1.269 -4.922097,8.18776 -4.161057,11.50823 0.761034,3.32047 2.473267,6.24981 4.82275,7.29787 2.34949,1.04807 5.557335,0.29975 5.557335,0.29975 -8.078668,-4.12241 -6.219028,-19.10587 -6.219028,-19.10587 z"
     id="path8301-3"
     sodipodi:nodetypes="czzccc" />
  <path
     style="fill:#8e6224;fill-opacity:1;stroke:none;stroke-width:0.25346px;stroke-linecap:butt;stroke-linejoin:miter;stroke-opacity:1"
     d="m 55.28207,133.45846 c 2.181277,-1.98818 2.002667,-5.28644 2.002667,-5.28644 0.443681,0.11168 1.490332,-1.32626 1.490332,-1.32626 0,0 -0.946739,1.74919 -0.705024,2.03493 0,0 0.537803,1.56625 0.04827,2.44394 -0.489496,0.8777 -1.883328,2.76364 -2.836281,2.13383 z"
     id="path24564-6"
     sodipodi:nodetypes="cccczc" />
  <path
     style="font-variation-settings:normal;vector-effect:none;fill:#8e6224;fill-opacity:1;stroke:none;stroke-width:0.25346px;stroke-linecap:butt;stroke-linejoin:miter;stroke-miterlimit:4;stroke-dasharray:none;stroke-dashoffset:0;stroke-opacity:1;-inkscape-stroke:none;stop-color:#000000"
     d="m 53.323093,136.36572 -0.876738,1.01308 c 0,0 -0.150257,0.45212 -0.541947,0.88483 0.794451,-0.31793 1.694025,-0.87165 2.175944,-1.5244 z"
     id="path13637-7"
     sodipodi:nodetypes="ccccc" />
  <path
     d="m 49.658496,128.06587 c 0.724835,-1.33014 1.972703,-2.50127 3.760575,-2.90263 l 0.200246,0.69637 c -1.529385,0.34147 -2.604063,1.34437 -3.25387,2.5347 -0.649192,1.19055 -0.845374,2.57239 -0.62442,3.53428 l -0.762842,0.13217 c -0.264849,-1.17069 -0.03248,-2.6681 0.689927,-3.99913 z"
     color="#000000"
     fill="#845816"
     style="stroke-width:0.628789;-inkscape-stroke:none"
     id="path71-7-2-5-5" />
  <path
     style="fill:#ec9661;fill-opacity:1;stroke:none;stroke-width:0.19624px;stroke-linecap:butt;stroke-linejoin:miter;stroke-opacity:1"
     d="m 60.584777,138.25802 c 0.36089,-0.37411 1.693944,-2.52876 2.35666,-2.73303 0.925311,0.53307 -0.299638,3.44799 -0.299638,3.44799 l -1.035329,-0.19713 c 0,0 -1.176072,0.26984 -1.021693,-0.51783 z"
     id="path21245"
     sodipodi:nodetypes="ccccc" />
  <path
     style="fill:#71c837;fill-opacity:1;stroke:none;stroke-width:0.19624px;stroke-linecap:butt;stroke-linejoin:miter;stroke-opacity:1"
     d="m 42.524816,128.98408 c 0,0 6.33184,1.30843 10.080888,0.18636 7.758407,-2.69515 10.951892,-7.23149 13.181444,-14.34543 -6.695061,3.31164 -21.372204,-0.75871 -21.372204,-0.75871 0,0 -6.86031,10.20091 -1.890128,14.91778 z"
     id="path17109"
     sodipodi:nodetypes="ccccc" />
  <path
     style="fill:#71c837;fill-opacity:1;stroke:none;stroke-width:0.19624px;stroke-linecap:butt;stroke-linejoin:miter;stroke-opacity:1"
     d="m 51.113623,122.4211 c 0,0 7.966689,3.89024 11.303981,3.98833 3.337291,0.0981 7.731198,-2.22666 7.731198,-2.22666 l 1.764078,-3.92018 -15.680107,-10.72741 -11.77139,4.84473 -1.426341,9.052 z"
     id="path32923"
     sodipodi:nodetypes="czcccccc" />
  <path
     style="fill:#f2c7b0;fill-opacity:1;stroke:none;stroke-width:0.25346px;stroke-linecap:butt;stroke-linejoin:miter;stroke-opacity:1"
     d="m 59.639632,121.56073 c 0,0 0.1684,-11.57837 1.169925,-12.63469 2.855618,0.0662 2.91466,11.46017 2.91466,11.46017 1.914135,0.11459 2.207152,3.26877 2.207152,3.26877 l -1.316237,0.90353 z"
     id="path6083-3"
     sodipodi:nodetypes="cccccc" />
  <path
     style="fill:#b7a68d;fill-opacity:0.596078;stroke:none;stroke-width:0.19624px;stroke-linecap:butt;stroke-linejoin:miter;stroke-opacity:1"
     d="m 74.905027,141.10311 14.836823,-6.43296 3.718689,10.68631 -2.585051,13.68574 -2.835053,2.85354 -21.300215,-14.06645 z"
     id="path50309"
     sodipodi:nodetypes="ccccccc" />
  <path
     style="fill:#a9dc73;fill-opacity:1;stroke:none;stroke-width:0.19624px;stroke-linecap:butt;stroke-linejoin:miter;stroke-opacity:1"
     d="m 41.383742,189.815 c 1.984536,2.01229 8.622852,2.53779 11.975843,1.3419 3.35299,-1.19589 5.424922,-15.18858 5.424922,-15.18858 l 4.779607,-16.62276 1.08769,1.39679 1.056942,-1.11454 12.348559,16.35318 c 0,0 7.222691,9.16081 14.476923,6.37963 7.254233,-2.78118 6.442958,-6.88383 6.442958,-6.88383 0,0 -8.018268,-17.484 -9.301074,-17.92969 -1.282805,-0.44569 -22.224522,-20.46583 -30.240248,-19.04784 -8.015727,1.41799 -6.964049,8.6449 -6.964049,8.6449 l -4.874289,24.55539 c 0,0 -7.400296,16.36737 -6.213784,18.11545 z"
     id="path12682"
     sodipodi:nodetypes="czccccczcszccc" />
  <path
     style="fill:#aede7a;fill-opacity:1;stroke:none;stroke-width:0.19624px;stroke-linecap:butt;stroke-linejoin:miter;stroke-opacity:1"
     d="m 52.024914,150.65966 c -0.222846,0.4861 -9.770892,10.804 -10.03083,11.95864 -0.307884,1.56325 1.672407,4.53113 1.672407,4.53113 l 6.760197,-7.20408 z"
     id="path54296"
     sodipodi:nodetypes="ccccc" />
  <path
     style="fill:#f2c7b0;fill-opacity:0.998782;stroke:none;stroke-width:0.19624px;stroke-linecap:butt;stroke-linejoin:miter;stroke-opacity:1"
     d="m 54.410422,175.39021 c 0,0 -13.005831,-0.69896 -13.482932,-1.30283 0,0 -1.709355,-1.34868 -1.872689,-2.54745 -0.165039,-0.71357 0.377417,-1.67332 0.377417,-1.67332 0,0 -0.961773,-0.71368 -0.788097,-1.68729 l 0.492455,-0.85153 c 0,0 -0.822747,-0.88351 -0.720396,-1.40422 l 0.381146,-1.19611 c 0,0 -0.39053,-1.54922 0,-2.04317 l 2.078989,-0.41921 1.158689,1.90115 c 0.858569,-0.0202 1.559029,-0.0431 3.123601,0.20726 l -2.53722,-1.50369 c 0,0 -1.185769,-0.83618 -0.627321,-2.35448 0.226343,-0.30833 4.020763,1.02659 4.020763,1.02659 0.722635,0.33669 5.43714,2.35288 5.936204,2.87338 0,0 2.530291,4.42356 2.958349,5.01516 10.636942,-0.95713 7.092191,3.31485 -0.498958,5.95976 z"
     id="path1922"
     sodipodi:nodetypes="cccccccccccccccccc" />
  <path
     style="fill:#95d452;fill-opacity:1;stroke:none;stroke-width:0.19624px;stroke-linecap:butt;stroke-linejoin:miter;stroke-opacity:1"
     d="m 55.224382,168.7763 c -1.341304,1.4565 -1.446847,6.85066 0,7.7131 1.89013,1.29849 27.751842,-3.46302 29.498437,-5.04014 1.498711,-1.07473 6.202318,-29.42908 6.202318,-29.42908 l -1.231534,-7.64072 c 0,0 -4.235783,-7.34642 -10.46205,-2.78936 -6.226274,4.55705 -1.661557,15.38217 -1.661557,15.38217 l -2.201925,14.22994 -1.858474,0.34619 -0.07569,1.58646 c -4.874891,2.53666 -16.869429,3.3798 -18.209527,5.64144 z"
     id="path38114"
     sodipodi:nodetypes="ccccczccccc" />
  <path
     style="fill:#6fc835;fill-opacity:0.361;stroke:none;stroke-width:0.19624px;stroke-linecap:butt;stroke-linejoin:miter;stroke-opacity:1"
     d="m 90.27137,134.68085 c 0,0 35.38886,0.64414 44.65117,8.03855 9.26231,7.39442 11.64484,20.82762 11.64484,20.82762 L 92.435221,138.57784 Z"
     id="path58701"
     sodipodi:nodetypes="czccc" />
  <path
     id="path58703"
     style="fill:#6fc835;fill-opacity:0.361;stroke:none;stroke-width:0.741461px;stroke-linecap:butt;stroke-linejoin:miter;stroke-opacity:1"
     d="M 327.48633 504.15625 L 335.78516 523.1582 C 335.78516 523.1582 500.72523 616.83935 600 669.98438 L 600 579.39844 C 519.46678 536.94149 327.48633 504.15625 327.48633 504.15625 z "
     transform="matrix(0.26466667,0,0,0.26466667,0,-0.01666667)" />
  <path
     style="fill:#6fc835;fill-opacity:0.361;stroke:none;stroke-width:0.19624px;stroke-linecap:butt;stroke-linejoin:miter;stroke-opacity:1"
     d="m 94.827657,142.93881 c 0,0 45.456653,9.42342 54.811083,18.96037 9.35443,9.53694 6.837,21.0739 6.837,21.0739 L 96.221325,146.9117 Z"
     id="path58705"
     sodipodi:nodetypes="czccc" />
  <path
     style="fill:#ebc6aa;stroke:none;stroke-width:0.264667px;stroke-linecap:butt;stroke-linejoin:miter;stroke-opacity:1;fill-opacity:1"
     d="m 55.025201,136.20189 -0.10123,2.47924 0.993307,0.28704 1.561851,-0.80897 z"
     id="path2368"
     sodipodi:nodetypes="ccccc" />
</svg>
