<?xml version="1.0" encoding="UTF-8"?>
<svg width="100mm" height="100mm" version="1.1" viewBox="0 0 100 100" xmlns="http://www.w3.org/2000/svg">
 <path d="m92.2 54.6s-18.2 21.9-16.8 25.8c0 5.77 2.78 10.6 6.04 13.1-7.15 0.312-13.9-7.5-13.9-7.5l0.292 10.6-41-40.9-9.03 5.96-8.25-12.8z" fill="#69615b"/>
 <path d="m21.5 69.3c-1.35e-4 4.83 0.0654 14.8 2.79 17.9 2.73 3.14 13.3 11.5 13.3 11.5 9.28-0.753 25.7-13.5 25.7-13.5 5.39-3.41 16.1-31.7 16.1-31.7 12-22-14.5-44-33-42.4-24.5 0.58-33.6 23.4-29.9 38.2 0.728 3.78 3.89 15.6 4.94 20.1z" fill="#e4ba9e"/>
 <path d="m44.3 3.38c-1.86 0.0236-3.75 0.477-5.55 1.52 12.4-2.94 13.2 7.07 13.3 7.57-0.0022-5.97e-4 -0.0037-0.0013-0.0081-2e-3 -0.713-3.71-15.7-10.9-23.5 0.349 0.968-0.305 1.89-0.558 2.78-0.775-20 5.42-20 29.2-33.1 24.6 2.56 1.49 4.78 4.05 9.39 2.21-4.3 2.51 0.471 9.59-8.52 8.14 2.08 2.19 5.22 2.36 8.13 1.55-0.676 2.23-2.47 5.69-5.08 6.31 4.55 0.822 6.1-0.629 9.47-1.77 0.344 2.89 0.331 5.68 6.77 11.2-3.02-6.1-1.56-11 4.65-18.4 6.21-7.33 15.7-4.44 24.4-3.3 8.7 1.13 12.2 2.48 14 6.38 1.77 3.9 3.03 12.6 0.401 19.6 4.45-3.23 6.75-6.32 8.23-10.5 3.1 3.37-0.34 13.8-5.85 20.7 7.28 3.03 15.7-20.9 15.8-25.2 3.92 0.92 0.379 14.6 0.375 16.4 2.97-0.486 8.79-10.8 7.15-13.4 3.03 1.36 3.58 6.71 3.58 6.71 0.125-4.58 0.482-13.2-1.13-14.9 3.43 2.04 7 3.3 10.9 1.07-6.87-0.243-11.1-5.37-13.6-9.88 2.28 3.61 2.81 3.9 5.46 5.16-3.12-3.02-0.26-14-7.92-14.9 4.36-0.0494 6.97 2.8 10.7-0.418-14.9-0.531-10.4-20.4-30-14.9 2.04-4.71 6.89-4.49 9.97-3.91-5.71-5.06-15-1.27-16.7 2.95 0.499-3.33-6.74-10.4-14.3-10.3z" fill="#69615b"/>
 <path d="m19.7 32.1s-9.06 3.37 1.18 28.1c0.8-17.6 13.6-20.3 13.6-20.3" fill="#69615b"/>
 <g fill="#3f2716">
  <path d="m50.6 64.3c0 2.41-0.935 4.34-3.05 4.34-2.11-8e-6 -3.82-1.96-3.82-4.37 0-2.41 1.71-4.37 3.82-4.37 2.11 0 3.05 1.98 3.05 4.39z" style="paint-order:stroke fill markers"/>
  <path d="m26.2 64.1c0 2.13-0.106 3.75-1.42 3.75-1.32 0-2.51-1.52-2.51-3.65 0-2.13 0.539-4.02 1.86-4.02 1.32-8e-6 2.08 1.79 2.08 3.92z" style="paint-order:stroke fill markers"/>
  <path d="m41.3 63.4c0.383-0.673 4.04-5.07 7.96-4.81 3.92 0.261 11 5.11 9.46 6.89-0.625-0.296-6.23-5.11-9.46-4.93-3.22 0.178-7.96 2.85-7.96 2.85z"/>
  <path d="m29.6 62.8c-1.31-2.18-5.46-4.7-9.26-3.86l0.652 3.67s0.0293-2.28 0.605-2.29c1.38-0.0312 6.08 1.12 8 2.48z"/>
 </g>
 <g>
  <path d="m47.4 12.5s-32.7 26.5-8.11 47.1c-10.1-17.1 18.4-39.1 18.4-39.1" fill="#69615b"/>
  <path d="m40.3 33.8c-1.75 6.28 8.2 16.9 25.7 21.5-12.6-9.39-3.51-14.6-3.22-22.2" fill="#69615b"/>
  <path d="m44.8 51.7 6.19-1.06 8.71 2.47-8.61-5.8z" fill="#3f2716"/>
  <path d="m18.6 54.8 2.55-2.02 6.12 1.38-7.53-5.5z" fill="#3f2716"/>
 </g>
 <path d="m31.6 72-2.11 2.98 3.06 4.6-4.11-0.68-0.526-5.12z" fill="#69615b" fill-opacity=".378"/>
 <path d="m35.8 83.7c5.43-0.0852 11.7-2.34 11.5-0.456 0.192 1.45-5.99 4.34-10.1 4.5-2.65 0.0788-6.42-3.28-6.71-4.25-0.369-1.24 2.45 0.34 5.26 0.203z" fill="#e48273" fill-opacity=".798"/>
 <path d="m69.5 64.1c0.704-9.55 9.16-5.02 8.32-0.358-0.84 4.66-1.41 9.59-4.44 12.2-3.03 2.57-4.65 5.13-6.09 1.9z" fill="#e4ba9e"/>
 <rect x="48.1" y="61.6" width="1.36" height="2.07" rx="3.57" ry="0" fill="#fff" fill-opacity=".99" stroke-width=".248" style="paint-order:stroke fill markers"/>
 <rect x="24.3" y="61.4" width=".501" height="2.07" rx="1.32" ry=".00494" fill="#fff" fill-opacity=".99" stroke-width=".151" style="paint-order:stroke fill markers"/>
</svg>
