<?xml version="1.0" encoding="UTF-8"?>
<svg width="600" height="800" version="1.1" viewBox="0 0 159 212" xmlns="http://www.w3.org/2000/svg" xmlns:cc="http://creativecommons.org/ns#" xmlns:dc="http://purl.org/dc/elements/1.1/" xmlns:rdf="http://www.w3.org/1999/02/22-rdf-syntax-ns#">
 <metadata>
  <rdf:RDF>
   <cc:Work rdf:about="">
    <dc:format>image/svg+xml</dc:format>
    <dc:type rdf:resource="http://purl.org/dc/dcmitype/StillImage"/>
   </cc:Work>
  </rdf:RDF>
 </metadata>
 <g fill="none" stroke-linecap="round" stroke-linejoin="round">
  <circle r="0" stroke="#c53822" stroke-width="2.26" style="paint-order:stroke markers fill"/>
  <g stroke="#924019">
   <circle r="0" stroke-width="1.29" style="paint-order:stroke markers fill"/>
   <circle transform="scale(1,-1)" r="0" stroke-width="3.6" style="paint-order:stroke markers fill"/>
   <circle transform="scale(1,-1)" r="0" stroke-width="3.6" style="paint-order:stroke markers fill"/>
  </g>
  <circle transform="scale(1,-1)" r="0" stroke="#4d4320" stroke-width="4.38" style="paint-order:stroke markers fill"/>
  <circle transform="scale(1,-1)" r="0" stroke="#4d4320" stroke-width="3.52" style="paint-order:stroke markers fill"/>
 </g>
 <path d="m70.9 121-3.35 12.9-12.2 8.85 1.17 11.5 19.4 18.5 23.8-13.6s9.38-4.1 13.7-14.8c-6.29-2.29-12.2-10.9-12.5-17.6l2.85-25.3z" fill="#e4ba9e"/>
 <path d="m93 116-23 23.6-12.9 0.932 10.1-6.6 3.34-9.04 23.7-12.9z" fill="#69615b" fill-opacity=".378"/>
 <g>
  <path d="m145 194 2.11 20.2s-21.9 1.56-22.9 0.182c-0.976-1.38-0.649-19.2-0.649-19.2z" fill="#e4ba9e"/>
  <path d="m23.5 195 20.4 12.3-4.14 6.96-21.8-2.05z" fill="#e4ba9e"/>
  <path d="m64.3 136-17.5 7.9s-10.3 3.77-14.2 7.87c-3.84 4.1-6.11 14.7-6.11 14.7l-6.4 30.7 19.7 8.95 1.36 6.51 83-0.18-0.439-8.57 24.8-2.53s-1.26-36.2-6.33-44.3c-5.07-8.06-31.8-15.6-31.8-15.6l-15.2 15.4s-10 6.04-19.9 5.61c-10.5-0.691-13.7-11.6-13.7-11.6-0.348-3.54 2.75-14.9 2.75-14.9z" fill="#5f8dd3"/>
  <path d="m141 73.9s-24.3 27.4-22.3 32.3c0 7.21 3.7 13.3 8.04 16.3-9.52 0.39-18.5-9.37-18.5-9.37l0.389 13.2-54.6-51-12 7.44-11-16z" fill="#69615b"/>
  <path d="m46.5 92.3c-1.8e-4 6.04 0.0872 18.4 3.72 22.4 3.63 3.92 17.7 14.3 17.7 14.3 12.4-0.94 34.3-16.9 34.3-16.9 7.18-4.26 21.5-39.6 21.5-39.6 16-27.5-19.3-55-44-53-32.6 0.724-44.7 29.2-39.8 47.8 0.97 4.72 5.18 19.5 6.58 25.1z" fill="#e4ba9e"/>
 </g>
 <g fill="#69615b">
  <path d="m76.4 6.64c-2.68 0.0315-5.38 0.637-7.97 2.03 17.9-3.92 19 9.45 19 10.1-0.0035-7.99e-4 -0.0058-0.0017-0.0117-0.0027-1.02-4.96-22.6-14.6-33.8 0.466 1.39-0.407 2.72-0.746 4-1.04-28.8 7.25-28.7 39-47.6 32.8 3.67 1.99 6.86 5.41 13.5 2.96-6.18 3.36 0.676 12.8-12.2 10.9 2.99 2.93 7.49 3.15 11.7 2.07-0.971 2.98-3.54 7.6-7.29 8.43 6.54 1.1 8.75-0.841 13.6-2.37 0.494 3.86 0.475 7.59 9.72 14.9-4.33-8.15-2.24-14.7 6.67-24.5 8.92-9.8 22.6-5.93 35-4.41 12.5 1.52 17.5 3.31 20 8.52 2.54 5.21 4.35 16.8 0.576 26.2 6.38-4.31 9.69-8.44 11.8-14.1 4.45 4.51-0.488 18.4-8.4 27.7 10.4 4.05 22.6-28 22.7-33.6 5.62 1.23 0.544 19.5 0.538 22 4.26-0.649 12.6-14.4 10.3-17.9 4.35 1.81 5.14 8.97 5.14 8.97 0.18-6.11 0.691-17.7-1.62-19.9 4.92 2.73 10.1 4.41 15.6 1.43-9.86-0.325-16-7.18-19.6-13.2 3.27 4.83 4.03 5.22 7.83 6.9-4.48-4.04-0.373-18.7-11.4-19.9 6.26-0.0659 10 3.74 15.4-0.558-21.4-0.709-14.9-27.3-43-19.9 2.92-6.29 9.89-6 14.3-5.23-8.19-6.76-21.6-1.7-24 3.94 0.716-4.45-9.67-13.8-20.6-13.7z"/>
  <g>
   <path d="m44.2 45.9s-12.1 4.21 1.57 35c1.07-22 18.1-25.4 18.1-25.4"/>
   <path d="m81.1 21.4s-43.5 33.1-10.8 58.8c-13.5-21.4 24.6-48.9 24.6-48.9"/>
   <path d="m71.5 47.9c-2.33 7.85 10.9 21 34.2 26.9-16.7-11.7-4.68-18.2-4.29-27.7"/>
  </g>
 </g>
 <path d="m110 85.8c0.937-11.9 12.2-6.27 11.1-0.447-1.12 5.82-1.88 12-5.92 15.2-4.04 3.21-6.19 6.4-8.11 2.37z" fill="#e4ba9e"/>
 <g fill="#3f2716">
  <path d="m84.3 86.1c0 3.04-1.18 5.47-3.84 5.47-2.66-3e-6 -4.81-2.46-4.81-5.5 0-3.04 2.16-5.5 4.81-5.5 2.66 2e-6 3.84 2.49 3.84 5.53z" style="paint-order:stroke fill markers"/>
  <path d="m53.6 85.8c0 2.68-0.134 4.73-1.79 4.73-1.66 2e-6 -3.16-1.92-3.16-4.6 0-2.68 0.679-5.07 2.34-5.07 1.66-2e-6 2.61 2.26 2.61 4.94z" style="paint-order:stroke fill markers"/>
  <path d="m72.7 85c0.483-0.847 5.09-6.39 10-6.06s13.9 6.43 11.9 8.68c-0.787-0.373-7.85-6.44-11.9-6.21-4.06 0.224-10 3.59-10 3.59z"/>
  <path d="m57.9 84.2c-1.65-2.74-6.88-5.92-11.7-4.86l0.821 4.63s0.0368-2.87 0.762-2.88c1.73-0.0392 7.65 1.42 10.1 3.12z"/>
  <path d="m77 70.2 7.79-1.34 11 3.12-10.8-7.3z"/>
  <path d="m44.1 74.2 3.22-2.55 7.7 1.74-9.49-6.93z"/>
 </g>
 <path d="m60.5 95.8-2.65 3.75 3.85 5.79-5.17-0.856-0.662-6.45z" fill="#69615b" fill-opacity=".378"/>
 <path d="m65.7 111c6.84-0.107 14.7-2.94 14.5-0.574 0.242 1.83-7.55 5.47-12.7 5.67-3.33 0.0992-8.09-4.13-8.45-5.35-0.465-1.56 3.08 0.428 6.62 0.256z" fill="#e48273" fill-opacity=".798"/>
 <rect x="81.2" y="82.7" width="1.71" height="2.61" rx="4.5" ry="0" fill="#fff" fill-opacity=".99" stroke-width=".312" style="paint-order:stroke fill markers"/>
 <rect x="51.2" y="82.4" width=".632" height="2.61" rx="1.66" ry=".00622" fill="#fff" fill-opacity=".99" stroke-width=".19" style="paint-order:stroke fill markers"/>
</svg>
