<?xml version="1.0" encoding="utf-8" standalone="no"?>
<!DOCTYPE svg PUBLIC "-//W3C//DTD SVG 1.1//EN"
  "http://www.w3.org/Graphics/SVG/1.1/DTD/svg11.dtd">
<svg xmlns:xlink="http://www.w3.org/1999/xlink" width="462.24pt" height="303.84pt" viewBox="0 0 462.24 303.84" xmlns="http://www.w3.org/2000/svg" version="1.1">
 <metadata>
  <rdf:RDF xmlns:dc="http://purl.org/dc/elements/1.1/" xmlns:cc="http://creativecommons.org/ns#" xmlns:rdf="http://www.w3.org/1999/02/22-rdf-syntax-ns#">
   <cc:Work>
    <dc:type rdf:resource="http://purl.org/dc/dcmitype/StillImage"/>
    <dc:date>2022-10-09T17:08:39.676987</dc:date>
    <dc:format>image/svg+xml</dc:format>
    <dc:creator>
     <cc:Agent>
      <dc:title>Matplotlib v3.6.1, https://matplotlib.org/</dc:title>
     </cc:Agent>
    </dc:creator>
   </cc:Work>
  </rdf:RDF>
 </metadata>
 <defs>
  <style type="text/css">*{stroke-linejoin: round; stroke-linecap: butt}</style>
 </defs>
 <g id="figure_1">
  <g id="patch_1">
   <path d="M 0 303.84 
L 462.24 303.84 
L 462.24 0 
L 0 0 
z
" style="fill: #ffffff"/>
  </g>
  <g id="axes_1">
   <g id="patch_2">
    <path d="M 57.78 270.4176 
L 416.016 270.4176 
L 416.016 36.4608 
L 57.78 36.4608 
z
" style="fill: #ffffff"/>
   </g>
   <g id="patch_3">
    <path d="M 74.063455 270.4176 
L 77.320145 270.4176 
L 77.320145 145.311172 
L 74.063455 145.311172 
z
" clip-path="url(#p60e1be1e36)" style="fill: #1f77b4; opacity: 0.5"/>
   </g>
   <g id="patch_4">
    <path d="M 77.320145 270.4176 
L 80.576836 270.4176 
L 80.576836 208.424564 
L 77.320145 208.424564 
z
" clip-path="url(#p60e1be1e36)" style="fill: #1f77b4; opacity: 0.5"/>
   </g>
   <g id="patch_5">
    <path d="M 80.576836 270.4176 
L 83.833527 270.4176 
L 83.833527 237.18037 
L 80.576836 237.18037 
z
" clip-path="url(#p60e1be1e36)" style="fill: #1f77b4; opacity: 0.5"/>
   </g>
   <g id="patch_6">
    <path d="M 83.833527 270.4176 
L 87.090218 270.4176 
L 87.090218 248.383931 
L 83.833527 248.383931 
z
" clip-path="url(#p60e1be1e36)" style="fill: #1f77b4; opacity: 0.5"/>
   </g>
   <g id="patch_7">
    <path d="M 87.090218 270.4176 
L 90.346909 270.4176 
L 90.346909 254.732615 
L 87.090218 254.732615 
z
" clip-path="url(#p60e1be1e36)" style="fill: #1f77b4; opacity: 0.5"/>
   </g>
   <g id="patch_8">
    <path d="M 90.346909 270.4176 
L 93.6036 270.4176 
L 93.6036 258.093683 
L 90.346909 258.093683 
z
" clip-path="url(#p60e1be1e36)" style="fill: #1f77b4; opacity: 0.5"/>
   </g>
   <g id="patch_9">
    <path d="M 93.6036 270.4176 
L 96.860291 270.4176 
L 96.860291 263.322012 
L 93.6036 263.322012 
z
" clip-path="url(#p60e1be1e36)" style="fill: #1f77b4; opacity: 0.5"/>
   </g>
   <g id="patch_10">
    <path d="M 96.860291 270.4176 
L 100.116982 270.4176 
L 100.116982 261.081299 
L 96.860291 261.081299 
z
" clip-path="url(#p60e1be1e36)" style="fill: #1f77b4; opacity: 0.5"/>
   </g>
   <g id="patch_11">
    <path d="M 100.116982 270.4176 
L 103.373673 270.4176 
L 103.373673 264.442368 
L 100.116982 264.442368 
z
" clip-path="url(#p60e1be1e36)" style="fill: #1f77b4; opacity: 0.5"/>
   </g>
   <g id="patch_12">
    <path d="M 103.373673 270.4176 
L 106.630364 270.4176 
L 106.630364 263.322012 
L 103.373673 263.322012 
z
" clip-path="url(#p60e1be1e36)" style="fill: #1f77b4; opacity: 0.5"/>
   </g>
   <g id="patch_13">
    <path d="M 106.630364 270.4176 
L 109.887055 270.4176 
L 109.887055 267.429984 
L 106.630364 267.429984 
z
" clip-path="url(#p60e1be1e36)" style="fill: #1f77b4; opacity: 0.5"/>
   </g>
   <g id="patch_14">
    <path d="M 109.887055 270.4176 
L 113.143745 270.4176 
L 113.143745 265.936176 
L 109.887055 265.936176 
z
" clip-path="url(#p60e1be1e36)" style="fill: #1f77b4; opacity: 0.5"/>
   </g>
   <g id="patch_15">
    <path d="M 113.143745 270.4176 
L 116.400436 270.4176 
L 116.400436 265.562724 
L 113.143745 265.562724 
z
" clip-path="url(#p60e1be1e36)" style="fill: #1f77b4; opacity: 0.5"/>
   </g>
   <g id="patch_16">
    <path d="M 116.400436 270.4176 
L 119.657127 270.4176 
L 119.657127 267.429984 
L 116.400436 267.429984 
z
" clip-path="url(#p60e1be1e36)" style="fill: #1f77b4; opacity: 0.5"/>
   </g>
   <g id="patch_17">
    <path d="M 119.657127 270.4176 
L 122.913818 270.4176 
L 122.913818 267.429984 
L 119.657127 267.429984 
z
" clip-path="url(#p60e1be1e36)" style="fill: #1f77b4; opacity: 0.5"/>
   </g>
   <g id="patch_18">
    <path d="M 122.913818 270.4176 
L 126.170509 270.4176 
L 126.170509 269.297244 
L 122.913818 269.297244 
z
" clip-path="url(#p60e1be1e36)" style="fill: #1f77b4; opacity: 0.5"/>
   </g>
   <g id="patch_19">
    <path d="M 126.170509 270.4176 
L 129.4272 270.4176 
L 129.4272 268.923792 
L 126.170509 268.923792 
z
" clip-path="url(#p60e1be1e36)" style="fill: #1f77b4; opacity: 0.5"/>
   </g>
   <g id="patch_20">
    <path d="M 129.4272 270.4176 
L 132.683891 270.4176 
L 132.683891 270.044148 
L 129.4272 270.044148 
z
" clip-path="url(#p60e1be1e36)" style="fill: #1f77b4; opacity: 0.5"/>
   </g>
   <g id="patch_21">
    <path d="M 132.683891 270.4176 
L 135.940582 270.4176 
L 135.940582 268.923792 
L 132.683891 268.923792 
z
" clip-path="url(#p60e1be1e36)" style="fill: #1f77b4; opacity: 0.5"/>
   </g>
   <g id="patch_22">
    <path d="M 135.940582 270.4176 
L 139.197273 270.4176 
L 139.197273 269.297244 
L 135.940582 269.297244 
z
" clip-path="url(#p60e1be1e36)" style="fill: #1f77b4; opacity: 0.5"/>
   </g>
   <g id="patch_23">
    <path d="M 139.197273 270.4176 
L 142.453964 270.4176 
L 142.453964 269.297244 
L 139.197273 269.297244 
z
" clip-path="url(#p60e1be1e36)" style="fill: #1f77b4; opacity: 0.5"/>
   </g>
   <g id="patch_24">
    <path d="M 142.453964 270.4176 
L 145.710655 270.4176 
L 145.710655 269.297244 
L 142.453964 269.297244 
z
" clip-path="url(#p60e1be1e36)" style="fill: #1f77b4; opacity: 0.5"/>
   </g>
   <g id="patch_25">
    <path d="M 145.710655 270.4176 
L 148.967345 270.4176 
L 148.967345 270.044148 
L 145.710655 270.044148 
z
" clip-path="url(#p60e1be1e36)" style="fill: #1f77b4; opacity: 0.5"/>
   </g>
   <g id="patch_26">
    <path d="M 148.967345 270.4176 
L 152.224036 270.4176 
L 152.224036 270.4176 
L 148.967345 270.4176 
z
" clip-path="url(#p60e1be1e36)" style="fill: #1f77b4; opacity: 0.5"/>
   </g>
   <g id="patch_27">
    <path d="M 152.224036 270.4176 
L 155.480727 270.4176 
L 155.480727 270.044148 
L 152.224036 270.044148 
z
" clip-path="url(#p60e1be1e36)" style="fill: #1f77b4; opacity: 0.5"/>
   </g>
   <g id="patch_28">
    <path d="M 155.480727 270.4176 
L 158.737418 270.4176 
L 158.737418 269.297244 
L 155.480727 269.297244 
z
" clip-path="url(#p60e1be1e36)" style="fill: #1f77b4; opacity: 0.5"/>
   </g>
   <g id="patch_29">
    <path d="M 158.737418 270.4176 
L 161.994109 270.4176 
L 161.994109 269.670696 
L 158.737418 269.670696 
z
" clip-path="url(#p60e1be1e36)" style="fill: #1f77b4; opacity: 0.5"/>
   </g>
   <g id="patch_30">
    <path d="M 161.994109 270.4176 
L 165.2508 270.4176 
L 165.2508 270.4176 
L 161.994109 270.4176 
z
" clip-path="url(#p60e1be1e36)" style="fill: #1f77b4; opacity: 0.5"/>
   </g>
   <g id="patch_31">
    <path d="M 165.2508 270.4176 
L 168.507491 270.4176 
L 168.507491 269.297244 
L 165.2508 269.297244 
z
" clip-path="url(#p60e1be1e36)" style="fill: #1f77b4; opacity: 0.5"/>
   </g>
   <g id="patch_32">
    <path d="M 168.507491 270.4176 
L 171.764182 270.4176 
L 171.764182 268.923792 
L 168.507491 268.923792 
z
" clip-path="url(#p60e1be1e36)" style="fill: #1f77b4; opacity: 0.5"/>
   </g>
   <g id="patch_33">
    <path d="M 171.764182 270.4176 
L 175.020873 270.4176 
L 175.020873 269.670696 
L 171.764182 269.670696 
z
" clip-path="url(#p60e1be1e36)" style="fill: #1f77b4; opacity: 0.5"/>
   </g>
   <g id="patch_34">
    <path d="M 175.020873 270.4176 
L 178.277564 270.4176 
L 178.277564 270.044148 
L 175.020873 270.044148 
z
" clip-path="url(#p60e1be1e36)" style="fill: #1f77b4; opacity: 0.5"/>
   </g>
   <g id="patch_35">
    <path d="M 178.277564 270.4176 
L 181.534255 270.4176 
L 181.534255 270.4176 
L 178.277564 270.4176 
z
" clip-path="url(#p60e1be1e36)" style="fill: #1f77b4; opacity: 0.5"/>
   </g>
   <g id="patch_36">
    <path d="M 181.534255 270.4176 
L 184.790945 270.4176 
L 184.790945 270.044148 
L 181.534255 270.044148 
z
" clip-path="url(#p60e1be1e36)" style="fill: #1f77b4; opacity: 0.5"/>
   </g>
   <g id="patch_37">
    <path d="M 184.790945 270.4176 
L 188.047636 270.4176 
L 188.047636 270.044148 
L 184.790945 270.044148 
z
" clip-path="url(#p60e1be1e36)" style="fill: #1f77b4; opacity: 0.5"/>
   </g>
   <g id="patch_38">
    <path d="M 188.047636 270.4176 
L 191.304327 270.4176 
L 191.304327 270.4176 
L 188.047636 270.4176 
z
" clip-path="url(#p60e1be1e36)" style="fill: #1f77b4; opacity: 0.5"/>
   </g>
   <g id="patch_39">
    <path d="M 191.304327 270.4176 
L 194.561018 270.4176 
L 194.561018 270.4176 
L 191.304327 270.4176 
z
" clip-path="url(#p60e1be1e36)" style="fill: #1f77b4; opacity: 0.5"/>
   </g>
   <g id="patch_40">
    <path d="M 194.561018 270.4176 
L 197.817709 270.4176 
L 197.817709 269.297244 
L 194.561018 269.297244 
z
" clip-path="url(#p60e1be1e36)" style="fill: #1f77b4; opacity: 0.5"/>
   </g>
   <g id="patch_41">
    <path d="M 197.817709 270.4176 
L 201.0744 270.4176 
L 201.0744 270.4176 
L 197.817709 270.4176 
z
" clip-path="url(#p60e1be1e36)" style="fill: #1f77b4; opacity: 0.5"/>
   </g>
   <g id="patch_42">
    <path d="M 201.0744 270.4176 
L 204.331091 270.4176 
L 204.331091 270.4176 
L 201.0744 270.4176 
z
" clip-path="url(#p60e1be1e36)" style="fill: #1f77b4; opacity: 0.5"/>
   </g>
   <g id="patch_43">
    <path d="M 204.331091 270.4176 
L 207.587782 270.4176 
L 207.587782 270.4176 
L 204.331091 270.4176 
z
" clip-path="url(#p60e1be1e36)" style="fill: #1f77b4; opacity: 0.5"/>
   </g>
   <g id="patch_44">
    <path d="M 207.587782 270.4176 
L 210.844473 270.4176 
L 210.844473 270.044148 
L 207.587782 270.044148 
z
" clip-path="url(#p60e1be1e36)" style="fill: #1f77b4; opacity: 0.5"/>
   </g>
   <g id="patch_45">
    <path d="M 210.844473 270.4176 
L 214.101164 270.4176 
L 214.101164 270.044148 
L 210.844473 270.044148 
z
" clip-path="url(#p60e1be1e36)" style="fill: #1f77b4; opacity: 0.5"/>
   </g>
   <g id="patch_46">
    <path d="M 214.101164 270.4176 
L 217.357855 270.4176 
L 217.357855 269.670696 
L 214.101164 269.670696 
z
" clip-path="url(#p60e1be1e36)" style="fill: #1f77b4; opacity: 0.5"/>
   </g>
   <g id="patch_47">
    <path d="M 217.357855 270.4176 
L 220.614545 270.4176 
L 220.614545 269.670696 
L 217.357855 269.670696 
z
" clip-path="url(#p60e1be1e36)" style="fill: #1f77b4; opacity: 0.5"/>
   </g>
   <g id="patch_48">
    <path d="M 220.614545 270.4176 
L 223.871236 270.4176 
L 223.871236 270.4176 
L 220.614545 270.4176 
z
" clip-path="url(#p60e1be1e36)" style="fill: #1f77b4; opacity: 0.5"/>
   </g>
   <g id="patch_49">
    <path d="M 223.871236 270.4176 
L 227.127927 270.4176 
L 227.127927 270.044148 
L 223.871236 270.044148 
z
" clip-path="url(#p60e1be1e36)" style="fill: #1f77b4; opacity: 0.5"/>
   </g>
   <g id="patch_50">
    <path d="M 227.127927 270.4176 
L 230.384618 270.4176 
L 230.384618 270.4176 
L 227.127927 270.4176 
z
" clip-path="url(#p60e1be1e36)" style="fill: #1f77b4; opacity: 0.5"/>
   </g>
   <g id="patch_51">
    <path d="M 230.384618 270.4176 
L 233.641309 270.4176 
L 233.641309 270.4176 
L 230.384618 270.4176 
z
" clip-path="url(#p60e1be1e36)" style="fill: #1f77b4; opacity: 0.5"/>
   </g>
   <g id="patch_52">
    <path d="M 233.641309 270.4176 
L 236.898 270.4176 
L 236.898 270.044148 
L 233.641309 270.044148 
z
" clip-path="url(#p60e1be1e36)" style="fill: #1f77b4; opacity: 0.5"/>
   </g>
   <g id="patch_53">
    <path d="M 236.898 270.4176 
L 240.154691 270.4176 
L 240.154691 270.4176 
L 236.898 270.4176 
z
" clip-path="url(#p60e1be1e36)" style="fill: #1f77b4; opacity: 0.5"/>
   </g>
   <g id="patch_54">
    <path d="M 240.154691 270.4176 
L 243.411382 270.4176 
L 243.411382 270.4176 
L 240.154691 270.4176 
z
" clip-path="url(#p60e1be1e36)" style="fill: #1f77b4; opacity: 0.5"/>
   </g>
   <g id="patch_55">
    <path d="M 243.411382 270.4176 
L 246.668073 270.4176 
L 246.668073 270.4176 
L 243.411382 270.4176 
z
" clip-path="url(#p60e1be1e36)" style="fill: #1f77b4; opacity: 0.5"/>
   </g>
   <g id="patch_56">
    <path d="M 246.668073 270.4176 
L 249.924764 270.4176 
L 249.924764 270.4176 
L 246.668073 270.4176 
z
" clip-path="url(#p60e1be1e36)" style="fill: #1f77b4; opacity: 0.5"/>
   </g>
   <g id="patch_57">
    <path d="M 249.924764 270.4176 
L 253.181455 270.4176 
L 253.181455 270.4176 
L 249.924764 270.4176 
z
" clip-path="url(#p60e1be1e36)" style="fill: #1f77b4; opacity: 0.5"/>
   </g>
   <g id="patch_58">
    <path d="M 253.181455 270.4176 
L 256.438145 270.4176 
L 256.438145 269.670696 
L 253.181455 269.670696 
z
" clip-path="url(#p60e1be1e36)" style="fill: #1f77b4; opacity: 0.5"/>
   </g>
   <g id="patch_59">
    <path d="M 256.438145 270.4176 
L 259.694836 270.4176 
L 259.694836 270.4176 
L 256.438145 270.4176 
z
" clip-path="url(#p60e1be1e36)" style="fill: #1f77b4; opacity: 0.5"/>
   </g>
   <g id="patch_60">
    <path d="M 259.694836 270.4176 
L 262.951527 270.4176 
L 262.951527 270.4176 
L 259.694836 270.4176 
z
" clip-path="url(#p60e1be1e36)" style="fill: #1f77b4; opacity: 0.5"/>
   </g>
   <g id="patch_61">
    <path d="M 262.951527 270.4176 
L 266.208218 270.4176 
L 266.208218 270.044148 
L 262.951527 270.044148 
z
" clip-path="url(#p60e1be1e36)" style="fill: #1f77b4; opacity: 0.5"/>
   </g>
   <g id="patch_62">
    <path d="M 266.208218 270.4176 
L 269.464909 270.4176 
L 269.464909 270.4176 
L 266.208218 270.4176 
z
" clip-path="url(#p60e1be1e36)" style="fill: #1f77b4; opacity: 0.5"/>
   </g>
   <g id="patch_63">
    <path d="M 269.464909 270.4176 
L 272.7216 270.4176 
L 272.7216 270.4176 
L 269.464909 270.4176 
z
" clip-path="url(#p60e1be1e36)" style="fill: #1f77b4; opacity: 0.5"/>
   </g>
   <g id="patch_64">
    <path d="M 272.7216 270.4176 
L 275.978291 270.4176 
L 275.978291 270.4176 
L 272.7216 270.4176 
z
" clip-path="url(#p60e1be1e36)" style="fill: #1f77b4; opacity: 0.5"/>
   </g>
   <g id="patch_65">
    <path d="M 275.978291 270.4176 
L 279.234982 270.4176 
L 279.234982 270.4176 
L 275.978291 270.4176 
z
" clip-path="url(#p60e1be1e36)" style="fill: #1f77b4; opacity: 0.5"/>
   </g>
   <g id="patch_66">
    <path d="M 279.234982 270.4176 
L 282.491673 270.4176 
L 282.491673 270.4176 
L 279.234982 270.4176 
z
" clip-path="url(#p60e1be1e36)" style="fill: #1f77b4; opacity: 0.5"/>
   </g>
   <g id="patch_67">
    <path d="M 282.491673 270.4176 
L 285.748364 270.4176 
L 285.748364 270.4176 
L 282.491673 270.4176 
z
" clip-path="url(#p60e1be1e36)" style="fill: #1f77b4; opacity: 0.5"/>
   </g>
   <g id="patch_68">
    <path d="M 285.748364 270.4176 
L 289.005055 270.4176 
L 289.005055 270.044148 
L 285.748364 270.044148 
z
" clip-path="url(#p60e1be1e36)" style="fill: #1f77b4; opacity: 0.5"/>
   </g>
   <g id="patch_69">
    <path d="M 289.005055 270.4176 
L 292.261745 270.4176 
L 292.261745 270.044148 
L 289.005055 270.044148 
z
" clip-path="url(#p60e1be1e36)" style="fill: #1f77b4; opacity: 0.5"/>
   </g>
   <g id="patch_70">
    <path d="M 292.261745 270.4176 
L 295.518436 270.4176 
L 295.518436 270.4176 
L 292.261745 270.4176 
z
" clip-path="url(#p60e1be1e36)" style="fill: #1f77b4; opacity: 0.5"/>
   </g>
   <g id="patch_71">
    <path d="M 295.518436 270.4176 
L 298.775127 270.4176 
L 298.775127 270.4176 
L 295.518436 270.4176 
z
" clip-path="url(#p60e1be1e36)" style="fill: #1f77b4; opacity: 0.5"/>
   </g>
   <g id="patch_72">
    <path d="M 298.775127 270.4176 
L 302.031818 270.4176 
L 302.031818 270.044148 
L 298.775127 270.044148 
z
" clip-path="url(#p60e1be1e36)" style="fill: #1f77b4; opacity: 0.5"/>
   </g>
   <g id="patch_73">
    <path d="M 302.031818 270.4176 
L 305.288509 270.4176 
L 305.288509 270.4176 
L 302.031818 270.4176 
z
" clip-path="url(#p60e1be1e36)" style="fill: #1f77b4; opacity: 0.5"/>
   </g>
   <g id="patch_74">
    <path d="M 305.288509 270.4176 
L 308.5452 270.4176 
L 308.5452 270.044148 
L 305.288509 270.044148 
z
" clip-path="url(#p60e1be1e36)" style="fill: #1f77b4; opacity: 0.5"/>
   </g>
   <g id="patch_75">
    <path d="M 308.5452 270.4176 
L 311.801891 270.4176 
L 311.801891 270.044148 
L 308.5452 270.044148 
z
" clip-path="url(#p60e1be1e36)" style="fill: #1f77b4; opacity: 0.5"/>
   </g>
   <g id="patch_76">
    <path d="M 311.801891 270.4176 
L 315.058582 270.4176 
L 315.058582 270.4176 
L 311.801891 270.4176 
z
" clip-path="url(#p60e1be1e36)" style="fill: #1f77b4; opacity: 0.5"/>
   </g>
   <g id="patch_77">
    <path d="M 315.058582 270.4176 
L 318.315273 270.4176 
L 318.315273 270.4176 
L 315.058582 270.4176 
z
" clip-path="url(#p60e1be1e36)" style="fill: #1f77b4; opacity: 0.5"/>
   </g>
   <g id="patch_78">
    <path d="M 318.315273 270.4176 
L 321.571964 270.4176 
L 321.571964 270.4176 
L 318.315273 270.4176 
z
" clip-path="url(#p60e1be1e36)" style="fill: #1f77b4; opacity: 0.5"/>
   </g>
   <g id="patch_79">
    <path d="M 321.571964 270.4176 
L 324.828655 270.4176 
L 324.828655 270.044148 
L 321.571964 270.044148 
z
" clip-path="url(#p60e1be1e36)" style="fill: #1f77b4; opacity: 0.5"/>
   </g>
   <g id="patch_80">
    <path d="M 324.828655 270.4176 
L 328.085345 270.4176 
L 328.085345 270.4176 
L 324.828655 270.4176 
z
" clip-path="url(#p60e1be1e36)" style="fill: #1f77b4; opacity: 0.5"/>
   </g>
   <g id="patch_81">
    <path d="M 328.085345 270.4176 
L 331.342036 270.4176 
L 331.342036 270.4176 
L 328.085345 270.4176 
z
" clip-path="url(#p60e1be1e36)" style="fill: #1f77b4; opacity: 0.5"/>
   </g>
   <g id="patch_82">
    <path d="M 331.342036 270.4176 
L 334.598727 270.4176 
L 334.598727 270.4176 
L 331.342036 270.4176 
z
" clip-path="url(#p60e1be1e36)" style="fill: #1f77b4; opacity: 0.5"/>
   </g>
   <g id="patch_83">
    <path d="M 334.598727 270.4176 
L 337.855418 270.4176 
L 337.855418 270.4176 
L 334.598727 270.4176 
z
" clip-path="url(#p60e1be1e36)" style="fill: #1f77b4; opacity: 0.5"/>
   </g>
   <g id="patch_84">
    <path d="M 337.855418 270.4176 
L 341.112109 270.4176 
L 341.112109 270.4176 
L 337.855418 270.4176 
z
" clip-path="url(#p60e1be1e36)" style="fill: #1f77b4; opacity: 0.5"/>
   </g>
   <g id="patch_85">
    <path d="M 341.112109 270.4176 
L 344.3688 270.4176 
L 344.3688 270.4176 
L 341.112109 270.4176 
z
" clip-path="url(#p60e1be1e36)" style="fill: #1f77b4; opacity: 0.5"/>
   </g>
   <g id="patch_86">
    <path d="M 344.3688 270.4176 
L 347.625491 270.4176 
L 347.625491 270.4176 
L 344.3688 270.4176 
z
" clip-path="url(#p60e1be1e36)" style="fill: #1f77b4; opacity: 0.5"/>
   </g>
   <g id="patch_87">
    <path d="M 347.625491 270.4176 
L 350.882182 270.4176 
L 350.882182 270.4176 
L 347.625491 270.4176 
z
" clip-path="url(#p60e1be1e36)" style="fill: #1f77b4; opacity: 0.5"/>
   </g>
   <g id="patch_88">
    <path d="M 350.882182 270.4176 
L 354.138873 270.4176 
L 354.138873 270.4176 
L 350.882182 270.4176 
z
" clip-path="url(#p60e1be1e36)" style="fill: #1f77b4; opacity: 0.5"/>
   </g>
   <g id="patch_89">
    <path d="M 354.138873 270.4176 
L 357.395564 270.4176 
L 357.395564 270.4176 
L 354.138873 270.4176 
z
" clip-path="url(#p60e1be1e36)" style="fill: #1f77b4; opacity: 0.5"/>
   </g>
   <g id="patch_90">
    <path d="M 357.395564 270.4176 
L 360.652255 270.4176 
L 360.652255 270.4176 
L 357.395564 270.4176 
z
" clip-path="url(#p60e1be1e36)" style="fill: #1f77b4; opacity: 0.5"/>
   </g>
   <g id="patch_91">
    <path d="M 360.652255 270.4176 
L 363.908945 270.4176 
L 363.908945 270.4176 
L 360.652255 270.4176 
z
" clip-path="url(#p60e1be1e36)" style="fill: #1f77b4; opacity: 0.5"/>
   </g>
   <g id="patch_92">
    <path d="M 363.908945 270.4176 
L 367.165636 270.4176 
L 367.165636 270.4176 
L 363.908945 270.4176 
z
" clip-path="url(#p60e1be1e36)" style="fill: #1f77b4; opacity: 0.5"/>
   </g>
   <g id="patch_93">
    <path d="M 367.165636 270.4176 
L 370.422327 270.4176 
L 370.422327 270.4176 
L 367.165636 270.4176 
z
" clip-path="url(#p60e1be1e36)" style="fill: #1f77b4; opacity: 0.5"/>
   </g>
   <g id="patch_94">
    <path d="M 370.422327 270.4176 
L 373.679018 270.4176 
L 373.679018 270.4176 
L 370.422327 270.4176 
z
" clip-path="url(#p60e1be1e36)" style="fill: #1f77b4; opacity: 0.5"/>
   </g>
   <g id="patch_95">
    <path d="M 373.679018 270.4176 
L 376.935709 270.4176 
L 376.935709 270.4176 
L 373.679018 270.4176 
z
" clip-path="url(#p60e1be1e36)" style="fill: #1f77b4; opacity: 0.5"/>
   </g>
   <g id="patch_96">
    <path d="M 376.935709 270.4176 
L 380.1924 270.4176 
L 380.1924 270.4176 
L 376.935709 270.4176 
z
" clip-path="url(#p60e1be1e36)" style="fill: #1f77b4; opacity: 0.5"/>
   </g>
   <g id="patch_97">
    <path d="M 380.1924 270.4176 
L 383.449091 270.4176 
L 383.449091 270.4176 
L 380.1924 270.4176 
z
" clip-path="url(#p60e1be1e36)" style="fill: #1f77b4; opacity: 0.5"/>
   </g>
   <g id="patch_98">
    <path d="M 383.449091 270.4176 
L 386.705782 270.4176 
L 386.705782 270.4176 
L 383.449091 270.4176 
z
" clip-path="url(#p60e1be1e36)" style="fill: #1f77b4; opacity: 0.5"/>
   </g>
   <g id="patch_99">
    <path d="M 386.705782 270.4176 
L 389.962473 270.4176 
L 389.962473 270.4176 
L 386.705782 270.4176 
z
" clip-path="url(#p60e1be1e36)" style="fill: #1f77b4; opacity: 0.5"/>
   </g>
   <g id="patch_100">
    <path d="M 389.962473 270.4176 
L 393.219164 270.4176 
L 393.219164 270.4176 
L 389.962473 270.4176 
z
" clip-path="url(#p60e1be1e36)" style="fill: #1f77b4; opacity: 0.5"/>
   </g>
   <g id="patch_101">
    <path d="M 393.219164 270.4176 
L 396.475855 270.4176 
L 396.475855 269.670696 
L 393.219164 269.670696 
z
" clip-path="url(#p60e1be1e36)" style="fill: #1f77b4; opacity: 0.5"/>
   </g>
   <g id="patch_102">
    <path d="M 396.475855 270.4176 
L 399.732545 270.4176 
L 399.732545 270.4176 
L 396.475855 270.4176 
z
" clip-path="url(#p60e1be1e36)" style="fill: #1f77b4; opacity: 0.5"/>
   </g>
   <g id="patch_103">
    <path d="M 74.063455 270.4176 
L 77.320145 270.4176 
L 77.320145 47.6016 
L 74.063455 47.6016 
z
" clip-path="url(#p60e1be1e36)" style="fill: #ff7f0e; opacity: 0.5"/>
   </g>
   <g id="patch_104">
    <path d="M 77.320145 270.4176 
L 80.576836 270.4176 
L 80.576836 220.639557 
L 77.320145 220.639557 
z
" clip-path="url(#p60e1be1e36)" style="fill: #ff7f0e; opacity: 0.5"/>
   </g>
   <g id="patch_105">
    <path d="M 80.576836 270.4176 
L 83.833527 270.4176 
L 83.833527 256.195302 
L 80.576836 256.195302 
z
" clip-path="url(#p60e1be1e36)" style="fill: #ff7f0e; opacity: 0.5"/>
   </g>
   <g id="patch_106">
    <path d="M 83.833527 270.4176 
L 87.090218 270.4176 
L 87.090218 260.936068 
L 83.833527 260.936068 
z
" clip-path="url(#p60e1be1e36)" style="fill: #ff7f0e; opacity: 0.5"/>
   </g>
   <g id="patch_107">
    <path d="M 87.090218 270.4176 
L 90.346909 270.4176 
L 90.346909 253.824919 
L 87.090218 253.824919 
z
" clip-path="url(#p60e1be1e36)" style="fill: #ff7f0e; opacity: 0.5"/>
   </g>
   <g id="patch_108">
    <path d="M 90.346909 270.4176 
L 93.6036 270.4176 
L 93.6036 263.306451 
L 90.346909 263.306451 
z
" clip-path="url(#p60e1be1e36)" style="fill: #ff7f0e; opacity: 0.5"/>
   </g>
   <g id="patch_109">
    <path d="M 93.6036 270.4176 
L 96.860291 270.4176 
L 96.860291 263.306451 
L 93.6036 263.306451 
z
" clip-path="url(#p60e1be1e36)" style="fill: #ff7f0e; opacity: 0.5"/>
   </g>
   <g id="patch_110">
    <path d="M 96.860291 270.4176 
L 100.116982 270.4176 
L 100.116982 268.047217 
L 96.860291 268.047217 
z
" clip-path="url(#p60e1be1e36)" style="fill: #ff7f0e; opacity: 0.5"/>
   </g>
   <g id="patch_111">
    <path d="M 100.116982 270.4176 
L 103.373673 270.4176 
L 103.373673 265.676834 
L 100.116982 265.676834 
z
" clip-path="url(#p60e1be1e36)" style="fill: #ff7f0e; opacity: 0.5"/>
   </g>
   <g id="patch_112">
    <path d="M 103.373673 270.4176 
L 106.630364 270.4176 
L 106.630364 270.4176 
L 103.373673 270.4176 
z
" clip-path="url(#p60e1be1e36)" style="fill: #ff7f0e; opacity: 0.5"/>
   </g>
   <g id="patch_113">
    <path d="M 106.630364 270.4176 
L 109.887055 270.4176 
L 109.887055 268.047217 
L 106.630364 268.047217 
z
" clip-path="url(#p60e1be1e36)" style="fill: #ff7f0e; opacity: 0.5"/>
   </g>
   <g id="patch_114">
    <path d="M 109.887055 270.4176 
L 113.143745 270.4176 
L 113.143745 270.4176 
L 109.887055 270.4176 
z
" clip-path="url(#p60e1be1e36)" style="fill: #ff7f0e; opacity: 0.5"/>
   </g>
   <g id="patch_115">
    <path d="M 113.143745 270.4176 
L 116.400436 270.4176 
L 116.400436 270.4176 
L 113.143745 270.4176 
z
" clip-path="url(#p60e1be1e36)" style="fill: #ff7f0e; opacity: 0.5"/>
   </g>
   <g id="patch_116">
    <path d="M 116.400436 270.4176 
L 119.657127 270.4176 
L 119.657127 265.676834 
L 116.400436 265.676834 
z
" clip-path="url(#p60e1be1e36)" style="fill: #ff7f0e; opacity: 0.5"/>
   </g>
   <g id="patch_117">
    <path d="M 119.657127 270.4176 
L 122.913818 270.4176 
L 122.913818 270.4176 
L 119.657127 270.4176 
z
" clip-path="url(#p60e1be1e36)" style="fill: #ff7f0e; opacity: 0.5"/>
   </g>
   <g id="patch_118">
    <path d="M 122.913818 270.4176 
L 126.170509 270.4176 
L 126.170509 270.4176 
L 122.913818 270.4176 
z
" clip-path="url(#p60e1be1e36)" style="fill: #ff7f0e; opacity: 0.5"/>
   </g>
   <g id="patch_119">
    <path d="M 126.170509 270.4176 
L 129.4272 270.4176 
L 129.4272 270.4176 
L 126.170509 270.4176 
z
" clip-path="url(#p60e1be1e36)" style="fill: #ff7f0e; opacity: 0.5"/>
   </g>
   <g id="patch_120">
    <path d="M 129.4272 270.4176 
L 132.683891 270.4176 
L 132.683891 270.4176 
L 129.4272 270.4176 
z
" clip-path="url(#p60e1be1e36)" style="fill: #ff7f0e; opacity: 0.5"/>
   </g>
   <g id="patch_121">
    <path d="M 132.683891 270.4176 
L 135.940582 270.4176 
L 135.940582 270.4176 
L 132.683891 270.4176 
z
" clip-path="url(#p60e1be1e36)" style="fill: #ff7f0e; opacity: 0.5"/>
   </g>
   <g id="patch_122">
    <path d="M 135.940582 270.4176 
L 139.197273 270.4176 
L 139.197273 270.4176 
L 135.940582 270.4176 
z
" clip-path="url(#p60e1be1e36)" style="fill: #ff7f0e; opacity: 0.5"/>
   </g>
   <g id="patch_123">
    <path d="M 139.197273 270.4176 
L 142.453964 270.4176 
L 142.453964 270.4176 
L 139.197273 270.4176 
z
" clip-path="url(#p60e1be1e36)" style="fill: #ff7f0e; opacity: 0.5"/>
   </g>
   <g id="patch_124">
    <path d="M 142.453964 270.4176 
L 145.710655 270.4176 
L 145.710655 270.4176 
L 142.453964 270.4176 
z
" clip-path="url(#p60e1be1e36)" style="fill: #ff7f0e; opacity: 0.5"/>
   </g>
   <g id="patch_125">
    <path d="M 145.710655 270.4176 
L 148.967345 270.4176 
L 148.967345 270.4176 
L 145.710655 270.4176 
z
" clip-path="url(#p60e1be1e36)" style="fill: #ff7f0e; opacity: 0.5"/>
   </g>
   <g id="patch_126">
    <path d="M 148.967345 270.4176 
L 152.224036 270.4176 
L 152.224036 270.4176 
L 148.967345 270.4176 
z
" clip-path="url(#p60e1be1e36)" style="fill: #ff7f0e; opacity: 0.5"/>
   </g>
   <g id="patch_127">
    <path d="M 152.224036 270.4176 
L 155.480727 270.4176 
L 155.480727 270.4176 
L 152.224036 270.4176 
z
" clip-path="url(#p60e1be1e36)" style="fill: #ff7f0e; opacity: 0.5"/>
   </g>
   <g id="patch_128">
    <path d="M 155.480727 270.4176 
L 158.737418 270.4176 
L 158.737418 270.4176 
L 155.480727 270.4176 
z
" clip-path="url(#p60e1be1e36)" style="fill: #ff7f0e; opacity: 0.5"/>
   </g>
   <g id="patch_129">
    <path d="M 158.737418 270.4176 
L 161.994109 270.4176 
L 161.994109 270.4176 
L 158.737418 270.4176 
z
" clip-path="url(#p60e1be1e36)" style="fill: #ff7f0e; opacity: 0.5"/>
   </g>
   <g id="patch_130">
    <path d="M 161.994109 270.4176 
L 165.2508 270.4176 
L 165.2508 270.4176 
L 161.994109 270.4176 
z
" clip-path="url(#p60e1be1e36)" style="fill: #ff7f0e; opacity: 0.5"/>
   </g>
   <g id="patch_131">
    <path d="M 165.2508 270.4176 
L 168.507491 270.4176 
L 168.507491 270.4176 
L 165.2508 270.4176 
z
" clip-path="url(#p60e1be1e36)" style="fill: #ff7f0e; opacity: 0.5"/>
   </g>
   <g id="patch_132">
    <path d="M 168.507491 270.4176 
L 171.764182 270.4176 
L 171.764182 270.4176 
L 168.507491 270.4176 
z
" clip-path="url(#p60e1be1e36)" style="fill: #ff7f0e; opacity: 0.5"/>
   </g>
   <g id="patch_133">
    <path d="M 171.764182 270.4176 
L 175.020873 270.4176 
L 175.020873 270.4176 
L 171.764182 270.4176 
z
" clip-path="url(#p60e1be1e36)" style="fill: #ff7f0e; opacity: 0.5"/>
   </g>
   <g id="patch_134">
    <path d="M 175.020873 270.4176 
L 178.277564 270.4176 
L 178.277564 270.4176 
L 175.020873 270.4176 
z
" clip-path="url(#p60e1be1e36)" style="fill: #ff7f0e; opacity: 0.5"/>
   </g>
   <g id="patch_135">
    <path d="M 178.277564 270.4176 
L 181.534255 270.4176 
L 181.534255 270.4176 
L 178.277564 270.4176 
z
" clip-path="url(#p60e1be1e36)" style="fill: #ff7f0e; opacity: 0.5"/>
   </g>
   <g id="patch_136">
    <path d="M 181.534255 270.4176 
L 184.790945 270.4176 
L 184.790945 270.4176 
L 181.534255 270.4176 
z
" clip-path="url(#p60e1be1e36)" style="fill: #ff7f0e; opacity: 0.5"/>
   </g>
   <g id="patch_137">
    <path d="M 184.790945 270.4176 
L 188.047636 270.4176 
L 188.047636 270.4176 
L 184.790945 270.4176 
z
" clip-path="url(#p60e1be1e36)" style="fill: #ff7f0e; opacity: 0.5"/>
   </g>
   <g id="patch_138">
    <path d="M 188.047636 270.4176 
L 191.304327 270.4176 
L 191.304327 270.4176 
L 188.047636 270.4176 
z
" clip-path="url(#p60e1be1e36)" style="fill: #ff7f0e; opacity: 0.5"/>
   </g>
   <g id="patch_139">
    <path d="M 191.304327 270.4176 
L 194.561018 270.4176 
L 194.561018 270.4176 
L 191.304327 270.4176 
z
" clip-path="url(#p60e1be1e36)" style="fill: #ff7f0e; opacity: 0.5"/>
   </g>
   <g id="patch_140">
    <path d="M 194.561018 270.4176 
L 197.817709 270.4176 
L 197.817709 270.4176 
L 194.561018 270.4176 
z
" clip-path="url(#p60e1be1e36)" style="fill: #ff7f0e; opacity: 0.5"/>
   </g>
   <g id="patch_141">
    <path d="M 197.817709 270.4176 
L 201.0744 270.4176 
L 201.0744 270.4176 
L 197.817709 270.4176 
z
" clip-path="url(#p60e1be1e36)" style="fill: #ff7f0e; opacity: 0.5"/>
   </g>
   <g id="patch_142">
    <path d="M 201.0744 270.4176 
L 204.331091 270.4176 
L 204.331091 270.4176 
L 201.0744 270.4176 
z
" clip-path="url(#p60e1be1e36)" style="fill: #ff7f0e; opacity: 0.5"/>
   </g>
   <g id="patch_143">
    <path d="M 204.331091 270.4176 
L 207.587782 270.4176 
L 207.587782 270.4176 
L 204.331091 270.4176 
z
" clip-path="url(#p60e1be1e36)" style="fill: #ff7f0e; opacity: 0.5"/>
   </g>
   <g id="patch_144">
    <path d="M 207.587782 270.4176 
L 210.844473 270.4176 
L 210.844473 270.4176 
L 207.587782 270.4176 
z
" clip-path="url(#p60e1be1e36)" style="fill: #ff7f0e; opacity: 0.5"/>
   </g>
   <g id="patch_145">
    <path d="M 210.844473 270.4176 
L 214.101164 270.4176 
L 214.101164 270.4176 
L 210.844473 270.4176 
z
" clip-path="url(#p60e1be1e36)" style="fill: #ff7f0e; opacity: 0.5"/>
   </g>
   <g id="patch_146">
    <path d="M 214.101164 270.4176 
L 217.357855 270.4176 
L 217.357855 270.4176 
L 214.101164 270.4176 
z
" clip-path="url(#p60e1be1e36)" style="fill: #ff7f0e; opacity: 0.5"/>
   </g>
   <g id="patch_147">
    <path d="M 217.357855 270.4176 
L 220.614545 270.4176 
L 220.614545 270.4176 
L 217.357855 270.4176 
z
" clip-path="url(#p60e1be1e36)" style="fill: #ff7f0e; opacity: 0.5"/>
   </g>
   <g id="patch_148">
    <path d="M 220.614545 270.4176 
L 223.871236 270.4176 
L 223.871236 270.4176 
L 220.614545 270.4176 
z
" clip-path="url(#p60e1be1e36)" style="fill: #ff7f0e; opacity: 0.5"/>
   </g>
   <g id="patch_149">
    <path d="M 223.871236 270.4176 
L 227.127927 270.4176 
L 227.127927 270.4176 
L 223.871236 270.4176 
z
" clip-path="url(#p60e1be1e36)" style="fill: #ff7f0e; opacity: 0.5"/>
   </g>
   <g id="patch_150">
    <path d="M 227.127927 270.4176 
L 230.384618 270.4176 
L 230.384618 270.4176 
L 227.127927 270.4176 
z
" clip-path="url(#p60e1be1e36)" style="fill: #ff7f0e; opacity: 0.5"/>
   </g>
   <g id="patch_151">
    <path d="M 230.384618 270.4176 
L 233.641309 270.4176 
L 233.641309 270.4176 
L 230.384618 270.4176 
z
" clip-path="url(#p60e1be1e36)" style="fill: #ff7f0e; opacity: 0.5"/>
   </g>
   <g id="patch_152">
    <path d="M 233.641309 270.4176 
L 236.898 270.4176 
L 236.898 270.4176 
L 233.641309 270.4176 
z
" clip-path="url(#p60e1be1e36)" style="fill: #ff7f0e; opacity: 0.5"/>
   </g>
   <g id="patch_153">
    <path d="M 236.898 270.4176 
L 240.154691 270.4176 
L 240.154691 270.4176 
L 236.898 270.4176 
z
" clip-path="url(#p60e1be1e36)" style="fill: #ff7f0e; opacity: 0.5"/>
   </g>
   <g id="patch_154">
    <path d="M 240.154691 270.4176 
L 243.411382 270.4176 
L 243.411382 270.4176 
L 240.154691 270.4176 
z
" clip-path="url(#p60e1be1e36)" style="fill: #ff7f0e; opacity: 0.5"/>
   </g>
   <g id="patch_155">
    <path d="M 243.411382 270.4176 
L 246.668073 270.4176 
L 246.668073 270.4176 
L 243.411382 270.4176 
z
" clip-path="url(#p60e1be1e36)" style="fill: #ff7f0e; opacity: 0.5"/>
   </g>
   <g id="patch_156">
    <path d="M 246.668073 270.4176 
L 249.924764 270.4176 
L 249.924764 270.4176 
L 246.668073 270.4176 
z
" clip-path="url(#p60e1be1e36)" style="fill: #ff7f0e; opacity: 0.5"/>
   </g>
   <g id="patch_157">
    <path d="M 249.924764 270.4176 
L 253.181455 270.4176 
L 253.181455 270.4176 
L 249.924764 270.4176 
z
" clip-path="url(#p60e1be1e36)" style="fill: #ff7f0e; opacity: 0.5"/>
   </g>
   <g id="patch_158">
    <path d="M 253.181455 270.4176 
L 256.438145 270.4176 
L 256.438145 270.4176 
L 253.181455 270.4176 
z
" clip-path="url(#p60e1be1e36)" style="fill: #ff7f0e; opacity: 0.5"/>
   </g>
   <g id="patch_159">
    <path d="M 256.438145 270.4176 
L 259.694836 270.4176 
L 259.694836 270.4176 
L 256.438145 270.4176 
z
" clip-path="url(#p60e1be1e36)" style="fill: #ff7f0e; opacity: 0.5"/>
   </g>
   <g id="patch_160">
    <path d="M 259.694836 270.4176 
L 262.951527 270.4176 
L 262.951527 270.4176 
L 259.694836 270.4176 
z
" clip-path="url(#p60e1be1e36)" style="fill: #ff7f0e; opacity: 0.5"/>
   </g>
   <g id="patch_161">
    <path d="M 262.951527 270.4176 
L 266.208218 270.4176 
L 266.208218 270.4176 
L 262.951527 270.4176 
z
" clip-path="url(#p60e1be1e36)" style="fill: #ff7f0e; opacity: 0.5"/>
   </g>
   <g id="patch_162">
    <path d="M 266.208218 270.4176 
L 269.464909 270.4176 
L 269.464909 270.4176 
L 266.208218 270.4176 
z
" clip-path="url(#p60e1be1e36)" style="fill: #ff7f0e; opacity: 0.5"/>
   </g>
   <g id="patch_163">
    <path d="M 269.464909 270.4176 
L 272.7216 270.4176 
L 272.7216 270.4176 
L 269.464909 270.4176 
z
" clip-path="url(#p60e1be1e36)" style="fill: #ff7f0e; opacity: 0.5"/>
   </g>
   <g id="patch_164">
    <path d="M 272.7216 270.4176 
L 275.978291 270.4176 
L 275.978291 270.4176 
L 272.7216 270.4176 
z
" clip-path="url(#p60e1be1e36)" style="fill: #ff7f0e; opacity: 0.5"/>
   </g>
   <g id="patch_165">
    <path d="M 275.978291 270.4176 
L 279.234982 270.4176 
L 279.234982 270.4176 
L 275.978291 270.4176 
z
" clip-path="url(#p60e1be1e36)" style="fill: #ff7f0e; opacity: 0.5"/>
   </g>
   <g id="patch_166">
    <path d="M 279.234982 270.4176 
L 282.491673 270.4176 
L 282.491673 270.4176 
L 279.234982 270.4176 
z
" clip-path="url(#p60e1be1e36)" style="fill: #ff7f0e; opacity: 0.5"/>
   </g>
   <g id="patch_167">
    <path d="M 282.491673 270.4176 
L 285.748364 270.4176 
L 285.748364 270.4176 
L 282.491673 270.4176 
z
" clip-path="url(#p60e1be1e36)" style="fill: #ff7f0e; opacity: 0.5"/>
   </g>
   <g id="patch_168">
    <path d="M 285.748364 270.4176 
L 289.005055 270.4176 
L 289.005055 270.4176 
L 285.748364 270.4176 
z
" clip-path="url(#p60e1be1e36)" style="fill: #ff7f0e; opacity: 0.5"/>
   </g>
   <g id="patch_169">
    <path d="M 289.005055 270.4176 
L 292.261745 270.4176 
L 292.261745 270.4176 
L 289.005055 270.4176 
z
" clip-path="url(#p60e1be1e36)" style="fill: #ff7f0e; opacity: 0.5"/>
   </g>
   <g id="patch_170">
    <path d="M 292.261745 270.4176 
L 295.518436 270.4176 
L 295.518436 270.4176 
L 292.261745 270.4176 
z
" clip-path="url(#p60e1be1e36)" style="fill: #ff7f0e; opacity: 0.5"/>
   </g>
   <g id="patch_171">
    <path d="M 295.518436 270.4176 
L 298.775127 270.4176 
L 298.775127 270.4176 
L 295.518436 270.4176 
z
" clip-path="url(#p60e1be1e36)" style="fill: #ff7f0e; opacity: 0.5"/>
   </g>
   <g id="patch_172">
    <path d="M 298.775127 270.4176 
L 302.031818 270.4176 
L 302.031818 270.4176 
L 298.775127 270.4176 
z
" clip-path="url(#p60e1be1e36)" style="fill: #ff7f0e; opacity: 0.5"/>
   </g>
   <g id="patch_173">
    <path d="M 302.031818 270.4176 
L 305.288509 270.4176 
L 305.288509 270.4176 
L 302.031818 270.4176 
z
" clip-path="url(#p60e1be1e36)" style="fill: #ff7f0e; opacity: 0.5"/>
   </g>
   <g id="patch_174">
    <path d="M 305.288509 270.4176 
L 308.5452 270.4176 
L 308.5452 270.4176 
L 305.288509 270.4176 
z
" clip-path="url(#p60e1be1e36)" style="fill: #ff7f0e; opacity: 0.5"/>
   </g>
   <g id="patch_175">
    <path d="M 308.5452 270.4176 
L 311.801891 270.4176 
L 311.801891 270.4176 
L 308.5452 270.4176 
z
" clip-path="url(#p60e1be1e36)" style="fill: #ff7f0e; opacity: 0.5"/>
   </g>
   <g id="patch_176">
    <path d="M 311.801891 270.4176 
L 315.058582 270.4176 
L 315.058582 270.4176 
L 311.801891 270.4176 
z
" clip-path="url(#p60e1be1e36)" style="fill: #ff7f0e; opacity: 0.5"/>
   </g>
   <g id="patch_177">
    <path d="M 315.058582 270.4176 
L 318.315273 270.4176 
L 318.315273 270.4176 
L 315.058582 270.4176 
z
" clip-path="url(#p60e1be1e36)" style="fill: #ff7f0e; opacity: 0.5"/>
   </g>
   <g id="patch_178">
    <path d="M 318.315273 270.4176 
L 321.571964 270.4176 
L 321.571964 270.4176 
L 318.315273 270.4176 
z
" clip-path="url(#p60e1be1e36)" style="fill: #ff7f0e; opacity: 0.5"/>
   </g>
   <g id="patch_179">
    <path d="M 321.571964 270.4176 
L 324.828655 270.4176 
L 324.828655 270.4176 
L 321.571964 270.4176 
z
" clip-path="url(#p60e1be1e36)" style="fill: #ff7f0e; opacity: 0.5"/>
   </g>
   <g id="patch_180">
    <path d="M 324.828655 270.4176 
L 328.085345 270.4176 
L 328.085345 270.4176 
L 324.828655 270.4176 
z
" clip-path="url(#p60e1be1e36)" style="fill: #ff7f0e; opacity: 0.5"/>
   </g>
   <g id="patch_181">
    <path d="M 328.085345 270.4176 
L 331.342036 270.4176 
L 331.342036 270.4176 
L 328.085345 270.4176 
z
" clip-path="url(#p60e1be1e36)" style="fill: #ff7f0e; opacity: 0.5"/>
   </g>
   <g id="patch_182">
    <path d="M 331.342036 270.4176 
L 334.598727 270.4176 
L 334.598727 270.4176 
L 331.342036 270.4176 
z
" clip-path="url(#p60e1be1e36)" style="fill: #ff7f0e; opacity: 0.5"/>
   </g>
   <g id="patch_183">
    <path d="M 334.598727 270.4176 
L 337.855418 270.4176 
L 337.855418 270.4176 
L 334.598727 270.4176 
z
" clip-path="url(#p60e1be1e36)" style="fill: #ff7f0e; opacity: 0.5"/>
   </g>
   <g id="patch_184">
    <path d="M 337.855418 270.4176 
L 341.112109 270.4176 
L 341.112109 270.4176 
L 337.855418 270.4176 
z
" clip-path="url(#p60e1be1e36)" style="fill: #ff7f0e; opacity: 0.5"/>
   </g>
   <g id="patch_185">
    <path d="M 341.112109 270.4176 
L 344.3688 270.4176 
L 344.3688 270.4176 
L 341.112109 270.4176 
z
" clip-path="url(#p60e1be1e36)" style="fill: #ff7f0e; opacity: 0.5"/>
   </g>
   <g id="patch_186">
    <path d="M 344.3688 270.4176 
L 347.625491 270.4176 
L 347.625491 270.4176 
L 344.3688 270.4176 
z
" clip-path="url(#p60e1be1e36)" style="fill: #ff7f0e; opacity: 0.5"/>
   </g>
   <g id="patch_187">
    <path d="M 347.625491 270.4176 
L 350.882182 270.4176 
L 350.882182 270.4176 
L 347.625491 270.4176 
z
" clip-path="url(#p60e1be1e36)" style="fill: #ff7f0e; opacity: 0.5"/>
   </g>
   <g id="patch_188">
    <path d="M 350.882182 270.4176 
L 354.138873 270.4176 
L 354.138873 270.4176 
L 350.882182 270.4176 
z
" clip-path="url(#p60e1be1e36)" style="fill: #ff7f0e; opacity: 0.5"/>
   </g>
   <g id="patch_189">
    <path d="M 354.138873 270.4176 
L 357.395564 270.4176 
L 357.395564 270.4176 
L 354.138873 270.4176 
z
" clip-path="url(#p60e1be1e36)" style="fill: #ff7f0e; opacity: 0.5"/>
   </g>
   <g id="patch_190">
    <path d="M 357.395564 270.4176 
L 360.652255 270.4176 
L 360.652255 270.4176 
L 357.395564 270.4176 
z
" clip-path="url(#p60e1be1e36)" style="fill: #ff7f0e; opacity: 0.5"/>
   </g>
   <g id="patch_191">
    <path d="M 360.652255 270.4176 
L 363.908945 270.4176 
L 363.908945 270.4176 
L 360.652255 270.4176 
z
" clip-path="url(#p60e1be1e36)" style="fill: #ff7f0e; opacity: 0.5"/>
   </g>
   <g id="patch_192">
    <path d="M 363.908945 270.4176 
L 367.165636 270.4176 
L 367.165636 270.4176 
L 363.908945 270.4176 
z
" clip-path="url(#p60e1be1e36)" style="fill: #ff7f0e; opacity: 0.5"/>
   </g>
   <g id="patch_193">
    <path d="M 367.165636 270.4176 
L 370.422327 270.4176 
L 370.422327 270.4176 
L 367.165636 270.4176 
z
" clip-path="url(#p60e1be1e36)" style="fill: #ff7f0e; opacity: 0.5"/>
   </g>
   <g id="patch_194">
    <path d="M 370.422327 270.4176 
L 373.679018 270.4176 
L 373.679018 270.4176 
L 370.422327 270.4176 
z
" clip-path="url(#p60e1be1e36)" style="fill: #ff7f0e; opacity: 0.5"/>
   </g>
   <g id="patch_195">
    <path d="M 373.679018 270.4176 
L 376.935709 270.4176 
L 376.935709 270.4176 
L 373.679018 270.4176 
z
" clip-path="url(#p60e1be1e36)" style="fill: #ff7f0e; opacity: 0.5"/>
   </g>
   <g id="patch_196">
    <path d="M 376.935709 270.4176 
L 380.1924 270.4176 
L 380.1924 270.4176 
L 376.935709 270.4176 
z
" clip-path="url(#p60e1be1e36)" style="fill: #ff7f0e; opacity: 0.5"/>
   </g>
   <g id="patch_197">
    <path d="M 380.1924 270.4176 
L 383.449091 270.4176 
L 383.449091 270.4176 
L 380.1924 270.4176 
z
" clip-path="url(#p60e1be1e36)" style="fill: #ff7f0e; opacity: 0.5"/>
   </g>
   <g id="patch_198">
    <path d="M 383.449091 270.4176 
L 386.705782 270.4176 
L 386.705782 270.4176 
L 383.449091 270.4176 
z
" clip-path="url(#p60e1be1e36)" style="fill: #ff7f0e; opacity: 0.5"/>
   </g>
   <g id="patch_199">
    <path d="M 386.705782 270.4176 
L 389.962473 270.4176 
L 389.962473 270.4176 
L 386.705782 270.4176 
z
" clip-path="url(#p60e1be1e36)" style="fill: #ff7f0e; opacity: 0.5"/>
   </g>
   <g id="patch_200">
    <path d="M 389.962473 270.4176 
L 393.219164 270.4176 
L 393.219164 270.4176 
L 389.962473 270.4176 
z
" clip-path="url(#p60e1be1e36)" style="fill: #ff7f0e; opacity: 0.5"/>
   </g>
   <g id="patch_201">
    <path d="M 393.219164 270.4176 
L 396.475855 270.4176 
L 396.475855 270.4176 
L 393.219164 270.4176 
z
" clip-path="url(#p60e1be1e36)" style="fill: #ff7f0e; opacity: 0.5"/>
   </g>
   <g id="patch_202">
    <path d="M 396.475855 270.4176 
L 399.732545 270.4176 
L 399.732545 270.4176 
L 396.475855 270.4176 
z
" clip-path="url(#p60e1be1e36)" style="fill: #ff7f0e; opacity: 0.5"/>
   </g>
   <g id="matplotlib.axis_1">
    <g id="xtick_1">
     <g id="line2d_1">
      <defs>
       <path id="mf8e133b509" d="M 0 0 
L 0 3.5 
" style="stroke: #000000; stroke-width: 0.8"/>
      </defs>
      <g>
       <use xlink:href="#mf8e133b509" x="70.773868" y="270.4176" style="stroke: #000000; stroke-width: 0.8"/>
      </g>
     </g>
     <g id="text_1">
      <!-- 0 -->
      <g transform="translate(67.998868 285.376975) scale(0.1 -0.1)">
       <defs>
        <path id="NotoSansCJKjp-Regular-30" d="M 1779 -83 
C 2669 -83 3238 723 3238 2362 
C 3238 3987 2669 4774 1779 4774 
C 883 4774 320 3987 320 2362 
C 320 723 883 -83 1779 -83 
z
M 1779 390 
C 1248 390 883 986 883 2362 
C 883 3731 1248 4314 1779 4314 
C 2310 4314 2675 3731 2675 2362 
C 2675 986 2310 390 1779 390 
z
" transform="scale(0.015625)"/>
       </defs>
       <use xlink:href="#NotoSansCJKjp-Regular-30"/>
      </g>
     </g>
    </g>
    <g id="xtick_2">
     <g id="line2d_2">
      <g>
       <use xlink:href="#mf8e133b509" x="136.565603" y="270.4176" style="stroke: #000000; stroke-width: 0.8"/>
      </g>
     </g>
     <g id="text_2">
      <!-- 20 -->
      <g transform="translate(131.015603 285.376975) scale(0.1 -0.1)">
       <defs>
        <path id="NotoSansCJKjp-Regular-32" d="M 282 0 
L 3232 0 
L 3232 506 
L 1933 506 
C 1696 506 1408 480 1165 461 
C 2266 1504 3008 2458 3008 3398 
C 3008 4230 2477 4774 1638 4774 
C 1043 4774 634 4506 256 4090 
L 595 3757 
C 858 4070 1184 4301 1568 4301 
C 2150 4301 2432 3910 2432 3373 
C 2432 2566 1754 1632 282 346 
L 282 0 
z
" transform="scale(0.015625)"/>
       </defs>
       <use xlink:href="#NotoSansCJKjp-Regular-32"/>
       <use xlink:href="#NotoSansCJKjp-Regular-30" x="55.499985"/>
      </g>
     </g>
    </g>
    <g id="xtick_3">
     <g id="line2d_3">
      <g>
       <use xlink:href="#mf8e133b509" x="202.357339" y="270.4176" style="stroke: #000000; stroke-width: 0.8"/>
      </g>
     </g>
     <g id="text_3">
      <!-- 40 -->
      <g transform="translate(196.807339 285.376975) scale(0.1 -0.1)">
       <defs>
        <path id="NotoSansCJKjp-Regular-34" d="M 2176 0 
L 2726 0 
L 2726 1293 
L 3354 1293 
L 3354 1760 
L 2726 1760 
L 2726 4691 
L 2080 4691 
L 128 1677 
L 128 1293 
L 2176 1293 
L 2176 0 
z
M 2176 1760 
L 736 1760 
L 1805 3360 
C 1939 3590 2067 3827 2182 4051 
L 2208 4051 
C 2195 3814 2176 3430 2176 3200 
L 2176 1760 
z
" transform="scale(0.015625)"/>
       </defs>
       <use xlink:href="#NotoSansCJKjp-Regular-34"/>
       <use xlink:href="#NotoSansCJKjp-Regular-30" x="55.499985"/>
      </g>
     </g>
    </g>
    <g id="xtick_4">
     <g id="line2d_4">
      <g>
       <use xlink:href="#mf8e133b509" x="268.149074" y="270.4176" style="stroke: #000000; stroke-width: 0.8"/>
      </g>
     </g>
     <g id="text_4">
      <!-- 60 -->
      <g transform="translate(262.599074 285.376975) scale(0.1 -0.1)">
       <defs>
        <path id="NotoSansCJKjp-Regular-36" d="M 1926 -83 
C 2656 -83 3277 531 3277 1440 
C 3277 2426 2765 2912 1971 2912 
C 1606 2912 1197 2701 909 2349 
C 934 3802 1466 4294 2118 4294 
C 2400 4294 2682 4154 2861 3936 
L 3194 4294 
C 2931 4576 2579 4774 2093 4774 
C 1184 4774 358 4077 358 2240 
C 358 691 1030 -83 1926 -83 
z
M 922 1882 
C 1229 2317 1587 2477 1875 2477 
C 2445 2477 2720 2074 2720 1440 
C 2720 800 2374 378 1926 378 
C 1338 378 986 909 922 1882 
z
" transform="scale(0.015625)"/>
       </defs>
       <use xlink:href="#NotoSansCJKjp-Regular-36"/>
       <use xlink:href="#NotoSansCJKjp-Regular-30" x="55.499985"/>
      </g>
     </g>
    </g>
    <g id="xtick_5">
     <g id="line2d_5">
      <g>
       <use xlink:href="#mf8e133b509" x="333.94081" y="270.4176" style="stroke: #000000; stroke-width: 0.8"/>
      </g>
     </g>
     <g id="text_5">
      <!-- 80 -->
      <g transform="translate(328.39081 285.376975) scale(0.1 -0.1)">
       <defs>
        <path id="NotoSansCJKjp-Regular-38" d="M 1792 -83 
C 2669 -83 3258 448 3258 1126 
C 3258 1773 2880 2125 2470 2362 
L 2470 2394 
C 2746 2611 3091 3034 3091 3526 
C 3091 4250 2605 4762 1805 4762 
C 1075 4762 518 4282 518 3571 
C 518 3078 813 2726 1152 2490 
L 1152 2464 
C 723 2234 294 1792 294 1165 
C 294 442 922 -83 1792 -83 
z
M 2112 2547 
C 1555 2765 1050 3014 1050 3571 
C 1050 4026 1363 4326 1798 4326 
C 2298 4326 2592 3962 2592 3494 
C 2592 3149 2426 2829 2112 2547 
z
M 1798 352 
C 1235 352 813 717 813 1216 
C 813 1664 1082 2035 1459 2278 
C 2125 2010 2701 1779 2701 1146 
C 2701 678 2342 352 1798 352 
z
" transform="scale(0.015625)"/>
       </defs>
       <use xlink:href="#NotoSansCJKjp-Regular-38"/>
       <use xlink:href="#NotoSansCJKjp-Regular-30" x="55.499985"/>
      </g>
     </g>
    </g>
    <g id="xtick_6">
     <g id="line2d_6">
      <g>
       <use xlink:href="#mf8e133b509" x="399.732545" y="270.4176" style="stroke: #000000; stroke-width: 0.8"/>
      </g>
     </g>
     <g id="text_6">
      <!-- 100 -->
      <g transform="translate(391.407545 285.376975) scale(0.1 -0.1)">
       <defs>
        <path id="NotoSansCJKjp-Regular-31" d="M 563 0 
L 3136 0 
L 3136 486 
L 2195 486 
L 2195 4691 
L 1747 4691 
C 1491 4544 1190 4435 774 4358 
L 774 3987 
L 1613 3987 
L 1613 486 
L 563 486 
L 563 0 
z
" transform="scale(0.015625)"/>
       </defs>
       <use xlink:href="#NotoSansCJKjp-Regular-31"/>
       <use xlink:href="#NotoSansCJKjp-Regular-30" x="55.499985"/>
       <use xlink:href="#NotoSansCJKjp-Regular-30" x="110.999969"/>
      </g>
     </g>
    </g>
    <g id="text_7">
     <!-- 次候補の数 -->
     <g transform="translate(211.898 299.626975) scale(0.1 -0.1)">
      <defs>
       <path id="NotoSansCJKjp-Regular-6b21" d="M 243 806 
L 557 410 
C 986 826 1530 1382 2003 1901 
L 1734 2310 
C 1197 1741 614 1158 243 806 
z
M 448 4602 
C 858 4314 1363 3891 1606 3610 
L 1965 4006 
C 1715 4282 1197 4685 787 4947 
L 448 4602 
z
M 2854 5363 
C 2630 4339 2240 3334 1696 2707 
C 1824 2650 2054 2515 2157 2438 
C 2426 2797 2662 3245 2874 3750 
L 3654 3750 
L 3654 2931 
C 3654 2330 3322 653 1370 -115 
C 1459 -211 1606 -403 1664 -512 
C 3206 141 3795 1427 3904 2029 
C 4000 1434 4544 102 5894 -512 
C 5965 -397 6112 -198 6208 -83 
C 4461 672 4147 2368 4154 2931 
L 4154 3750 
L 5485 3750 
C 5350 3322 5152 2848 4986 2547 
C 5101 2502 5286 2400 5389 2349 
C 5626 2778 5926 3443 6099 4058 
L 5747 4250 
L 5651 4224 
L 3053 4224 
C 3168 4557 3270 4915 3354 5274 
L 2854 5363 
z
" transform="scale(0.015625)"/>
       <path id="NotoSansCJKjp-Regular-5019" d="M 1965 4640 
L 1965 538 
L 2394 538 
L 2394 4640 
L 1965 4640 
z
M 2586 3834 
L 2586 3418 
L 3341 3418 
C 3174 2874 2899 2349 2554 1984 
C 2662 1926 2848 1811 2938 1741 
C 3104 1926 3258 2157 3398 2419 
L 4090 2419 
L 4090 1709 
L 4090 1606 
L 2592 1606 
L 2592 1190 
L 4032 1190 
C 3910 710 3533 186 2426 -179 
C 2534 -269 2669 -422 2726 -531 
C 3674 -173 4141 288 4365 762 
C 4602 262 5037 -262 5952 -525 
C 6016 -403 6138 -224 6240 -134 
C 5178 134 4794 710 4627 1190 
L 6189 1190 
L 6189 1606 
L 4557 1606 
L 4557 1702 
L 4557 2419 
L 5971 2419 
L 5971 2829 
L 3597 2829 
C 3674 3002 3738 3181 3789 3360 
L 3526 3418 
L 6029 3418 
L 6029 3834 
L 5363 3834 
L 5363 5062 
L 3027 5062 
L 3027 4653 
L 4909 4653 
L 4909 3834 
L 2586 3834 
z
M 1491 5338 
C 1178 4346 659 3366 96 2726 
C 179 2605 307 2349 346 2234 
C 563 2490 781 2790 979 3123 
L 979 -512 
L 1434 -512 
L 1434 3968 
C 1626 4371 1792 4794 1933 5216 
L 1491 5338 
z
" transform="scale(0.015625)"/>
       <path id="NotoSansCJKjp-Regular-88dc" d="M 4838 5056 
C 5158 4890 5549 4640 5747 4454 
L 6016 4749 
C 5818 4934 5414 5171 5094 5318 
L 4838 5056 
z
M 5530 2995 
L 5530 2310 
L 4576 2310 
L 4576 2995 
L 5530 2995 
z
M 4122 5370 
L 4122 4442 
L 2541 4442 
L 2541 4013 
L 4122 4013 
L 4122 3405 
L 2739 3405 
L 2739 -512 
L 3194 -512 
L 3194 819 
L 4122 819 
L 4122 -486 
L 4576 -486 
L 4576 819 
L 5530 819 
L 5530 -6 
C 5530 -77 5510 -96 5440 -96 
C 5370 -96 5165 -96 4928 -90 
C 4998 -205 5062 -403 5088 -518 
C 5414 -518 5645 -512 5792 -435 
C 5939 -358 5984 -237 5984 -6 
L 5984 3405 
L 4576 3405 
L 4576 4013 
L 6118 4013 
L 6118 4442 
L 4576 4442 
L 4576 5370 
L 4122 5370 
z
M 5530 1920 
L 5530 1216 
L 4576 1216 
L 4576 1920 
L 5530 1920 
z
M 3194 1920 
L 4122 1920 
L 4122 1216 
L 3194 1216 
L 3194 1920 
z
M 3194 2310 
L 3194 2995 
L 4122 2995 
L 4122 2310 
L 3194 2310 
z
M 2362 2989 
C 2266 2797 2093 2528 1946 2317 
L 1715 2598 
C 1990 3040 2234 3526 2400 4026 
L 2144 4186 
L 2054 4166 
L 1606 4166 
L 1606 5357 
L 1165 5357 
L 1165 4166 
L 339 4166 
L 339 3731 
L 1843 3731 
C 1478 2861 819 1997 192 1504 
C 269 1421 390 1203 442 1088 
C 685 1293 934 1555 1178 1850 
L 1178 -518 
L 1626 -518 
L 1626 2144 
C 1856 1843 2118 1466 2240 1267 
L 2534 1594 
L 2150 2080 
C 2310 2272 2496 2534 2656 2778 
L 2362 2989 
z
" transform="scale(0.015625)"/>
       <path id="NotoSansCJKjp-Regular-306e" d="M 3046 4109 
C 2976 3520 2848 2912 2688 2381 
C 2362 1299 2022 870 1722 870 
C 1434 870 1062 1229 1062 2035 
C 1062 2906 1818 3955 3046 4109 
z
M 3578 4122 
C 4666 4026 5286 3226 5286 2259 
C 5286 1152 4480 544 3661 358 
C 3514 326 3315 294 3110 275 
L 3411 -198 
C 4928 0 5811 896 5811 2240 
C 5811 3539 4858 4595 3360 4595 
C 1798 4595 563 3379 563 1990 
C 563 934 1133 282 1702 282 
C 2298 282 2803 954 3194 2272 
C 3373 2867 3494 3520 3578 4122 
z
" transform="scale(0.015625)"/>
       <path id="NotoSansCJKjp-Regular-6570" d="M 2803 5254 
C 2688 4998 2483 4627 2317 4403 
L 2643 4243 
C 2816 4454 3027 4781 3219 5075 
L 2803 5254 
z
M 531 5075 
C 704 4806 870 4454 928 4230 
L 1312 4397 
C 1248 4627 1075 4973 890 5222 
L 531 5075 
z
M 4026 5382 
C 3846 4243 3507 3162 2970 2490 
C 3078 2413 3283 2246 3360 2163 
C 3533 2394 3693 2669 3827 2970 
C 3974 2310 4160 1709 4410 1184 
C 4090 698 3667 314 3110 19 
C 2912 166 2656 326 2374 480 
C 2598 774 2746 1126 2829 1562 
L 3398 1562 
L 3398 1958 
L 1677 1958 
L 1894 2413 
L 1779 2438 
L 2061 2438 
L 2061 3398 
C 2374 3168 2771 2854 2938 2701 
L 3206 3046 
C 3034 3174 2336 3616 2061 3776 
L 2061 3802 
L 3373 3802 
L 3373 4198 
L 2061 4198 
L 2061 5382 
L 1613 5382 
L 1613 4198 
L 288 4198 
L 288 3802 
L 1485 3802 
C 1171 3379 678 2982 218 2784 
C 314 2694 422 2528 480 2419 
C 870 2637 1293 2989 1613 3373 
L 1613 2477 
L 1440 2515 
L 1178 1958 
L 250 1958 
L 250 1562 
L 979 1562 
C 806 1222 627 896 486 653 
L 909 506 
L 1005 678 
C 1222 589 1434 493 1638 384 
C 1306 147 858 -13 269 -109 
C 352 -211 448 -384 480 -512 
C 1171 -365 1683 -154 2061 160 
C 2355 -13 2611 -186 2810 -352 
L 2963 -192 
C 3046 -301 3136 -448 3174 -531 
C 3802 -205 4288 205 4666 710 
C 4979 192 5370 -224 5862 -512 
C 5939 -378 6093 -192 6208 -96 
C 5690 173 5280 614 4960 1165 
C 5350 1856 5594 2707 5754 3750 
L 6144 3750 
L 6144 4198 
L 4262 4198 
C 4358 4557 4442 4928 4506 5312 
L 4026 5382 
z
M 1478 1562 
L 2368 1562 
C 2285 1216 2157 928 1965 698 
C 1715 819 1459 934 1197 1030 
L 1478 1562 
z
M 4134 3750 
L 5254 3750 
C 5139 2950 4966 2266 4698 1696 
C 4435 2298 4250 3002 4134 3750 
z
" transform="scale(0.015625)"/>
      </defs>
      <use xlink:href="#NotoSansCJKjp-Regular-6b21"/>
      <use xlink:href="#NotoSansCJKjp-Regular-5019" x="99.999985"/>
      <use xlink:href="#NotoSansCJKjp-Regular-88dc" x="199.999969"/>
      <use xlink:href="#NotoSansCJKjp-Regular-306e" x="299.999954"/>
      <use xlink:href="#NotoSansCJKjp-Regular-6570" x="399.999939"/>
     </g>
    </g>
   </g>
   <g id="matplotlib.axis_2">
    <g id="ytick_1">
     <g id="line2d_7">
      <defs>
       <path id="m868e171c63" d="M 0 0 
L -3.5 0 
" style="stroke: #000000; stroke-width: 0.8"/>
      </defs>
      <g>
       <use xlink:href="#m868e171c63" x="57.78" y="270.4176" style="stroke: #000000; stroke-width: 0.8"/>
      </g>
     </g>
     <g id="text_8">
      <!-- 0.0 -->
      <g transform="translate(36.900312 274.397288) scale(0.1 -0.1)">
       <defs>
        <path id="NotoSansCJKjp-Regular-2e" d="M 890 -83 
C 1120 -83 1312 96 1312 358 
C 1312 627 1120 806 890 806 
C 653 806 467 627 467 358 
C 467 96 653 -83 890 -83 
z
" transform="scale(0.015625)"/>
       </defs>
       <use xlink:href="#NotoSansCJKjp-Regular-30"/>
       <use xlink:href="#NotoSansCJKjp-Regular-2e" x="55.499985"/>
       <use xlink:href="#NotoSansCJKjp-Regular-30" x="83.299973"/>
      </g>
     </g>
    </g>
    <g id="ytick_2">
     <g id="line2d_8">
      <g>
       <use xlink:href="#m868e171c63" x="57.78" y="236.62542" style="stroke: #000000; stroke-width: 0.8"/>
      </g>
     </g>
     <g id="text_9">
      <!-- 0.1 -->
      <g transform="translate(36.900312 240.605108) scale(0.1 -0.1)">
       <use xlink:href="#NotoSansCJKjp-Regular-30"/>
       <use xlink:href="#NotoSansCJKjp-Regular-2e" x="55.499985"/>
       <use xlink:href="#NotoSansCJKjp-Regular-31" x="83.299973"/>
      </g>
     </g>
    </g>
    <g id="ytick_3">
     <g id="line2d_9">
      <g>
       <use xlink:href="#m868e171c63" x="57.78" y="202.833241" style="stroke: #000000; stroke-width: 0.8"/>
      </g>
     </g>
     <g id="text_10">
      <!-- 0.2 -->
      <g transform="translate(36.900312 206.812928) scale(0.1 -0.1)">
       <use xlink:href="#NotoSansCJKjp-Regular-30"/>
       <use xlink:href="#NotoSansCJKjp-Regular-2e" x="55.499985"/>
       <use xlink:href="#NotoSansCJKjp-Regular-32" x="83.299973"/>
      </g>
     </g>
    </g>
    <g id="ytick_4">
     <g id="line2d_10">
      <g>
       <use xlink:href="#m868e171c63" x="57.78" y="169.041061" style="stroke: #000000; stroke-width: 0.8"/>
      </g>
     </g>
     <g id="text_11">
      <!-- 0.3 -->
      <g transform="translate(36.900312 173.020748) scale(0.1 -0.1)">
       <defs>
        <path id="NotoSansCJKjp-Regular-33" d="M 1683 -83 
C 2522 -83 3194 416 3194 1254 
C 3194 1901 2752 2310 2202 2445 
L 2202 2477 
C 2701 2650 3034 3034 3034 3603 
C 3034 4346 2458 4774 1664 4774 
C 1126 4774 710 4538 358 4218 
L 672 3846 
C 941 4115 1267 4301 1645 4301 
C 2138 4301 2438 4006 2438 3558 
C 2438 3053 2112 2662 1139 2662 
L 1139 2214 
C 2227 2214 2598 1843 2598 1274 
C 2598 736 2208 403 1645 403 
C 1114 403 762 659 486 941 
L 186 563 
C 493 224 954 -83 1683 -83 
z
" transform="scale(0.015625)"/>
       </defs>
       <use xlink:href="#NotoSansCJKjp-Regular-30"/>
       <use xlink:href="#NotoSansCJKjp-Regular-2e" x="55.499985"/>
       <use xlink:href="#NotoSansCJKjp-Regular-33" x="83.299973"/>
      </g>
     </g>
    </g>
    <g id="ytick_5">
     <g id="line2d_11">
      <g>
       <use xlink:href="#m868e171c63" x="57.78" y="135.248881" style="stroke: #000000; stroke-width: 0.8"/>
      </g>
     </g>
     <g id="text_12">
      <!-- 0.4 -->
      <g transform="translate(36.900312 139.228569) scale(0.1 -0.1)">
       <use xlink:href="#NotoSansCJKjp-Regular-30"/>
       <use xlink:href="#NotoSansCJKjp-Regular-2e" x="55.499985"/>
       <use xlink:href="#NotoSansCJKjp-Regular-34" x="83.299973"/>
      </g>
     </g>
    </g>
    <g id="ytick_6">
     <g id="line2d_12">
      <g>
       <use xlink:href="#m868e171c63" x="57.78" y="101.456701" style="stroke: #000000; stroke-width: 0.8"/>
      </g>
     </g>
     <g id="text_13">
      <!-- 0.5 -->
      <g transform="translate(36.900312 105.436389) scale(0.1 -0.1)">
       <defs>
        <path id="NotoSansCJKjp-Regular-35" d="M 1677 -83 
C 2464 -83 3213 499 3213 1523 
C 3213 2560 2573 3021 1798 3021 
C 1517 3021 1306 2950 1094 2835 
L 1216 4192 
L 2982 4192 
L 2982 4691 
L 704 4691 
L 550 2502 
L 864 2304 
C 1133 2483 1331 2579 1645 2579 
C 2234 2579 2618 2182 2618 1510 
C 2618 826 2176 403 1619 403 
C 1075 403 730 653 467 922 
L 173 538 
C 493 224 941 -83 1677 -83 
z
" transform="scale(0.015625)"/>
       </defs>
       <use xlink:href="#NotoSansCJKjp-Regular-30"/>
       <use xlink:href="#NotoSansCJKjp-Regular-2e" x="55.499985"/>
       <use xlink:href="#NotoSansCJKjp-Regular-35" x="83.299973"/>
      </g>
     </g>
    </g>
    <g id="ytick_7">
     <g id="line2d_13">
      <g>
       <use xlink:href="#m868e171c63" x="57.78" y="67.664522" style="stroke: #000000; stroke-width: 0.8"/>
      </g>
     </g>
     <g id="text_14">
      <!-- 0.6 -->
      <g transform="translate(36.900312 71.644209) scale(0.1 -0.1)">
       <use xlink:href="#NotoSansCJKjp-Regular-30"/>
       <use xlink:href="#NotoSansCJKjp-Regular-2e" x="55.499985"/>
       <use xlink:href="#NotoSansCJKjp-Regular-36" x="83.299973"/>
      </g>
     </g>
    </g>
    <g id="text_15">
     <!-- 頻度 -->
     <g transform="translate(30.609687 163.4392) rotate(-90) scale(0.1 -0.1)">
      <defs>
       <path id="NotoSansCJKjp-Regular-983b" d="M 826 2752 
C 704 2298 493 1830 230 1523 
C 333 1472 525 1370 608 1299 
C 864 1638 1107 2157 1248 2656 
L 826 2752 
z
M 3821 2688 
L 5523 2688 
L 5523 2067 
L 3821 2067 
L 3821 2688 
z
M 3821 1709 
L 5523 1709 
L 5523 1082 
L 3821 1082 
L 3821 1709 
z
M 3821 3667 
L 5523 3667 
L 5523 3053 
L 3821 3053 
L 3821 3667 
z
M 3974 595 
C 3725 314 3206 -26 2746 -211 
C 2848 -301 2995 -435 3072 -525 
C 3526 -333 4070 19 4390 346 
L 3974 595 
z
M 4870 326 
C 5222 77 5658 -288 5869 -518 
L 6246 -256 
C 6022 -19 5581 326 5229 563 
L 4870 326 
z
M 717 4870 
L 717 3450 
L 262 3450 
L 262 3014 
L 1638 3014 
L 1638 1472 
C 1638 1408 1619 1395 1562 1395 
C 1498 1382 1306 1389 1088 1395 
C 1139 1280 1190 1120 1203 998 
C 1530 998 1741 1005 1888 1069 
C 2035 1133 2067 1248 2067 1466 
L 2067 3014 
L 3251 3014 
L 3251 3450 
L 2067 3450 
L 2067 4160 
L 3085 4160 
L 3085 4576 
L 2067 4576 
L 2067 5344 
L 1638 5344 
L 1638 3450 
L 1114 3450 
L 1114 4870 
L 717 4870 
z
M 2419 2643 
C 2611 2336 2790 1939 2874 1658 
L 2592 1747 
C 2253 774 1498 160 339 -147 
C 442 -250 563 -410 608 -538 
C 1843 -154 2637 531 3008 1619 
L 2982 1626 
L 3290 1747 
C 3206 2022 2995 2451 2790 2771 
L 2419 2643 
z
M 3398 4045 
L 3398 704 
L 5958 704 
L 5958 4045 
L 4723 4045 
L 4902 4659 
L 6106 4659 
L 6106 5075 
L 3194 5075 
L 3194 4659 
L 4403 4659 
C 4371 4461 4326 4237 4282 4045 
L 3398 4045 
z
" transform="scale(0.015625)"/>
       <path id="NotoSansCJKjp-Regular-5ea6" d="M 2470 4141 
L 2470 3584 
L 1440 3584 
L 1440 3187 
L 2470 3187 
L 2470 2125 
L 4960 2125 
L 4960 3187 
L 5997 3187 
L 5997 3584 
L 4960 3584 
L 4960 4141 
L 4486 4141 
L 4486 3584 
L 2931 3584 
L 2931 4141 
L 2470 4141 
z
M 4486 3187 
L 4486 2509 
L 2931 2509 
L 2931 3187 
L 4486 3187 
z
M 4851 1318 
C 4582 986 4211 717 3770 506 
C 3334 723 2970 992 2720 1318 
L 4851 1318 
z
M 1530 1715 
L 1530 1318 
L 2502 1318 
L 2259 1222 
C 2515 858 2861 550 3270 301 
C 2662 90 1978 -38 1280 -109 
C 1357 -211 1453 -397 1485 -512 
C 2291 -416 3072 -243 3757 45 
C 4365 -237 5088 -422 5869 -525 
C 5933 -403 6048 -211 6150 -109 
C 5466 -38 4819 96 4269 294 
C 4813 608 5261 1024 5549 1574 
L 5248 1734 
L 5165 1715 
L 1530 1715 
z
M 774 4742 
L 774 2893 
C 774 1965 730 659 198 -256 
C 314 -307 512 -435 595 -518 
C 1152 448 1235 1901 1235 2893 
L 1235 4307 
L 6035 4307 
L 6035 4742 
L 3635 4742 
L 3635 5376 
L 3142 5376 
L 3142 4742 
L 774 4742 
z
" transform="scale(0.015625)"/>
      </defs>
      <use xlink:href="#NotoSansCJKjp-Regular-983b"/>
      <use xlink:href="#NotoSansCJKjp-Regular-5ea6" x="99.999985"/>
     </g>
    </g>
   </g>
   <g id="patch_203">
    <path d="M 57.78 270.4176 
L 57.78 36.4608 
" style="fill: none; stroke: #000000; stroke-width: 0.8; stroke-linejoin: miter; stroke-linecap: square"/>
   </g>
   <g id="patch_204">
    <path d="M 416.016 270.4176 
L 416.016 36.4608 
" style="fill: none; stroke: #000000; stroke-width: 0.8; stroke-linejoin: miter; stroke-linecap: square"/>
   </g>
   <g id="patch_205">
    <path d="M 57.78 270.4176 
L 416.016 270.4176 
" style="fill: none; stroke: #000000; stroke-width: 0.8; stroke-linejoin: miter; stroke-linecap: square"/>
   </g>
   <g id="patch_206">
    <path d="M 57.78 36.4608 
L 416.016 36.4608 
" style="fill: none; stroke: #000000; stroke-width: 0.8; stroke-linejoin: miter; stroke-linecap: square"/>
   </g>
   <g id="legend_1">
    <g id="patch_207">
     <path d="M 300.073813 75.0608 
L 409.016 75.0608 
Q 411.016 75.0608 411.016 73.0608 
L 411.016 43.4608 
Q 411.016 41.4608 409.016 41.4608 
L 300.073813 41.4608 
Q 298.073813 41.4608 298.073813 43.4608 
L 298.073813 73.0608 
Q 298.073813 75.0608 300.073813 75.0608 
z
" style="fill: #ffffff; opacity: 0.8; stroke: #cccccc; stroke-linejoin: miter"/>
    </g>
    <g id="patch_208">
     <path d="M 302.073813 53.420175 
L 322.073813 53.420175 
L 322.073813 46.420175 
L 302.073813 46.420175 
z
" style="fill: #1f77b4; opacity: 0.5"/>
    </g>
    <g id="text_16">
     <!-- ATMOM-21kByte -->
     <g transform="translate(330.073813 53.420175) scale(0.1 -0.1)">
      <defs>
       <path id="NotoSansCJKjp-Regular-41" d="M 26 0 
L 621 0 
L 1075 1434 
L 2790 1434 
L 3238 0 
L 3866 0 
L 2272 4691 
L 1613 4691 
L 26 0 
z
M 1222 1901 
L 1453 2624 
C 1619 3155 1773 3661 1920 4211 
L 1946 4211 
C 2099 3667 2246 3155 2419 2624 
L 2643 1901 
L 1222 1901 
z
" transform="scale(0.015625)"/>
       <path id="NotoSansCJKjp-Regular-54" d="M 1619 0 
L 2214 0 
L 2214 4192 
L 3635 4192 
L 3635 4691 
L 198 4691 
L 198 4192 
L 1619 4192 
L 1619 0 
z
" transform="scale(0.015625)"/>
       <path id="NotoSansCJKjp-Regular-4d" d="M 646 0 
L 1178 0 
L 1178 2598 
C 1178 3002 1139 3571 1101 3981 
L 1126 3981 
L 1504 2912 
L 2394 474 
L 2790 474 
L 3674 2912 
L 4051 3981 
L 4077 3981 
C 4045 3571 4000 3002 4000 2598 
L 4000 0 
L 4550 0 
L 4550 4691 
L 3840 4691 
L 2944 2182 
C 2835 1862 2739 1530 2618 1203 
L 2592 1203 
C 2477 1530 2374 1862 2253 2182 
L 1357 4691 
L 646 4691 
L 646 0 
z
" transform="scale(0.015625)"/>
       <path id="NotoSansCJKjp-Regular-4f" d="M 2374 -83 
C 3552 -83 4378 858 4378 2362 
C 4378 3866 3552 4774 2374 4774 
C 1197 4774 371 3866 371 2362 
C 371 858 1197 -83 2374 -83 
z
M 2374 435 
C 1530 435 979 1190 979 2362 
C 979 3533 1530 4256 2374 4256 
C 3219 4256 3770 3533 3770 2362 
C 3770 1190 3219 435 2374 435 
z
" transform="scale(0.015625)"/>
       <path id="NotoSansCJKjp-Regular-2d" d="M 294 1568 
L 1933 1568 
L 1933 2016 
L 294 2016 
L 294 1568 
z
" transform="scale(0.015625)"/>
       <path id="NotoSansCJKjp-Regular-6b" d="M 589 0 
L 1165 0 
L 1165 915 
L 1818 1677 
L 2835 0 
L 3469 0 
L 2157 2074 
L 3315 3475 
L 2662 3475 
L 1190 1645 
L 1165 1645 
L 1165 5094 
L 589 5094 
L 589 0 
z
" transform="scale(0.015625)"/>
       <path id="NotoSansCJKjp-Regular-42" d="M 646 0 
L 2138 0 
C 3187 0 3917 454 3917 1376 
C 3917 2016 3520 2387 2963 2496 
L 2963 2528 
C 3405 2669 3648 3078 3648 3546 
C 3648 4371 2982 4691 2035 4691 
L 646 4691 
L 646 0 
z
M 1235 2701 
L 1235 4224 
L 1958 4224 
C 2694 4224 3066 4019 3066 3469 
C 3066 2989 2739 2701 1933 2701 
L 1235 2701 
z
M 1235 474 
L 1235 2240 
L 2054 2240 
C 2880 2240 3334 1978 3334 1395 
C 3334 762 2861 474 2054 474 
L 1235 474 
z
" transform="scale(0.015625)"/>
       <path id="NotoSansCJKjp-Regular-79" d="M 646 -1498 
C 1338 -1498 1702 -973 1946 -294 
L 3251 3475 
L 2682 3475 
L 2054 1549 
C 1965 1235 1862 883 1773 563 
L 1741 563 
C 1619 890 1504 1242 1395 1549 
L 691 3475 
L 83 3475 
L 1478 -6 
L 1402 -269 
C 1254 -698 1011 -1018 621 -1018 
C 525 -1018 422 -986 352 -960 
L 237 -1427 
C 346 -1472 486 -1498 646 -1498 
z
" transform="scale(0.015625)"/>
       <path id="NotoSansCJKjp-Regular-74" d="M 1677 -83 
C 1894 -83 2125 -19 2323 45 
L 2208 486 
C 2093 435 1939 390 1811 390 
C 1408 390 1274 634 1274 1056 
L 1274 3002 
L 2221 3002 
L 2221 3475 
L 1274 3475 
L 1274 4454 
L 787 4454 
L 723 3475 
L 173 3443 
L 173 3002 
L 691 3002 
L 691 1075 
C 691 378 941 -83 1677 -83 
z
" transform="scale(0.015625)"/>
       <path id="NotoSansCJKjp-Regular-65" d="M 1997 -83 
C 2464 -83 2835 70 3136 269 
L 2931 659 
C 2669 486 2400 384 2061 384 
C 1402 384 947 858 909 1600 
L 3251 1600 
C 3264 1690 3277 1805 3277 1933 
C 3277 2925 2778 3565 1888 3565 
C 1094 3565 333 2867 333 1734 
C 333 589 1069 -83 1997 -83 
z
M 902 2016 
C 973 2707 1408 3098 1901 3098 
C 2445 3098 2765 2720 2765 2016 
L 902 2016 
z
" transform="scale(0.015625)"/>
      </defs>
      <use xlink:href="#NotoSansCJKjp-Regular-41"/>
      <use xlink:href="#NotoSansCJKjp-Regular-54" x="60.799988"/>
      <use xlink:href="#NotoSansCJKjp-Regular-4d" x="120.699982"/>
      <use xlink:href="#NotoSansCJKjp-Regular-4f" x="201.899963"/>
      <use xlink:href="#NotoSansCJKjp-Regular-4d" x="276.099945"/>
      <use xlink:href="#NotoSansCJKjp-Regular-2d" x="357.299927"/>
      <use xlink:href="#NotoSansCJKjp-Regular-32" x="391.999924"/>
      <use xlink:href="#NotoSansCJKjp-Regular-31" x="447.499908"/>
      <use xlink:href="#NotoSansCJKjp-Regular-6b" x="502.999893"/>
      <use xlink:href="#NotoSansCJKjp-Regular-42" x="558.19989"/>
      <use xlink:href="#NotoSansCJKjp-Regular-79" x="623.899887"/>
      <use xlink:href="#NotoSansCJKjp-Regular-74" x="675.999878"/>
      <use xlink:href="#NotoSansCJKjp-Regular-65" x="713.699875"/>
     </g>
    </g>
    <g id="patch_209">
     <path d="M 302.073813 68.720175 
L 322.073813 68.720175 
L 322.073813 61.720175 
L 302.073813 61.720175 
z
" style="fill: #ff7f0e; opacity: 0.5"/>
    </g>
    <g id="text_17">
     <!-- ATMOM-927Byte -->
     <g transform="translate(330.073813 68.720175) scale(0.1 -0.1)">
      <defs>
       <path id="NotoSansCJKjp-Regular-39" d="M 1504 -83 
C 2381 -83 3206 646 3206 2547 
C 3206 4038 2528 4774 1626 4774 
C 896 4774 282 4166 282 3251 
C 282 2285 794 1779 1574 1779 
C 1965 1779 2368 2003 2656 2349 
C 2611 896 2086 403 1485 403 
C 1178 403 896 538 691 762 
L 371 397 
C 634 122 992 -83 1504 -83 
z
M 2650 2842 
C 2336 2394 1984 2214 1670 2214 
C 1114 2214 832 2624 832 3251 
C 832 3898 1178 4320 1632 4320 
C 2227 4320 2586 3808 2650 2842 
z
" transform="scale(0.015625)"/>
       <path id="NotoSansCJKjp-Regular-37" d="M 1267 0 
L 1875 0 
C 1952 1837 2150 2931 3251 4339 
L 3251 4691 
L 314 4691 
L 314 4192 
L 2592 4192 
C 1670 2912 1350 1779 1267 0 
z
" transform="scale(0.015625)"/>
      </defs>
      <use xlink:href="#NotoSansCJKjp-Regular-41"/>
      <use xlink:href="#NotoSansCJKjp-Regular-54" x="60.799988"/>
      <use xlink:href="#NotoSansCJKjp-Regular-4d" x="120.699982"/>
      <use xlink:href="#NotoSansCJKjp-Regular-4f" x="201.899963"/>
      <use xlink:href="#NotoSansCJKjp-Regular-4d" x="276.099945"/>
      <use xlink:href="#NotoSansCJKjp-Regular-2d" x="357.299927"/>
      <use xlink:href="#NotoSansCJKjp-Regular-39" x="391.999924"/>
      <use xlink:href="#NotoSansCJKjp-Regular-32" x="447.499908"/>
      <use xlink:href="#NotoSansCJKjp-Regular-37" x="502.999893"/>
      <use xlink:href="#NotoSansCJKjp-Regular-42" x="558.499878"/>
      <use xlink:href="#NotoSansCJKjp-Regular-79" x="624.199875"/>
      <use xlink:href="#NotoSansCJKjp-Regular-74" x="676.299866"/>
      <use xlink:href="#NotoSansCJKjp-Regular-65" x="713.999863"/>
     </g>
    </g>
   </g>
  </g>
 </g>
 <defs>
  <clipPath id="p60e1be1e36">
   <rect x="57.78" y="36.4608" width="358.236" height="233.9568"/>
  </clipPath>
 </defs>
</svg>
