<?xml version="1.0" encoding="UTF-8" standalone="no"?>
<!-- Created with Inkscape (http://www.inkscape.org/) -->

<svg
   id="SVGRoot"
   width="600px"
   height="800px"
   version="1.1"
   viewBox="0 0 600 800"
   sodipodi:docname="plant-fairy.svg"
   inkscape:version="1.2.1 (2ed6d7ae0b, 2022-08-22, custom)"
   xml:space="preserve"
   xmlns:inkscape="http://www.inkscape.org/namespaces/inkscape"
   xmlns:sodipodi="http://sodipodi.sourceforge.net/DTD/sodipodi-0.dtd"
   xmlns:xlink="http://www.w3.org/1999/xlink"
   xmlns="http://www.w3.org/2000/svg"
   xmlns:svg="http://www.w3.org/2000/svg"><defs
     id="defs29359"><linearGradient
       inkscape:collect="always"
       xlink:href="#linearGradient15438"
       id="linearGradient14706"
       x1="25.969467"
       y1="94.817719"
       x2="110.55305"
       y2="244.59232"
       gradientUnits="userSpaceOnUse"
       gradientTransform="matrix(1.0967413,0.3881839,-0.3881839,1.0967413,101.92235,-158.63086)" /><linearGradient
       inkscape:collect="always"
       id="linearGradient15438"><stop
         style="stop-color:#c9f2c9;stop-opacity:1;"
         offset="0"
         id="stop15434" /><stop
         style="stop-color:#78d56b;stop-opacity:1;"
         offset="1"
         id="stop15436" /></linearGradient><radialGradient
       inkscape:collect="always"
       xlink:href="#linearGradient13970"
       id="radialGradient13964"
       cx="146.70166"
       cy="251.60387"
       fx="146.70166"
       fy="251.60387"
       r="101.56033"
       gradientTransform="matrix(1.2955457,-0.15954868,0.06895427,0.55991326,-67.178411,87.552635)"
       gradientUnits="userSpaceOnUse" /><linearGradient
       inkscape:collect="always"
       id="linearGradient13970"><stop
         style="stop-color:#e8f9e8;stop-opacity:1;"
         offset="0"
         id="stop13968" /><stop
         style="stop-color:#9cde92;stop-opacity:1;"
         offset="1"
         id="stop13966" /></linearGradient><linearGradient
       inkscape:collect="always"
       xlink:href="#linearGradient11943"
       id="linearGradient11945"
       x1="220.61021"
       y1="444.02814"
       x2="166.09006"
       y2="338.58221"
       gradientUnits="userSpaceOnUse"
       gradientTransform="matrix(1.0967413,0.3881839,-0.3881839,1.0967413,101.92235,-158.63086)" /><linearGradient
       inkscape:collect="always"
       id="linearGradient11943"><stop
         style="stop-color:#43b336;stop-opacity:1;"
         offset="0"
         id="stop11939" /><stop
         style="stop-color:#e8f9e8;stop-opacity:1;"
         offset="1"
         id="stop11941" /></linearGradient></defs><sodipodi:namedview
     id="namedview29357"
     pagecolor="#ffffff"
     bordercolor="#666666"
     borderopacity="1.0"
     inkscape:pageshadow="2"
     inkscape:pageopacity="0.0"
     inkscape:pagecheckerboard="0"
     showgrid="false"
     inkscape:zoom="0.5"
     inkscape:cx="-608"
     inkscape:cy="329"
     inkscape:window-width="1920"
     inkscape:window-height="935"
     inkscape:window-x="0"
     inkscape:window-y="0"
     inkscape:window-maximized="1"
     inkscape:current-layer="SVGRoot"
     inkscape:snap-global="false"
     inkscape:showpageshadow="2"
     inkscape:deskcolor="#d1d1d1" /><path
     id="path63890"
     style="fill:#b6c28e;fill-opacity:1;stroke:none;stroke-width:8.1931;stroke-dasharray:none;stroke-opacity:1;paint-order:stroke markers fill"
     d="M 246.30469 623.67188 C 246.30469 623.67187 46.334118 704.90626 113.88086 800 L 535.30273 800 C 603.94355 696.49586 491.70697 675.40028 455.29688 624.57031 L 246.30469 623.67188 z " /><path
     id="path48292"
     style="fill:#4f5830;fill-opacity:1;stroke:none;stroke-width:12.5131;stroke-dasharray:none;stroke-opacity:1;paint-order:stroke markers fill"
     d="M 297.07422 577.33203 L 220.57031 609.49023 C 220.57031 609.49023 113.33897 702.31398 98.982422 724.93164 C 77.289698 759.10692 100.15903 808.52104 115.48438 738.34961 L 386.18164 637.61328 L 498.99609 800 L 600 800 L 600 712.58594 L 493.88086 603.59375 L 444.61328 585.66406 L 297.07422 577.33203 z " /><path
     style="fill:#4f5830;fill-opacity:1;stroke:none;stroke-width:8.1931;stroke-dasharray:none;stroke-opacity:1;paint-order:stroke markers fill"
     d="m 257.49771,646.37982 -19.65167,-92.26766 231.65266,2.75027 -13.03686,70.51752 z"
     id="path53457"
     sodipodi:nodetypes="ccccc" /><path
     style="fill:#584530;fill-opacity:1;stroke:none;stroke-width:1.46016;stroke-dasharray:none;stroke-opacity:1;paint-order:stroke markers fill"
     d="m 415.31914,509.66265 c -0.48067,42.85605 17.43943,52.12053 17.43943,52.12053 -11.00321,25.57652 -15.89887,44.55885 -50.44367,52.45939 0,0 -54.05852,-13.60558 -79.80829,-39.09559 14.64838,-39.65275 -0.8108,-169.46044 -0.8108,-169.46044 z"
     id="path2838"
     sodipodi:nodetypes="cccccc" /><path
     style="fill:#6f9e46;fill-opacity:1;stroke:none;stroke-width:1.58704;stroke-dasharray:none;stroke-opacity:1;paint-order:stroke markers fill"
     d="m 396.97204,159.3567 79.72895,0.39264 -6.02063,21.78275 43.07432,1.3863 0.94499,9.41882 17.87421,8.35052 0.90826,49.32778 50.19277,21.60431 -8.76391,27.05753 18.96954,32.92512 -30.49953,39.9414 -1.60841,31.93782 -26.36416,20.94331 0.20371,36.73028 -38.448,24.11147 -24.28105,15.47856 -194.73664,25.06077 -58.64554,13.75512 -17.67137,-44.09267 -40.67809,-20.82863 -4.11971,-28.4811 -18.12017,-11.83122 12.18995,-43.15685 -38.93466,-43.51448 29.41938,-32.84115 -6.11235,-28.08917 42.70185,-26.16022 0.69354,-45.35944 41.47145,-5.91174 35.27194,-56.63217 78.43452,14.74701 26.77397,-23.12623 z"
     id="path2830" /><path
     style="fill:#886a49;fill-opacity:1;stroke:none;stroke-width:1.58704;stroke-dasharray:none;stroke-opacity:1;paint-order:stroke markers fill"
     d="m 235.25954,420.74768 c 0,0 -111.0922,-40.66418 -119.41189,-28.99618 0.74234,24.91174 100.70954,75.65698 119.65265,94.20123 l 35.80837,9.69279 z"
     id="path1366"
     sodipodi:nodetypes="ccccc" /><path
     style="fill:#886a49;fill-opacity:1;stroke:none;stroke-width:1.58704;stroke-dasharray:none;stroke-opacity:1;paint-order:stroke markers fill"
     d="m 498.89463,399.77606 c -3.38859,70.21258 -8.05367,82.25208 -14.55268,115.00543 -21.57142,83.58534 -181.85442,71.2652 -207.33084,16.03644 -13.51031,-36.42058 -60.39072,-117.97431 -60.39072,-117.97431 0,0 -85.35404,-212.55945 145.76573,-213.4047 231.11978,-0.84523 125.88487,139.62162 136.50851,200.33714 z"
     id="path596"
     sodipodi:nodetypes="cccczc" /><path
     style="fill:#5c473c;fill-opacity:1;stroke:none;stroke-width:1.58704;stroke-dasharray:none;stroke-opacity:1;paint-order:stroke markers fill"
     d="m 366.21995,523.24591 c 0,0 31.45165,-2.10015 39.95187,-2.41898 8.50021,-0.31883 30.79314,-1.97748 30.79314,-1.97748 0,0 -18.28194,26.97792 -30.87724,28.20086 -12.59527,1.22293 -39.86777,-23.8044 -39.86777,-23.8044 z"
     id="path1372"
     sodipodi:nodetypes="czczc" /><path
     style="fill:#494949;fill-opacity:0.547929;stroke:none;stroke-width:1.58704;stroke-dasharray:none;stroke-opacity:0.689937;paint-order:stroke markers fill"
     d="m 403.59163,481.06429 15.00383,4.54791 11.41283,-6.58621 c 0,0 -2.21955,15.6062 -14.27148,15.14057 -12.05192,-0.46563 -12.14519,-13.10227 -12.14518,-13.10227 z"
     id="path2834"
     sodipodi:nodetypes="ccczc" /><path
     style="fill:#ab8862;fill-opacity:1;stroke:none;stroke-width:11.9378;stroke-dasharray:none;stroke-opacity:1;paint-order:stroke markers fill"
     d="m 357.73229,341.85075 c -0.67675,3.65909 -19.70837,64.19324 -19.70837,64.19324 l 3.16633,60.82739 -23.76642,60.07719 2.66673,28.6729 -23.22761,-11.65752 -0.8163,-21.50633 24.01218,-44.2378 9.7084,-71.88963 8.69898,-68.32039 z"
     id="path40942" /><path
     style="fill:#ab8862;fill-opacity:1;stroke:none;stroke-width:11.9378;stroke-dasharray:none;stroke-opacity:1;paint-order:stroke markers fill"
     d="m 437.21002,341.15473 1.64099,43.54044 -4.89943,56.75827 9.89024,49.27634 -9.4609,54.15671 1.78568,15.14185 14.87046,-21.39506 -3.14803,-37.39604 5.40192,-31.93687 -9.15725,-38.37878 5.2338,-52.9214 -5.88256,-55.22148 z"
     id="path40944" /><path
     style="fill:#ab8862;fill-opacity:1;stroke:none;stroke-width:11.9378;stroke-dasharray:none;stroke-opacity:1;paint-order:stroke markers fill"
     d="m 476.52038,354.1282 3.73542,45.11734 -10.81637,45.90684 4.61082,52.73052 13.73921,-36.83794 -7.43098,-31.50637 10.89198,-33.25103 -5.9209,-60.17026 z"
     id="path40946" /><path
     style="fill:#886a49;fill-opacity:1;stroke:none;stroke-width:1.58704;stroke-dasharray:none;stroke-opacity:1;paint-order:stroke markers fill"
     d="m 495.49349,412.68752 51.02055,-25.0911 c 1.59031,20.8513 -46.7583,74.63212 -54.87964,90.49397 l -17.15224,6.45593 z"
     id="path1368"
     sodipodi:nodetypes="ccccc" /><path
     style="fill:#604e3d;fill-opacity:1;stroke:none;stroke-width:1.58704;stroke-dasharray:none;stroke-opacity:1;paint-order:stroke markers fill"
     d="m 427.7991,381.51231 c 0.16994,-3.70624 38.57698,-7.06027 44.2909,-5.94342 8.94731,1.66085 25.95386,12.56655 25.95386,12.56655 0,0 -17.51438,-4.64148 -28.60428,-5.74877 -10.78369,-1.18972 -41.64048,-0.87436 -41.64048,-0.87436 z"
     id="path1362"
     sodipodi:nodetypes="ccccc" /><path
     style="fill:#604e3d;fill-opacity:1;stroke:none;stroke-width:1.58704;stroke-dasharray:none;stroke-opacity:1;paint-order:stroke markers fill"
     d="m 371.51646,381.71023 c -0.41383,-4.4908 -35.35945,-10.84246 -42.21829,-9.32047 0,0 -41.55747,9.36305 -56.19276,19.35136 0,0 49.69335,-9.36541 59.56591,-10.7929 8.2212,-0.70213 39.39138,1.66205 38.84514,0.76201 z"
     id="path1364"
     sodipodi:nodetypes="ccccc" /><path
     style="fill:#6f9e46;fill-opacity:1;stroke:none;stroke-width:1.58704;stroke-dasharray:none;stroke-opacity:1;paint-order:stroke markers fill"
     d="m 188.90927,362.91419 c 0,0 56.84371,73.23962 61.8909,59.5595 5.04723,-13.68003 19.18049,-75.56252 19.18049,-75.56252 l 42.02361,23.22401 23.55622,-29.83763 25.04357,19.51871 8.96827,-12.20993 22.48729,47.82415 32.3145,-57.2792 17.36236,16.04433 12.8935,-18.1706 18.09497,14.2056 25.21695,-7.07218 19.07639,23.26237 17.31426,-100.1583 -37.02899,-65.24586 -193.37233,-14.42386 -95.94425,41.98347 -35.33813,125.19128 49.93297,99.90598 z"
     id="path2832" /><path
     style="fill:url(#linearGradient14706);fill-opacity:1;stroke:none;stroke-width:0.981676;stroke-dasharray:none;stroke-opacity:1;paint-order:stroke markers fill"
     d="M 196.37697,48.938901 C 218.15982,83.355867 264.22611,194.4412 264.22611,194.4412 l 29.86087,26.54295 C 194.56686,302.24338 110.16209,279.7506 0.22249132,250.57756 L 23.471905,225.75654 c 0,0 16.545056,-82.47897 18.220381,-150.926402 C 68.395888,31.107683 124.43011,2.9139926 196.37697,48.938901 Z"
     id="path4308"
     sodipodi:nodetypes="ccccccc" /><path
     style="fill:url(#radialGradient13964);fill-opacity:1;stroke:none;stroke-width:0.852781;stroke-dasharray:none;stroke-opacity:0.689937;paint-order:stroke markers fill"
     d="M 149.54036,269.60017 C 114.60192,267.18406 19.527446,248.2062 19.527446,248.2062 c 0,0 78.849763,-56.85273 106.071304,-59.01853 40.86954,0.15448 154.93329,29.84426 154.93329,29.84426 0,0 -74.87884,47.01268 -130.99168,50.56824 z"
     id="path13159"
     sodipodi:nodetypes="ccccc" /><path
     id="path2836"
     style="fill:url(#linearGradient11945);fill-opacity:1;stroke:none;stroke-width:0.981676;stroke-dasharray:none;stroke-opacity:1;paint-order:stroke markers fill"
     d="M 136.74609 202.95508 C 134.5095 202.71833 132.83783 205.57695 129.24609 214.92578 C 177.74486 380.94888 162.99145 662.21838 144.78711 800 L 190.8418 800 C 203.59242 641.08869 188.96473 291.71014 153.44922 212.00391 C 143.42998 208.68095 139.62171 203.25946 136.74609 202.95508 z " /><path
     style="fill:#886a49;fill-opacity:1;stroke:none;stroke-width:10.6825;stroke-dasharray:none;stroke-opacity:1;paint-order:stroke markers fill"
     d="m 136.46683,702.46467 32.66371,-8.93796 c 13.55138,1.12744 10.85693,20.69706 3.14839,20.69706 l -21.87286,7.2996 22.89,-3.23874 c 13.22183,-0.96638 10.41168,22.54647 1.55453,21.26174 l -22.09752,4.84385 22.3647,-0.0784 c 13.82942,1.20169 10.72928,23.30106 2.67187,23.30106 l -25.01837,-0.0569 19.72018,1.7475 c 14.10638,4.83193 9.34025,26.33371 -3.73453,26.14119 l -27.03442,-8.5595 -10.8089,-19.98049 3.21838,-17.50339 -0.24289,-26.50064 z"
     id="path63946"
     sodipodi:nodetypes="ccccccccccccccccc" /><path
     style="fill:#886a49;fill-opacity:1;stroke:none;stroke-width:6.347;stroke-dasharray:none;stroke-opacity:1;paint-order:stroke markers fill"
     d="m 174.47859,705.51027 c 2.54808,0.91979 22.10538,1.23467 22.10538,1.23467 22.04247,14.65084 7.55628,31.20845 -1.09657,32.07254 0,0 -7.92319,-4.25092 -21.07786,-6.38743 -13.6049,-4.05067 -25.08572,-20.45086 0.0691,-26.91978 z"
     id="path71647"
     sodipodi:nodetypes="ccccc" /><ellipse
     style="fill:#241c1c;stroke-width:6.347;paint-order:stroke markers fill"
     id="path380"
     cx="461.79321"
     cy="435.05573"
     rx="13.396359"
     ry="21.986601" /><ellipse
     style="fill:#241c1c;stroke-width:6.347;paint-order:stroke markers fill"
     id="path380-3"
     cx="347.46289"
     cy="436.75171"
     rx="13.396359"
     ry="21.986601" /><path
     style="fill:#008000;stroke-width:6.347;paint-order:stroke markers fill"
     d="m 388.80236,342.92753 c 0,0 -3.25247,-58.0834 -10.68875,-84.66535 -7.43627,-26.58195 -46.57405,-119.73589 -72.62375,-150.4909 28.18483,8.9949 125.45552,96.86761 126.64062,141.57031 1.1851,44.7027 -43.32812,93.58594 -43.32812,93.58594 z"
     id="path567"
     sodipodi:nodetypes="czczc" /><path
     style="fill:#006100;stroke-width:6.347;paint-order:stroke markers fill;fill-opacity:1"
     d="m 374.26961,339.50647 c 0,0 3.57139,-29.06854 -11.40414,-57.00117 -14.97553,-27.93264 -53.25211,-81.46758 -53.25211,-81.46758 22.7821,3.84213 70.78344,47.63882 81.90717,69.49508 11.12372,21.85627 -17.25092,68.97367 -17.25092,68.97367 z"
     id="path567-6"
     sodipodi:nodetypes="czczc" /></svg>
