<?xml version="1.0" encoding="UTF-8"?>
<!-- Created with Inkscape (http://www.inkscape.org/) -->
<svg id="SVGRoot" width="600px" height="800px" version="1.1" viewBox="0 0 600 800" xmlns="http://www.w3.org/2000/svg">
 <path d="m250 270-33.8 148 135 138 58.3-120-16.7-35.5z" fill="#deaa87"/>
 <path d="m218 416-205 134v69.6l-11.3 16.9 10.3 15-12 34.5v114h491l14.6-81.6 52.5 81.6h41.4v-193l-12.1-6.58-45.2-86-48.2-8.63-98.2-64.7-18.9 69.4-51 2.37-109-96.8z" fill="#999"/>
 <path d="m384 520-65.5 5.16 31 55.3-17.2 220h113l-60.5-220-0.396-59.9z" fill="#a05a2c"/>
 <path d="m515 615 3.91 106 54.4 84.2 26.8-2.08v-66.7l-85.1-122z" fill="#666" fill-opacity=".43"/>
 <path d="m168 650-53.6 150h158v-18.1l-105-132z" fill="#666" fill-opacity=".43"/>
 <path d="m222 395 119 120s-66.1 82.9-69.9 74.2-72.9-157-72.9-157z" fill="#e8e8e8"/>
 <path d="m395 405-41.2 110 65.1 67.7-1.85-137z" fill="#e8e8e8"/>
 <path d="m450 266 35.9-65.3-8.18-101-45.5-47.9-8.76-30.9-66.1 8.05-68.9-10.5-42.7 34.1-51.1 11.8-22.5 90.3 4.1 83.2 22.2 54.7 43 12.1z" fill="#c87137"/>
 <path d="m456 158 8.52 75.6c-9.81 14.4 1.46 36.5-5.47 49.6-3.92 2.26-14.3 59.7-17.8 70.6-0.941 39.4-17.6 64.3-32.8 63.7 0 0-88.2-11.8-118-31.9l-37.6-70c-64.5-26.5-33.7-83.5-5.68-90.3 0 0-28.9-179 95-163 124 16.1 114 95.9 114 95.9z" fill="#fca"/>
 <path d="m361 232s21-10.8 43.2 3.86l-1.17 21.2 10.2 16.1 2 24.9 11.1 16-16.9 6.54-6.27-10.1-13.9 5.85-5.55-15.8 8.61-9.44-5.07-30-19.1 0.423c-22.2-18.6-44-6.54-51.2 8.38-0.686 12.3 45.1 27.2 47.9 67.1l8.24 46.3s34.7 19.4 29.1 26.4c-35.2 1.41-106-31.5-106-31.5l-43.7-63.8c-30.6 1.78-76.3-63.2-6.02-89.6 0.573-22.5 0.18-65.4 0.18-65.4l95.3 0.863c-9.49 59.6 7.69 73.4 7.69 73.4z" fill="#666" fill-opacity=".43"/>
 <path d="m247 228 93.6 5.21 58.5 3.79 26.6-0.491 47.2 1.68-7.14 45.8-34.8-0.686-11.6-39.4h-16.5l-2.03 42.8-52.8-1.16-5.49-41.5-97.1-6.9z" fill="#917c6f" fill-opacity=".553"/>
 <path d="m428 350-35-1.62-4.06 10.8-10.9-0.241-5.12-12.5s10.4-11.5 22.2-12c3.43 7.57 32.9 15.6 32.9 15.6z" fill="#666" fill-opacity=".43"/>
 <path d="m464 174-36.9-19.6-66.4 9.69-46.1-1.49s-34.4 34.4-34.7 31.3 0.0509 74.7-2.61 70.6c-2.66-4.16-29.1-23.4-29.1-23.4l-15.5-36.5-0.737-142 174-18 62.8 69.3z" fill="#c87137"/>
</svg>
