<?xml version="1.0" encoding="UTF-8" standalone="no"?>
<svg
   width="600"
   height="800"
   version="1.1"
   viewBox="0 0 159 212"
   id="svg70"
   sodipodi:docname="sleepy.svg"
   inkscape:version="1.1.2 (1:1.1+202202050942+0a00cf5339)"
   xmlns:inkscape="http://www.inkscape.org/namespaces/inkscape"
   xmlns:sodipodi="http://sodipodi.sourceforge.net/DTD/sodipodi-0.dtd"
   xmlns="http://www.w3.org/2000/svg"
   xmlns:svg="http://www.w3.org/2000/svg"
   xmlns:rdf="http://www.w3.org/1999/02/22-rdf-syntax-ns#"
   xmlns:cc="http://creativecommons.org/ns#"
   xmlns:dc="http://purl.org/dc/elements/1.1/">
  <defs
     id="defs74" />
  <sodipodi:namedview
     id="namedview72"
     pagecolor="#ffffff"
     bordercolor="#999999"
     borderopacity="1"
     inkscape:pageshadow="0"
     inkscape:pageopacity="0"
     inkscape:pagecheckerboard="0"
     showgrid="false"
     inkscape:snap-global="false"
     inkscape:zoom="0.449375"
     inkscape:cx="-728.78999"
     inkscape:cy="519.61057"
     inkscape:window-width="1920"
     inkscape:window-height="940"
     inkscape:window-x="0"
     inkscape:window-y="0"
     inkscape:window-maximized="1"
     inkscape:current-layer="svg70" />
  <metadata
     id="metadata2">
    <rdf:RDF>
      <cc:Work
         rdf:about="">
        <dc:format>image/svg+xml</dc:format>
        <dc:type
           rdf:resource="http://purl.org/dc/dcmitype/StillImage" />
      </cc:Work>
    </rdf:RDF>
  </metadata>
  <g
     transform="matrix(.999 0 0 .999 19.3 14.7)"
     fill="none"
     stroke-linecap="round"
     stroke-linejoin="round"
     id="g18">
    <circle
       r="0"
       stroke="#c53822"
       stroke-width="2.26"
       style="paint-order:stroke markers fill"
       id="circle4" />
    <g
       stroke="#924019"
       id="g12">
      <circle
         r="0"
         stroke-width="1.29"
         style="paint-order:stroke markers fill"
         id="circle6" />
      <circle
         transform="scale(1,-1)"
         r="0"
         stroke-width="3.6"
         style="paint-order:stroke markers fill"
         id="circle8" />
      <circle
         transform="scale(1,-1)"
         r="0"
         stroke-width="3.6"
         style="paint-order:stroke markers fill"
         id="circle10" />
    </g>
    <circle
       transform="scale(1,-1)"
       r="0"
       stroke="#4d4320"
       stroke-width="4.38"
       style="paint-order:stroke markers fill"
       id="circle14" />
    <circle
       transform="scale(1,-1)"
       r="0"
       stroke="#4d4320"
       stroke-width="3.52"
       style="paint-order:stroke markers fill"
       id="circle16" />
  </g>
  <path
     d="m90.4 100-3.34 10.6 71.7 84.2v-53.2l-68.3-41.5z"
     fill="#6fc835"
     fill-opacity=".361"
     stroke-width=".265"
     id="path20" />
  <path
     d="m98.2 129-0.595 9.11s40.4 55 53.2 73.3h6.24c1.93-8.71 3.44-24.8-2.09-35.2-9.74-12.8-56.9-47.3-56.9-47.3z"
     fill="#6fc835"
     fill-opacity=".361"
     stroke-width=".265"
     id="path22" />
  <path
     d="m69.3 11.8c-41.2-2.96-35.2 62.7-35.2 62.7-6.29 24.2-14.5 58.3-14.3 77.1 0.2 18.8 7 33.8 7 33.8l30.5-9.48 17.9 4.18 19.3-72.7 5.92-63.4 11.1-15.1s-0.366-23.7-42-17.1z"
     fill="#71c837"
     stroke-width=".999"
     id="path24" />
  <g
     stroke-width=".265"
     id="g32">
    <path
       d="m64.7 132-55.3 36.3c-4.28 2.29-7.3 12.3-9.34 22.7v20.4h1.38l63.2-68.8-0.197-10.8z"
       fill="#6fc835"
       fill-opacity=".361"
       id="path26" />
    <path
       d="m56.2 132-4.88 56.5s-20.8 10.2-22.6 19.7c-0.245 1.32-0.433 2.31-0.714 3.81h74.1l-1.12-2.61-4.18-18 3.94-18.6 14.4-22.6-2.46-13z"
       fill="#a8dc71"
       id="path28" />
    <path
       d="m63.5 110-63.5 40.2v43.7l65.1-71.7-1.63-12.2z"
       fill="#6fc835"
       fill-opacity=".361"
       id="path30" />
  </g>
  <path
     d="m 54.560987,161.59536 -4.33,3 -5.33,9.44 20.3,17 20,3.95 15.100003,-11.9 -0.0212,-8.33 -12.500003,3.58 -16.9,-6.98 z"
     fill="#598e24"
     stroke-width="0.999"
     id="path34" />
  <path
     d="m 71.5,85.2 c 0,0 0.623,11.9 -3.37,15.3 -3.99,3.44 -13.6,7.92 -13.6,7.92 -20.4,11.2 -18.467268,31.56873 -18.467268,31.56873 C 36.686433,146.46848 28.42,178.22 31.49,196.52 c 1.81,4.66 4.34,10.4 6.51,15.3 h 20.3 l -5.17,-20.3 c 0,0 1.741659,-43.49084 6.57,-48.2 l 25.9,-6.56 28,7.7 c 4.31,4.6 18.9,18.2 21.9,24.3 2.95,3.35 12,4.61 14.6,3.04 3.72,-4.45 1.84,-14.5 -3.04,-19.5 l -26.6,-30.8 c -0.108,-7.23 -11.9,-25.7 -27.8,-21.4 -0.54,-1.32 0.684,-4.74 0.684,-4.74 l -12.5,-5.85 z"
     fill="#f2c7b0"
     stroke-width="0.265"
     id="path36"
     sodipodi:nodetypes="ccccccccccccccccccc" />
  <path
     d="m 93.2,98 13.7,1.23 5.04,-0.947 -0.817,24.2 3.98,27.2 -20.5,2.26 -35.2,-7.05 -16,-35.2 5.69,-0.537 18.6,-10.8 4.86,13.9 20.4,5.5 5.44,-8.75 z"
     fill="#a8dc71"
     id="path38"
     style="stroke-width:0.999" />
  <path
     d="m 72,85.5 -1.26,7.85 4.75,9.5 c 0,0 12,-1.35 12.7,-1.69 0.67,-0.341 4.12,-5.05 4.12,-5.05 l -0.878,-7.14 z"
     fill="#b7a68d"
     id="path40"
     style="stroke-width:0.999;fill:#b7a68d;fill-opacity:0.747051" />
  <path
     d="m 104.48303,116.21518 12.3436,15.69473 19.56871,35.60148 -5.08338,-32.4481 c 0.078,-0.0772 -15.08697,-29.03453 -15.08697,-29.03453 l -11.36939,-2.21377 6.05707,11.65585 z"
     fill="#b7a68d"
     id="path40-3"
     style="fill:#b7a68d;fill-opacity:0.636844;stroke-width:0.999"
     sodipodi:nodetypes="cccccccc" />
  <path
     d="m 113,39.3 -0.77583,15.824546 c 0,0 1.04129,3.181094 1.10838,4.484038 l -0.29383,1.698587 C 116.93872,81.507171 102.223,100 98.123,100.6 c -4.09,0.606 -23.5,-9.41 -27.6,-11.2 0,0 -20.7,-11 -25.1,-21.4 -4.38,-10.4 -7.66,-47.9 27.8,-51.3 35.5,-3.38 39.6,22.7 39.6,22.7 z"
     fill="#f2c7b0"
     fill-opacity="0.996"
     id="path42"
     style="stroke-width:0.999"
     sodipodi:nodetypes="cccccccccc" />
  <path
     d="m 105,62.3 c 1.06,-2.65 6.17,-2.92 6.17,-2.92 l 3.73138,0.223356 c 0,0 -2.18138,1.447644 -2.80138,2.966644 -1.50499,-2.281254 -3.40549,-0.781076 -6.41,0.989 z"
     fill="#8e6224"
     id="path44"
     style="stroke-width:0.999"
     sodipodi:nodetypes="cccccc" />
  <path
     d="m 93,66.8 c -5.35,-1.72 -10.9,0.581 -15.1,4.67 -0.812,-2.38 -3.5,-2.3 -3.5,-2.3 l 3.34,-1.38 c 8.64,-4.22 11.9,-4.72 15.2,-2.36 z"
     fill="#8e6224"
     id="path46"
     style="stroke-width:0.999" />
  <path
     d="M 102.13693,84.205046 C 102.33593,88.535046 101.62,88.3 100.89,91.53 100.344,93 98.2,93.19 95.95,93.01 92.79,91.2 91.8,89.99 94.37,85.47 c 1.73,-1.92 3.71297,-1.761082 7.37297,-1.831082 0.28444,0.06332 0.39396,0.566128 0.39396,0.566128 z"
     fill="#c9766c"
     fill-opacity="0.706"
     stroke-width="1.27"
     id="path50"
     sodipodi:nodetypes="cccccc" />
  <path
     d="m 102.13693,84.205046 c 0.199,4.33 -0.98513,4.673 -0.73194,5.680366 -1.86248,-1.069516 -5.560221,-0.232364 -7.77826,1.537156 -1.070859,-1.948216 -0.683458,-3.024487 0.743271,-5.952568 1.730001,-1.92 3.71297,-1.761082 7.372969,-1.831082 0.28444,0.06332 0.39396,0.566128 0.39396,0.566128 z"
     fill="#c9766c"
     fill-opacity="0.706"
     stroke-width="1.27"
     id="path50-3"
     sodipodi:nodetypes="cccccc"
     style="fill:#bb5347;fill-opacity:0.70599997" />
  <path
     d="m101 75.4 2.59 1.7-2.05 3.63z"
     fill="#b7a68d"
     stroke-width=".999"
     id="path52" />
  <path
     d="m69.3 63.6s3.83 8.34 3.65 12.7c-0.187 4.36-1.73 14.7-1.73 14.7l-30.6-2.07 11.3-27.7z"
     fill="#71c837"
     stroke-width=".999"
     id="path54" />
  <path
     d="m81.3 52.3c-3.17 1.17-6.13 3.48-7.49 7.14l1.52 0.606c1.16-3.12 3.68-5.12 6.53-6.17 2.84-1.05 6-1.09 8.1-0.374l0.492-1.57c-2.56-0.866-6-0.777-9.17 0.391z"
     color="#000000"
     fill="#845816"
     stroke-width="1.38"
     style="-inkscape-stroke:none"
     id="path56" />
  <g
     stroke-width=".999"
     id="g64">
    <path
       d="m103 21.9c-1.73 5.86-17 27.8-25.3 35.5-13 11-27.7 18.2-44.2 20.5 4.82-25.9 16-56.1 16-56.1 30.3-9.86 40.1-11.5 53.6 0.0849z"
       fill="#71c837"
       id="path58" />
    <path
       d="m90.6 28.5s15.8 10.9 19.9 16.5c4.13 5.63 6.22 14.8 6.22 14.8 0.662-9.19 5.2-24.1-2.82-33.1 1.64 0.39 4.83 3.46 7.12 6.92 0.303-11.8-8.77-21.6-19.2-18.8-2.29-2.1-16.1-7.5-17.4-2.98z"
       fill="#71c837"
       id="path60" />
    <path
       d="m61 65.9c-0.535-4.35-32.9-11.2-32.9-11.2 1.17 9.21 22.2 18.1 22.2 18.1 0.381 8.08 7.88 7.36 11 6.97z"
       fill="#f2c7b0"
       id="path62" />
  </g>
  <path
     d="m107 48.8c-1.75 0.137-3.09 1.52-3.09 1.52l0.982 1.04s1.25-1.06 2.22-1.14c0.34-0.0266 1.65 0.311 2.7 0.711 1.05 0.4 1.94 0.814 1.94 0.814l0.605-1.29s-0.928-0.434-2.04-0.855c-1.11-0.422-2.3-0.879-3.32-0.799z"
     color="#000000"
     fill="#845816"
     style="-inkscape-stroke:none"
     id="path66" />
  <path
     d="m126 100-6.46-17.7s-1.07-0.953-1.85 0.51c-0.678-1.2-2.06-9.02-2.06-9.02-2.27-1.33-3.29 4.04-3.29 4.04l1.22 13.3-5.51-9.74c-3.36-0.124-1.93 4.97-1.93 4.97l6.32 15.8c-1.88-0.826-8.74-7-8.74-7-1.86-1.97-3.76 0.637-2.97 1.85 0 0 7.74 7.64 12.1 12.2 0.104 1.08-0.0769 1.83-0.164 2.66-2.25-0.332-7.58-3-10.5-3.61-1.9-0.507-1.73 2.04-0.434 2.65l8.34 5.37 11.4 10.9 15.5 41s7.85 6.68 12.3 3.93c4.44-2.75 4.58-15.7 3.46-17.8l-20.5-35.1z"
     fill="#f2c7b0"
     id="path68" />
</svg>
