<?xml version="1.0" encoding="UTF-8"?>
<svg width="600" height="800" version="1.1" viewBox="0 0 159 212" xmlns="http://www.w3.org/2000/svg" xmlns:cc="http://creativecommons.org/ns#" xmlns:dc="http://purl.org/dc/elements/1.1/" xmlns:rdf="http://www.w3.org/1999/02/22-rdf-syntax-ns#">
 <metadata>
  <rdf:RDF>
   <cc:Work rdf:about="">
    <dc:format>image/svg+xml</dc:format>
    <dc:type rdf:resource="http://purl.org/dc/dcmitype/StillImage"/>
   </cc:Work>
  </rdf:RDF>
 </metadata>
 <g fill="none" stroke-linecap="round" stroke-linejoin="round">
  <circle r="0" stroke="#c53822" stroke-width="2.26" style="paint-order:stroke markers fill"/>
  <g stroke="#924019">
   <circle r="0" stroke-width="1.29" style="paint-order:stroke markers fill"/>
   <circle transform="scale(1,-1)" r="0" stroke-width="3.6" style="paint-order:stroke markers fill"/>
   <circle transform="scale(1,-1)" r="0" stroke-width="3.6" style="paint-order:stroke markers fill"/>
  </g>
  <circle transform="scale(1,-1)" r="0" stroke="#4d4320" stroke-width="4.38" style="paint-order:stroke markers fill"/>
  <circle transform="scale(1,-1)" r="0" stroke="#4d4320" stroke-width="3.52" style="paint-order:stroke markers fill"/>
 </g>
 <g transform="translate(-193 .705)" fill="#71c837" fill-opacity=".361">
  <path d="m276 120 44 14.6s21.4 21.6 14.6 34.8l-60.3-37.5z"/>
  <path d="m254 119-22.9 8.03s-19.7 18.3-13 32.3l37.3-30.6z"/>
  <path d="m257 108s-50.2-56.4-57.8-57.4c-12.4 8.76 10.1 43.2 10.1 43.2l49 24.2z"/>
  <path d="m271 107c4.65-1.26 68.5-66.8 74.3-63.9 13.2 16.1-10.6 44.3-10.6 44.3l-58 30.3z"/>
 </g>
 <path d="m52.4 46.9c-13.8-0.896-19.4 15.3-17 26.7 0 0 5.88 24.1 8.6 36.4 2.72 12.3 0.322 28.3 2.71 36.9 2.39 8.55 8.83 14.7 8.83 14.7l15.6-14.9 28.5 13.3s9.69-20.1 9.99-29.6c0.303-9.48-4.08-16.7-7.35-26.6-3.27-9.87-18-31.9-18-31.9-0.599-21.2-16.4-30-32-25.1z" fill="#71c837"/>
 <g fill="#f2c7b0">
  <path d="m80.4 76.3s-0.467 9.72-2.95 14.3c-2.48 4.59-8.1 11.1-11.8 11.8s-12.4-4.04-15.6-7.9c-3.26-3.85-9.67-21-9.67-21-4.36-23 43.6-20 40.1 2.81z"/>
  <g transform="translate(-.573 -.915)">
   <path d="m120 114-1.03-5.55c-1.27-6.04-1.06-8.64-1.4-10.8l-1.36-4.54s1.85-0.318 3.1 0.682 3.27 8.4 4.92 7.66l4.96-6.23 4.29-14c0-1.77 2.2-2.44 2.26-0.817-0.206 5.39-1.78 9.79-2.78 14.7 0.567 0.144 0.799 0.522 0.799 0.522l9.17-14.1c1.74-1.83 3.43-1.12 2.85 0.697l-8.32 15.4 0.851 0.646s6.45-7.07 11.2-11.8c1.07-1.04 2.41 0.0506 1.41 1.51l-9.7 13.2 0.701 1.4c4.19-3.07 8.77-6.47 8.77-6.47 1.96-1.4 1.34 1.41 0.605 2.11 0 0-5.03 4.76-8 7.48-3.52 5.88-12.3 13.8-12.3 13.8z"/>
   <path d="m28.6 180-3.82 14.6c-0.131 2.28 0.741 5.02 0.741 5.02s-0.161 3.45 0.347 5.5c0.659 1.61 3.32 6.27 3.32 6.27s0.915-2.22 0.399-3.3l2.65e-4 -0.694 3.86 2.39c1.08-0.466 0.0282-3.2-1.26-3.98 0.697-0.228 0.371-1.81 0.371-1.81-0.572-1.52-2.9-2.64-2.9-2.64l0.619-1.36 1.59 0.713c0.487-1.29-1.07-2.35 0.147-3.64l1.63 6.05c0.694 2.43 2.58 0.969 2.48-0.22 0 0-0.219-7.4 0.39-13.2 0.613-1.53-1.04-4.11-0.957-5.68l0.345-4.42z"/>
   <path d="m73.9 96.5s2.53 4.88 6 7.07 8.86 1.1 13.9 5.32c5.03 4.22 5.04 8.76 7.21 14.9 0.0903 2.21 5.09 9.87 6.83 14.5 0 0 12.2-17.2 12.1-24.3 6-1.92 11 5.44 11 5.44-3.1 2.27-16.6 34.4-16.6 34.4-1.2 2.5-8.93 4.45-11.6 1.1l-12.6-21.6-2.31 18.6c8.93 3.26 13.7 12.8 16.3 23.6 2.61 10.8 2.67 21 2.28 36.2l-24 0.526-1.16-19.9-3.18-4.48s-1.89 15.9-6.09 24.2l-17.5 0.0425c-2.01-16 2.44-51.5 4.07-53.7l2.54-4.38-2.44-8.12-2.33-2.74c-18.5 36.7-22.4 38.5-22.4 42.8l-5.2-5.87 16.8-38 4.61-29.3c1.14-3.8 7.13-7.16 7.13-7.16l6.01-1.38-3.52-7.82z"/>
  </g>
  <path d="m44.4 84.2s-8.53-5.61-9.87-3.18c0 0 11.4 9.19 13.2 8.79z"/>
 </g>
 <path d="m51.4 122-1.41 11.1 8.01 12 1.86 7.78 7e-3 5e-3 -0.167 0.0165-5.74 13.8-1.46 29.4 7.13-8.19 11.3 19.1 11.4-16.7 18.2 5.76 3.63-11.7 5.52 8.09-3.46-18.2-9.27-18.5-9.53-5.58 2.64-16.7-3.72-8.07 5.19-19.9-7.52-0.958-5.78-3.64-1 9.84-10.2 6.09-5.8-5.99-1.62-7.9-4.36 2.42-6.29 4.44z" fill="#a8dc71"/>
 <path d="m73.4 96.1-4.84 8.7-4.6-0.615-2.15-2.06 3.23 0.371c3.33-1.35 4.95-2.77 8.36-6.4z" fill="#536c53" fill-opacity=".369"/>
 <path d="m67.4 77.9c-0.0231 0.432 0.0144 0.871 0.111 1.3 0.502 2.21 2.44 3.66 4.33 3.23 1.89-0.429 3.01-2.57 2.51-4.78-0.197-0.867-0.63-1.66-1.23-2.25-0.0846-0.043-1.08-0.0805-2.03-0.413-2.45-0.0213-3.25 0.631-3.69 2.9z" fill="#80b617"/>
 <path d="m65.4 81.1c0.983-8.48 7.24-6.41 9.22-2.63l1.49-2.83c-1.63 0.495-4.14-2.28-8.14-1.17-1.31 0.607-3.08 2.21-2.56 6.64z" fill="#845816"/>
 <ellipse transform="matrix(.97 -.243 .202 .979 0 0)" cx="35.1" cy="93.8" rx="3.2" ry="4.09" fill="#80b617"/>
 <ellipse transform="matrix(.966 -.257 .191 .982 0 0)" cx="36.3" cy="94.5" rx="1.5" ry="2.03" fill="#5d8411" stroke-width=".483"/>
 <ellipse transform="matrix(.891 -.454 .393 .919 0 0)" cx="34.3" cy="103" rx="1.5" ry="2.03" fill="#5d8411" stroke-width=".483"/>
 <path d="m56.4 83c-3.85-6.06-8.85-1.62-8.54 1.72 0 0-1.32-0.544-3.04-1.47 1.47 0.0431 3.33-3.3 5.63-4.07 1.45-1.01 5.07-0.232 5.95 3.82z" fill="#845816"/>
 <path d="m63.4 93.9c1.73-0.433 5.83-2.56 6.17-2.84 0.787 1.05-2.51 5.03-4.73 5.48-2.22 0.448-5.29-2.4-5.29-2.4s2.12 0.193 3.85-0.24z" fill="#a22c2c" fill-opacity=".532"/>
 <path d="m63.4 94.8c1.73-0.433 4-0.772 4.56-0.669-1.08 1.21-1.98 1.97-3.35 2.37-1.37 0.404-3.09-0.83-3.09-0.83s0.15-0.438 1.88-0.87z" fill="#a22c2c" fill-opacity=".532"/>
 <g transform="translate(-193 .705)">
  <path d="m262 66.8c-2.48 0.244-5.01 1.32-6.65 3.61l0.969 0.691c1.4-1.96 3.57-2.89 5.79-3.11 2.22-0.219 4.48 0.314 5.85 1.19l0.639-1c-1.67-1.06-4.13-1.61-6.61-1.37z" color="#000000" fill="#845816" style="-inkscape-stroke:none"/>
  <path d="m243 72.1c-1.37 0.153-2.52 0.678-3.42 1.32-1.81 1.28-2.71 2.98-2.71 2.98l1.05 0.561s0.798-1.47 2.35-2.57 3.76-1.83 6.9-0.301l0.521-1.07c-1.75-0.851-3.32-1.07-4.69-0.916z" color="#000000" fill="#845816" style="-inkscape-stroke:none"/>
  <path d="m254 89.2 2.4-0.372-1.46 1.87-1.35-0.528z" fill="#b7a58d"/>
 </g>
 <path d="m107 138-2.29 4.03s0.959-3.97 0.605-7.92c0.989 2.7 1.68 3.89 1.68 3.89z" fill="#90aa78" fill-opacity=".949"/>
 <ellipse transform="rotate(-15.1)" cx="48.9" cy="93.5" rx=".759" ry="1.1" fill="#fff"/>
 <ellipse transform="rotate(-15.1)" cx="30.9" cy="92.5" rx=".759" ry="1.1" fill="#fff"/>
 <path d="m57.4 64.6c-1.01 5.75-14.1 20.4-14.1 20.4-4.63-7.59-5.91-14.1-3.6-20.2s10.5-11.5 15.1-10.1c2.9 1.18 3.58 4.13 2.57 9.87z" fill="#71c837"/>
 <path d="m55.4 57.9s5.99 7.4 10.7 9.99 16.1 3.96 16.1 3.96-0.982-11.9-9.75-16.6c-8.77-4.7-15.8-0.549-15.8-0.549z" fill="#71c837"/>
 <g transform="translate(-193 .705)">
  <path d="m251 145 10.8 2.07 12.9-2.25 6.85-3.59 1.66 1.81-0.997 6.93-7.37 6.44-13.9 3.95s-8.93-3.44-9.09-5.14c-0.169-1.7-1.33-8.57-1.33-8.57z" fill="#598e24"/>
  <path d="m311 107 0.936 5.34 2.74 2.06-2.09-3.08z" fill="#b7a58d"/>
  <path d="m251 86 1.43-1.32 0.363 3.47-1.33-0.775z" fill="#fbf1f1"/>
 </g>
 <path d="m76 68.9s1.78 9.73 2.23 12.7 4.2 6.18 4.2 6.18l5.99-5.61-6.31-12.7z" fill="#71c837"/>
 <path d="m81.3 75.4c0.907-0.362 16.9-8.89 16.9-8.89 1.27 2.91-13.2 12.2-13.2 12.2s-0.453 3.5-3.07 3.97c0 0-1.64-6.67-0.579-7.28z" fill="#f2c7b0"/>
</svg>
