<?xml version="1.0" encoding="UTF-8"?>
<!-- Created with Inkscape (http://www.inkscape.org/) -->
<svg width="102mm" height="17.3mm" version="1.1" viewBox="0 0 102 17.3" xmlns="http://www.w3.org/2000/svg" xmlns:xlink="http://www.w3.org/1999/xlink">
 <defs>
  <radialGradient id="radialGradient1158" cx="1282" cy="543" r="172" gradientTransform="matrix(.0347 .0529 -.0445 .0292 -1.98 -96.7)" gradientUnits="userSpaceOnUse">
   <stop stop-color="#6be13e" stop-opacity=".0891" offset="0"/>
   <stop stop-color="#6be13e" offset="1"/>
  </radialGradient>
  <radialGradient id="radialGradient10953" cx="76.2" cy="7.42" r="1.8" gradientTransform="matrix(.0737 -4.52 4.26 .0695 -29.9 352)" gradientUnits="userSpaceOnUse" xlink:href="#radialGradient1158"/>
  <radialGradient id="radialGradient10970" cx="88.2" cy="159" r="17.3" gradientTransform="matrix(-.0078 -.413 .375 -.0071 -51.8 46.2)" gradientUnits="userSpaceOnUse" xlink:href="#radialGradient1158"/>
  <radialGradient id="radialGradient10976" cx="87.7" cy="157" r="17.3" gradientTransform="matrix(-.0078 -.413 .375 -.0071 -50.8 46)" gradientUnits="userSpaceOnUse" xlink:href="#radialGradient1158"/>
  <radialGradient id="radialGradient10982" cx="90.7" cy="158" r="17.3" gradientTransform="matrix(-.0078 -.413 .375 -.0071 -51.3 47.2)" gradientUnits="userSpaceOnUse" xlink:href="#radialGradient1158"/>
 </defs>
 <g>
  <path d="m7.4 0.121-6.46 3.73c-0.564 0.325-0.934 0.966-0.934 1.73l-2.05e-6 6.28c0 0.64 0.37 1.28 0.924 1.6l6.47 3.74z" fill="url(#radialGradient10953)"/>
  <path d="m10.3 9.61-1.75-1.02 2.64-1.51 1.75 1.02 0.0045-1.01-0.876-0.511 3.52-2.01-9e-3 2.03-0.876-0.511-0.881 0.503 1.75 1.02-0.0045 1.01-1.75-1.02-9e-3 2.03-2.63-1.53-0.881 0.503z" fill="url(#radialGradient10970)"/>
  <path d="m15.5 9.64-0.0135 3.04-4.38-2.56 0.0045-1.01 3.5 2.04 9e-3 -2.03z" fill="url(#radialGradient10970)"/>
  <path d="m9.73 7.2-1.76 1.01v-3.04l1.76-1.01-0.878-0.507-0.878 0.507v-4.06l1.76 1.01-0.878 0.507v1.01l1.76-1.01 0.878 0.507-1.76 1.01 1.76 1.01-2.64 1.52v1.01z" fill="url(#radialGradient10976)"/>
  <path d="m12.4 2.64 2.64 1.52-4.39 2.54-0.878-0.507 3.51-2.03-1.76-1.01z" fill="url(#radialGradient10976)"/>
  <path d="m7.97 11.1-1e-7 -2.03 2.64 1.52v2.03l0.878-0.507v-1.01l3.51 2.03-1.76 1.01v-1.01l-0.878-0.507v2.03l-0.878 0.507v-2.03l-1.76 1.01-7e-7 -3.04-0.878-0.507z" fill="url(#radialGradient10982)"/>
  <path d="m10.6 15.7-2.64 1.52-8e-7 -5.07 0.878-0.507 1e-7 4.06 1.76-1.01z" fill="url(#radialGradient10982)"/>
 </g>
 <text x="19.051304" y="12.679232" fill="#000000" font-family="sans-serif" font-size="10.6px" stroke-width=".265" style="line-height:1.25" xml:space="preserve"><tspan x="19.051304" y="12.679232" font-family="'Roboto Condensed'" stroke-width=".265">人工無脳は考える</tspan></text>
</svg>
