<?xml version="1.0" encoding="UTF-8"?>
<!-- Created with Inkscape (http://www.inkscape.org/) -->
<svg id="SVGRoot" width="600px" height="800px" version="1.1" viewBox="0 0 600 800" xml:space="preserve" xmlns="http://www.w3.org/2000/svg" xmlns:xlink="http://www.w3.org/1999/xlink"><defs><linearGradient id="linearGradient11945" x1="221" x2="166" y1="444" y2="339" gradientTransform="matrix(1.1 .388 -.388 1.1 106 -154)" gradientUnits="userSpaceOnUse"><stop stop-color="#43b336" offset="0"/><stop stop-color="#e8f9e8" offset="1"/></linearGradient><linearGradient id="linearGradient14706" x1="26" x2="111" y1="94.8" y2="245" gradientTransform="matrix(1.1 .388 -.388 1.1 106 -154)" gradientUnits="userSpaceOnUse"><stop stop-color="#c9f2c9" offset="0"/><stop stop-color="#78d56b" offset="1"/></linearGradient><radialGradient id="radialGradient13964" cx="147" cy="252" r="102" gradientTransform="matrix(1.3 -.16 .069 .56 -63 91.8)" gradientUnits="userSpaceOnUse"><stop stop-color="#e8f9e8" offset="0"/><stop stop-color="#9cde92" offset="1"/></radialGradient></defs><g><path d="m0 368v37.4c50.4 114 125 302 114 395h126c-20.8-128-167-334-241-432z" fill="#a0c7a0" stroke-width="11.8" style="paint-order:stroke markers fill"/><path d="m600 101c-66.1 134-274 563-275 699h128c-15.7-109 99.3-510 148-671v-27.8z" fill="#7aa47a" stroke-width="15.8" style="paint-order:stroke markers fill"/><path d="m600 519s-157 219-158 281h68c-10.5-52 90-281 90-281z" fill="#bce4bc" stroke-width="7.1" style="paint-order:stroke markers fill"/><path d="m291 61.4s-139 519-136 739h167c41.8-241-31-739-31-739z" fill="#408940" stroke-width="25.9" style="paint-order:stroke markers fill"/><path d="m600 392c-121 107-279 263-357 408h153c45.4-95.2 129-221 204-327v-81.2z" fill="#61c461" stroke-width="16.4" style="paint-order:stroke markers fill"/></g><g transform="translate(0 -4.22)"><path d="m201 53.2c21.8 34.4 67.8 146 67.8 146l29.9 26.5c-99.5 81.3-184 58.8-294 29.6l23.2-24.8s16.5-82.5 18.2-151c26.7-43.7 82.7-71.9 155-25.9z" fill="url(#linearGradient14706)" style="paint-order:stroke markers fill"/><path d="m154 274c-34.9-2.42-130-21.4-130-21.4s78.8-56.9 106-59c40.9 0.154 155 29.8 155 29.8s-74.9 47-131 50.6z" fill="url(#radialGradient13964)" style="paint-order:stroke markers fill"/><path d="m141 207c-2.24-0.237-3.91 2.62-7.5 12 48.5 166 33.7 447 15.5 585h46.1c12.8-159-1.88-508-37.4-588-10-3.32-13.8-8.74-16.7-9.05z" fill="url(#linearGradient11945)" style="paint-order:stroke markers fill"/></g></svg>
