<?xml version="1.0" encoding="UTF-8"?>
<!-- Created with Inkscape (http://www.inkscape.org/) -->
<svg id="SVGRoot" width="600px" height="800px" version="1.1" viewBox="0 0 600 800" xml:space="preserve" xmlns="http://www.w3.org/2000/svg" xmlns:xlink="http://www.w3.org/1999/xlink"><defs><linearGradient id="linearGradient14706" x1="25.97" x2="110.6" y1="94.82" y2="244.6" gradientTransform="matrix(1.097 .3882 -.3882 1.097 101.9 -158.6)" gradientUnits="userSpaceOnUse"><stop stop-color="#c9f2c9" offset="0"/><stop stop-color="#78d56b" offset="1"/></linearGradient><radialGradient id="radialGradient13964" cx="146.7" cy="251.6" r="101.6" gradientTransform="matrix(1.296 -.1595 .06895 .5599 -67.18 87.55)" gradientUnits="userSpaceOnUse"><stop stop-color="#e8f9e8" offset="0"/><stop stop-color="#9cde92" offset="1"/></radialGradient><linearGradient id="linearGradient11945" x1="220.6" x2="166.1" y1="444" y2="338.6" gradientTransform="matrix(1.097 .3882 -.3882 1.097 101.9 -158.6)" gradientUnits="userSpaceOnUse"><stop stop-color="#43b336" offset="0"/><stop stop-color="#e8f9e8" offset="1"/></linearGradient></defs><g transform="translate(3.867 60.27)"><path d="m-3.867 307.3v37.37c50.41 113.5 125.4 301.6 114.5 395.1h126.3c-20.83-128.4-166.5-334.2-240.8-432.4z" fill="#a0c7a0" stroke-width="11.81" style="paint-order:stroke markers fill"/><path d="m596.1 40.46c-66.11 133.6-273.6 563.2-275.3 699.3h127.8c-15.68-109.5 99.34-510.3 147.5-671.5z" fill="#7aa47a" stroke-width="15.83" style="paint-order:stroke markers fill"/><path d="m596.1 459.2s-156.9 219.5-158 280.5h68.01c-10.49-52 89.97-280.5 89.97-280.5z" fill="#bce4bc" stroke-width="7.1" style="paint-order:stroke markers fill"/><path d="m287.4 1.129s-138.7 519-136.4 738.6h167.4c41.77-241.4-31.02-738.6-31.02-738.6z" fill="#408940" stroke-width="25.85" style="paint-order:stroke markers fill"/><path d="m596.1 331.3c-120.5 106.5-279.2 262.8-357.3 408.4h153.2c45.4-95.2 128.9-221 204.1-327.2z" fill="#61c461" stroke-width="16.41" style="paint-order:stroke markers fill"/></g><g><path d="m246.3 623.7c0-1e-5 -200 81.23-132.4 176.3h421.4c68.64-103.5-43.6-124.6-80.01-175.4l-209-0.8984z" fill="#b6c28e" style="paint-order:stroke markers fill"/><path d="m297.1 577.3-76.5 32.16s-107.2 92.82-121.6 115.4c-21.69 34.18 1.177 83.59 16.5 13.42l270.7-100.7 112.8 162.4h101v-87.41l-106.1-109-49.27-17.93-147.5-8.332z" fill="#4f5830" style="paint-order:stroke markers fill"/><path d="m257.5 646.4-19.65-92.27 231.7 2.75-13.04 70.52z" fill="#4f5830" style="paint-order:stroke markers fill"/><path d="m415.3 509.7c-0.4807 42.86 17.44 52.12 17.44 52.12-11 25.58-15.9 44.56-50.44 52.46 0 0-54.06-13.61-79.81-39.1 14.65-39.65-0.8108-169.5-0.8108-169.5z" fill="#584530" style="paint-order:stroke markers fill"/><path d="m397 159.4 79.73 0.3926-6.021 21.78 43.07 1.386 0.945 9.419 17.87 8.351 0.9083 49.33 50.19 21.6-8.764 27.06 18.97 32.93-30.5 39.94-1.608 31.94-26.36 20.94 0.2037 36.73-38.45 24.11-24.28 15.48-194.7 25.06-58.65 13.76-17.67-44.09-40.68-20.83-4.12-28.48-18.12-11.83 12.19-43.16-38.93-43.51 29.42-32.84-6.112-28.09 42.7-26.16 0.6935-45.36 41.47-5.912 35.27-56.63 78.43 14.75 26.77-23.13z" fill="#6f9e46" style="paint-order:stroke markers fill"/><path d="m235.3 420.7s-111.1-40.66-119.4-29c0.7423 24.91 100.7 75.66 119.7 94.2l35.81 9.693z" fill="#886a49" style="paint-order:stroke markers fill"/><path d="m498.9 399.8c-3.389 70.21-8.054 82.25-14.55 115-21.57 83.59-181.9 71.27-207.3 16.04-13.51-36.42-60.39-118-60.39-118s-85.35-212.6 145.8-213.4c231.1-0.8452 125.9 139.6 136.5 200.3z" fill="#886a49" style="paint-order:stroke markers fill"/><path d="m366.2 523.2s31.45-2.1 39.95-2.419c8.5-0.3188 30.79-1.977 30.79-1.977s-18.28 26.98-30.88 28.2c-12.6 1.223-39.87-23.8-39.87-23.8z" fill="#5c473c" style="paint-order:stroke markers fill"/></g><path d="m403.6 481.1 15 4.548 11.41-6.586s-2.22 15.61-14.27 15.14c-12.05-0.4656-12.15-13.1-12.15-13.1z" fill="#494949" fill-opacity=".5479" style="paint-order:stroke markers fill"/><g fill="#ab8862"><path d="m357.7 341.9c-0.6768 3.659-19.71 64.19-19.71 64.19l3.166 60.83-23.77 60.08 2.667 28.67-23.23-11.66-0.8163-21.51 24.01-44.24 9.708-71.89 8.699-68.32z" style="paint-order:stroke markers fill"/><path d="m437.2 341.2 1.641 43.54-4.899 56.76 9.89 49.28-9.461 54.16 1.786 15.14 14.87-21.4-3.148-37.4 5.402-31.94-9.157-38.38 5.234-52.92-5.883-55.22z" style="paint-order:stroke markers fill"/><path d="m476.5 354.1 3.735 45.12-10.82 45.91 4.611 52.73 13.74-36.84-7.431-31.51 10.89-33.25-5.921-60.17z" style="paint-order:stroke markers fill"/></g><g><path d="m495.5 412.7 51.02-25.09c1.59 20.85-46.76 74.63-54.88 90.49l-17.15 6.456z" fill="#886a49" style="paint-order:stroke markers fill"/><path d="m427.8 381.5c0.1699-3.706 38.58-7.06 44.29-5.943 8.947 1.661 25.95 12.57 25.95 12.57s-17.51-4.641-28.6-5.749c-10.78-1.19-41.64-0.8744-41.64-0.8744z" fill="#604e3d" style="paint-order:stroke markers fill"/><path d="m371.5 381.7c-0.4138-4.491-35.36-10.84-42.22-9.32 0 0-41.56 9.363-56.19 19.35 0 0 49.69-9.365 59.57-10.79 8.221-0.7021 39.39 1.662 38.85 0.762z" fill="#604e3d" style="paint-order:stroke markers fill"/><path d="m188.9 362.9s56.84 73.24 61.89 59.56c5.047-13.68 19.18-75.56 19.18-75.56l42.02 23.22 23.56-29.84 25.04 19.52 8.968-12.21 22.49 47.82 32.31-57.28 17.36 16.04 12.89-18.17 18.09 14.21 25.22-7.072 19.08 23.26 17.31-100.2-37.03-65.25-193.4-14.42-95.94 41.98-35.34 125.2 49.93 99.91z" fill="#6f9e46" style="paint-order:stroke markers fill"/><path d="m196.4 48.94c21.78 34.42 67.85 145.5 67.85 145.5l29.86 26.54c-99.52 81.26-183.9 58.77-293.9 29.59l23.25-24.82s16.55-82.48 18.22-150.9c26.7-43.72 82.74-71.92 154.7-25.89z" fill="url(#linearGradient14706)" style="paint-order:stroke markers fill"/><path d="m149.5 269.6c-34.94-2.416-130-21.39-130-21.39s78.85-56.85 106.1-59.02c40.87 0.1545 154.9 29.84 154.9 29.84s-74.88 47.01-131 50.57z" fill="url(#radialGradient13964)" style="paint-order:stroke markers fill"/><path d="m136.7 203c-2.237-0.2368-3.908 2.622-7.5 11.97 48.5 166 33.75 447.3 15.54 585.1h46.05c12.75-158.9-1.877-508.3-37.39-588-10.02-3.323-13.83-8.744-16.7-9.049z" fill="url(#linearGradient11945)" style="paint-order:stroke markers fill"/><path d="m136.5 702.5 32.66-8.938c13.55 1.127 10.86 20.7 3.148 20.7l-21.87 7.3 22.89-3.239c13.22-0.9664 10.41 22.55 1.555 21.26l-22.1 4.844 22.36-0.0784c13.83 1.202 10.73 23.3 2.672 23.3l-25.02-0.0569 19.72 1.748c14.11 4.832 9.34 26.33-3.735 26.14l-27.03-8.56-10.81-19.98 3.218-17.5-0.2429-26.5z" fill="#886a49" style="paint-order:stroke markers fill"/><path d="m174.5 705.5c2.548 0.9198 22.11 1.235 22.11 1.235 22.04 14.65 7.556 31.21-1.097 32.07 0 0-7.923-4.251-21.08-6.387-13.6-4.051-25.09-20.45 0.0691-26.92z" fill="#886a49" style="paint-order:stroke markers fill"/></g><g stroke-width="6.347"><ellipse cx="461.8" cy="435.1" rx="13.4" ry="21.99" fill="#241c1c" style="paint-order:stroke markers fill"/><ellipse cx="347.5" cy="436.8" rx="13.4" ry="21.99" fill="#241c1c" style="paint-order:stroke markers fill"/><path d="m388.8 342.9s-3.252-58.08-10.69-84.67c-7.436-26.58-46.57-119.7-72.62-150.5 28.18 8.995 125.5 96.87 126.6 141.6s-43.33 93.59-43.33 93.59z" fill="#008000" style="paint-order:stroke markers fill"/><path d="m374.3 339.5s3.571-29.07-11.4-57c-14.98-27.93-53.25-81.47-53.25-81.47 22.78 3.842 70.78 47.64 81.91 69.5 11.12 21.86-17.25 68.97-17.25 68.97z" fill="#006100" style="paint-order:stroke markers fill"/></g></svg>
